<svg xmlns="http://www.w3.org/2000/svg" viewBox="0 0 44.67 50.46"><title>bomb</title><g id="Layer_2" data-name="Layer 2"><g id="Layer_1-2" data-name="Layer 1"><circle cx="22.33" cy="28.13" r="22.33"/><circle cx="13.83" cy="26.79" r="11.58" style="fill:#fff;opacity:0.12"/><path d="M27.78,2.67l.39,5.16a2.9,2.9,0,0,1-2.78,3.11l-4.48.16c-1.66.06-3.45-.66-3.42-2.32L18,2.85A2.9,2.9,0,0,1,20.9,0h4A2.88,2.88,0,0,1,27.78,2.67Z"/><path d="M21.45,1.28s-2.08-.1-2.28,1.8C19,4.33,19,6.59,19,7.17a3.83,3.83,0,0,0,2.3,2.14C21.33,8.1,21.45,1.28,21.45,1.28Z" style="fill:#fff;opacity:0.3"/></g></g></svg>