<svg xmlns="http://www.w3.org/2000/svg" viewBox="0 0 160.08 525"><title>bone</title><g id="Layer_2" data-name="Layer 2"><g id="Layer_1-2" data-name="Layer 1"><circle cx="114.04" cy="46.04" r="46.04" style="fill:#fff"/><path d="M51.12,91.87A47.38,47.38,0,0,1,.28,50,44.75,44.75,0,0,1,41.09.21,47.38,47.38,0,0,1,91.94,42.12,44.75,44.75,0,0,1,51.12,91.87Z" style="fill:#fff"/><ellipse cx="114.04" cy="474.46" rx="46.04" ry="50.54" style="fill:#fff"/><path d="M51.12,524.77C25.81,527.14,3,506.54.28,478.76s15.51-52.23,40.82-54.61,48.07,18.22,50.84,46S76.43,522.39,51.12,524.77Z" style="fill:#fff"/><path d="M45.33,464s5.75-96,6.94-200C53.68,140,36.08,75,36.08,75l89-1s-13.11,83-14,185c-1,115,7.06,205,7.06,205Z" style="fill:#fff"/></g></g></svg>