<svg xmlns="http://www.w3.org/2000/svg" viewBox="0 0 160.11 414.93"><title>bone</title><g id="Layer_2" data-name="Layer 2"><g id="Layer_1-2" data-name="Layer 1"><g id="Layer_2-2" data-name="Layer 2"><g id="Layer_1-2-2" data-name="Layer 1-2"><circle cx="114.07" cy="46.04" r="46.04" style="fill:#fff"/><path d="M51.15,91.87A47.37,47.37,0,0,1,.31,50,44.75,44.75,0,0,1,39.57.36c.51-.06,1-.11,1.55-.15A47.38,47.38,0,0,1,92,42.12a44.75,44.75,0,0,1-39.31,49.6C52.16,91.78,51.65,91.83,51.15,91.87Z" style="fill:#fff"/><ellipse cx="114.07" cy="364.39" rx="46.04" ry="50.54" style="fill:#fff"/><path d="M51.15,414.7C25.84,417.07,3,396.47.31,368.69s15.51-52.23,40.82-54.61S89.2,332.3,92,360.08,76.46,412.32,51.15,414.7Z" style="fill:#fff"/><path d="M45.36,353.93s5.75-37,6.94-141C53.71,89,36.11,75,36.11,75l89-1s-13.11,32-14,134c-1,115,7.06,146,7.06,146Z" style="fill:#fff"/></g></g></g></g></svg>