<?xml version="1.0" encoding="utf-8"?>
<!-- Generator: Adobe Illustrator 22.0.0, SVG Export Plug-In . SVG Version: 6.00 Build 0)  -->
<svg version="1.1" id="Layer_1" xmlns="http://www.w3.org/2000/svg" xmlns:xlink="http://www.w3.org/1999/xlink" x="0px" y="0px"
	 viewBox="0 0 160.1 525" style="enable-background:new 0 0 160.1 525;" xml:space="preserve">
<style type="text/css">
	.st0{fill:#FFFFFF;}
</style>
<title>bone</title>
<g id="Layer_2_1_">
	<g id="Layer_1-2">
		<circle class="st0" cx="114" cy="156.1" r="46"/>
		<path class="st0" d="M51.1,201.9c-25.5,2-48-16.5-50.8-41.9c-2.9-24.5,14.7-46.8,39.3-49.6c0.5-0.1,1-0.1,1.5-0.2
			c25.5-2,48,16.5,50.9,41.9c2.8,24.6-14.8,46.8-39.3,49.6C52.1,201.8,51.6,201.9,51.1,201.9z"/>
		<ellipse class="st0" cx="114" cy="474.5" rx="46" ry="50.5"/>
		<path class="st0" d="M51.1,524.8c-25.3,2.4-48.1-18.2-50.8-46s15.5-52.2,40.8-54.6s48.1,18.2,50.8,46S76.4,522.4,51.1,524.8z"/>
		<path class="st0" d="M45.3,464c0,0,5.8-37,6.9-141c1.4-124-16.2-138-16.2-138l89-1c0,0-13.1,32-14,134c-1,115,7.1,146,7.1,146
			H45.3z"/>
	</g>
</g>
</svg>
