<svg xmlns="http://www.w3.org/2000/svg" viewBox="0 0 160.01 414.95"><title>bone</title><g id="Layer_2" data-name="Layer 2"><g id="Layer_1-2" data-name="Layer 1"><g id="Layer_2-2" data-name="Layer 2"><g id="Layer_1-2-2" data-name="Layer 1-2"><circle cx="114.01" cy="46.05" r="46" style="fill:#fff"/><path d="M51.11,91.85A47.29,47.29,0,0,1,.31,50,44.67,44.67,0,0,1,39.61.35c.5-.1,1-.1,1.5-.2A47.45,47.45,0,0,1,92,42.05a44.76,44.76,0,0,1-39.3,49.6A10,10,0,0,1,51.11,91.85Z" style="fill:#fff"/><ellipse cx="114.01" cy="364.45" rx="46" ry="50.5" style="fill:#fff"/><path d="M51.11,414.75c-25.3,2.4-48.1-18.2-50.8-46s15.5-52.2,40.8-54.6,48.1,18.2,50.8,46S76.41,412.35,51.11,414.75Z" style="fill:#fff"/><path d="M45.31,354s5.8-37,6.9-141C53.61,89,36,75,36,75l89-1s-13.1,32-14,134c-1,115,7.1,146,7.1,146Z" style="fill:#fff"/></g></g></g></g></svg>