<svg xmlns="http://www.w3.org/2000/svg" viewBox="0 0 60.44 100.73"><title>paddle-spin</title><g id="Layer_2" data-name="Layer 2"><g id="Layer_1-2" data-name="Layer 1"><path d="M37.73,100s-7.6.73-10.14.73-9.86-.73-9.86-.73-2.83-25.61,0-50c2.89-24.84.21-49.19.21-49.19A71.3,71.3,0,0,1,27.73,0,77.56,77.56,0,0,1,38,.94S40.49,21.86,37.73,50C35.45,73.27,37.73,100,37.73,100Z" style="fill:#fff"/><path d="M27.28.07S11.18.73,0,8.51C4.92,7.25,14.24,6.59,16.37,7.38s.66,2.27-1,2.8S8.38,13,6.45,15.1c3.93-.27,8.05-1.86,9.78-.6s1.6,3,.27,3.86a20.34,20.34,0,0,0-5,3.73c2.73.33,6.19,1.46,6,3.12s-2.79,5.19-2.79,5.19l4.85,2.73,3.46-12.57Z" style="fill:#fff;opacity:0.2"/><path d="M35.29,100.37S51,96.63,60.44,86.84C55.85,89,46.84,91.47,44.6,91.1S43.51,89,45,88.16s6.32-4.08,7.8-6.54c-3.8,1-7.54,3.37-9.48,2.46s-2.14-2.63-1-3.73a20.42,20.42,0,0,0,4.18-4.62c-2.74.2-6.35-.24-6.54-1.9s1.74-5.63,1.74-5.63l-5.29-1.74-1,13Z" style="fill:#fff;opacity:0.2"/></g></g></svg>