<svg xmlns="http://www.w3.org/2000/svg" viewBox="0 0 200 200"><title>spinny</title><g id="Layer_2" data-name="Layer 2"><g id="Layer_1-2" data-name="Layer 1"><path d="M118.56,126.82S159.34,76.6,136.52,0C168,34.84,170.34,86.27,135,132.56,122.5,128.67,118.56,126.82,118.56,126.82Z" style="fill:#fff"/><path d="M87.36,130.44S148.8,142.74,200,83.51c-12.72,46.34-53.6,74.17-109.12,64.86C87.82,135,87.36,130.44,87.36,130.44Z" style="fill:#fff"/><path d="M68.8,103.62s20.66,62.53,94.67,79.89C119.24,195,76.05,171.41,55.9,115.82,65.31,106.31,68.8,103.62,68.8,103.62Z" style="fill:#fff"/><path d="M81.44,73.18S40.66,123.4,63.48,200C32,165.16,29.66,113.73,65,67.44,77.5,71.33,81.44,73.18,81.44,73.18Z" style="fill:#fff"/><path d="M112.64,69.56S51.2,57.26,0,116.49C12.72,70.15,53.6,42.32,109.12,51.62,112.18,65,112.64,69.56,112.64,69.56Z" style="fill:#fff"/><path d="M131.2,96.38S110.54,33.85,36.52,16.49C80.76,5,123.95,28.59,144.1,84.18,134.69,93.69,131.2,96.38,131.2,96.38Z" style="fill:#fff"/></g></g></svg>