<svg xmlns="http://www.w3.org/2000/svg" viewBox="0 0 1152 681.74"><title>surface</title><g id="Layer_2" data-name="Layer 2"><g id="Layer_1-2" data-name="Layer 1"><path d="M1084.3,35.86c-1.63-6.94-3.86-13.84-6.84-15.86-5.6-3.8-28.54-14.26-72.47-18.79s-75.11,9.41-77,15.26c-.36,1.09-.88,2.43-1.5,3.89C823.75,11.73,698.05,4,576,4,505.73,4,437.31,6.16,373.61,9.42a7.22,7.22,0,0,0-2.3-2.59c-4-2.25-20.09-7.7-49.48-6.71-23.83.79-41.05,9.7-47.12,15.45q-8.19.59-16.2,1.21c-1.86-4.22-4-7.78-6.43-8.66-5.71-2.11-28.72-6.33-71.5-1-31.87,3.94-56.06,15.25-66.9,23C42.84,37.71,0,44,0,44v633.7H1152V44S1126.83,40.66,1084.3,35.86Z" style="fill:#7f2f7a"/><path d="M1084.3,39.86c-1.63-6.94-3.86-13.83-6.84-15.86-5.6-3.79-28.54-14.25-72.47-18.79s-75.11,9.41-77,15.26c-.36,1.09-.88,2.43-1.49,3.89C823.75,15.73,698.05,8.05,576,8.05c-70.27,0-138.69,2.11-202.39,5.37a7.31,7.31,0,0,0-2.3-2.59c-4-2.25-20.09-7.69-49.48-6.71-23.83.8-41.05,9.71-47.12,15.45q-8.19.6-16.2,1.21c-1.86-4.22-4-7.78-6.43-8.66-5.71-2.1-28.72-6.33-71.5-1-31.87,3.93-56.06,15.24-66.9,23C42.84,41.71,0,48.05,0,48.05V681.74H1152V48.05S1126.83,44.66,1084.3,39.86Z" style="fill:#55174e"/><ellipse cx="255.73" cy="81.63" rx="11.65" ry="24.85" transform="translate(161.18 332.87) rotate(-87.08)" style="fill:#440d40"/><ellipse cx="1088.71" cy="96.26" rx="18.22" ry="37.46" transform="translate(872.47 1167.62) rotate(-83.64)" style="fill:#440d40"/><ellipse cx="1000.78" cy="115.68" rx="22.14" ry="10.77" transform="translate(-4.47 49.26) rotate(-2.81)" style="fill:#440d40"/><ellipse cx="98.82" cy="230.27" rx="21.05" ry="12.45" transform="translate(-40.24 21.82) rotate(-10.48)" style="fill:#440d40"/><path d="M989.74,360.54s2.9,9.42,6.09,10.53c9.32,3.26,18.34-3.67,18.34-3.67s5.51-2.18,10.93-4.35c2.82-1.3,7.37-4.12,7.37-4.12l9.32-3.25,7.81-2.6,5.2-3.25,8-2.95,12.31-5,3.12-.93,1.86-3-1.86-3.37-2.19-3-3.87-2.36-1.85-3-79,31.6Z" style="fill:#440d40"/><ellipse cx="310.28" cy="111.46" rx="15.85" ry="7.43" transform="translate(-5.63 17.13) rotate(-3.13)" style="fill:#440d40"/><ellipse cx="231.98" cy="121.81" rx="12.52" ry="5.87" transform="matrix(1, -0.05, 0.05, 1, -6.31, 12.87)" style="fill:#440d40"/><ellipse cx="28.7" cy="102.26" rx="12.52" ry="5.87" transform="translate(-15.31 5.6) rotate(-8.8)" style="fill:#440d40"/><path d="M72.9,376.26S192.1,361.17,202,358.69s1.65-9.61-7.26-8.85c-33.37,2.86-119.34,11.63-113.14,11.33Z" style="fill:#440d40"/><circle cx="71.96" cy="361.42" r="14.15" style="fill:#876484"/><path d="M57.8,382.71s9.44,2.15,13.91,2.64S84,384,84,384L97,387.34,86.6,397.77l-32.27-4-9.11-12.75Z" style="fill:#55174e"/><path d="M49.36,376.55c-1.26-1.27,6.46,2,8,3s13.9,4,16.88,3.48,11.42-2.49,11.42-2.49H97L107.46,379S99,384,96,384s-8.94-1-11.92.5-5.46,3-9.43,2.48-15.89-2-18.87-4S49.86,377.05,49.36,376.55Z" style="fill:#440d40"/><path d="M81.43,391.6c1.7,0,6.82-3.41,10.22-3.41s9.38.86,13.64,0,14.49-3.41,20.46-1.7,12.78.85,18.75,0,11.93-1.71,16.19-1.71,26.42,3.41,26.42,3.41l-4.26,4.26s-18.75-6-23.86-4.26-11.08,3.41-16.2,2.56-9.37,0-16.19,0-17,1.7-21.31,1.7-12.78-.85-12.78-.85Z" style="fill:#440d40"/><path d="M114.77,380.25c1.7,0,6.72-3.59,10.13-3.68s9.39.59,13.63-.37,14.39-3.81,20.4-2.26,12.8.5,18.75-.51,11.88-2,16.14-2.15,26.5,2.69,26.5,2.69l-6.84,1.29s-16.21-2.36-21.27-.52-11,3.71-16.12,3-9.37.26-16.19.44-17,2.17-21.25,2.29-12.81-.51-12.81-.51Z" style="fill:#440d40"/><path d="M89.25,351.07c1.55-.18,5.78-4.33,8.89-4.7s8.64-.1,12.41-1.46,12.77-5.15,18.41-4,11.75-.46,17.08-2,10.65-3.08,14.53-3.54,24.48.78,24.48.78-21.17.66-25.61,3S149.78,344,145,343.6s-8.53,1-14.74,1.74S115,349,111.08,349.42s-11.74.47-11.74.47Z" style="fill:#440d40"/><path d="M64,374s2.95-1.95,8.91-1.1a39.29,39.29,0,0,1,11.94,4.26H70.35Z" style="fill:#55174e"/><path d="M80.15,176.38s23.65,13.54,57.59,8.75,53.1-13.86,66.68-24.87S202,149.52,197.66,153s-44.48,18.5-62.85,17.93-45.78-3-55.16-5.85S69.31,171.39,80.15,176.38Z" style="fill:#440d40"/><path d="M90.17,116.79a69.34,69.34,0,0,1,41.69-19.87c26-2.54,41.68,1.9,53.44,9.27s-.2,10.39-4,8.11-35.93-7.94-49.55-3.66-33.73,12.17-40.31,16.7S82.81,123.61,90.17,116.79Z" style="fill:#440d40"/><path d="M55.94,309.58C51.81,312,18.56,319.35.17,318.2v13c29.67-.33,47.6-6,61-14C75.16,308.88,60.42,307,55.94,309.58Z" style="fill:#440d40"/><path d="M1,261.86c13.11-2.13,41.93,7.37,45.1,10s14.58,1.4,4.74-6.94S27.16,250.38,2.87,249.25c-.91-.05-1.81-.06-2.7-.06V262Z" style="fill:#440d40"/><path d="M169,253.67s14.16,10.92,36.31,10,35.12-5.77,44.66-12.35-.73-7.52-3.8-5.46-29.93,9.54-41.68,7.87-29.16-5.27-35-7.87S162.37,249.5,169,253.67Z" style="fill:#440d40"/><path d="M179.84,213.6s11.34-10.77,28.24-10.69,26.61,4.23,33.61,10.09-.9,7.1-3.16,5.27-22.46-8-31.53-6-22.55,6-27.12,8.61S174.61,217.75,179.84,213.6Z" style="fill:#440d40"/><path d="M133,53.25s30,12.6,59.68,6.9,45.1-13.33,55.05-26.06-4.46-12.35-7.69-8.36S207,42.82,190.22,44.56c-21.23,2.2-45.38-1.08-54.49-4.28S127.63,48.77,133,53.25Z" style="fill:#440d40"/><path d="M179.44,18.23s38.29-3.78,44.44-2.41a115.28,115.28,0,0,1,13.72,4.33l-14.08,4.64s-28.47,1.55-37.36,2.44-39.51,8.23-39.51,8.23A68.1,68.1,0,0,0,137,32.23C143.51,28.71,153.84,21.9,179.44,18.23Z" style="fill:#440d40"/><path d="M939.57,46.39S968.28,67.75,1002,69.52s52.54-2.32,67-13.28-1.27-14.36-5.9-11-40.65,9.5-59.22,6.94c-23.56-3.26-48.69-13.14-57.6-19S935.05,40.19,939.57,46.39Z" style="fill:#440d40"/><path d="M999.14,16s43.76,6.93,50.45,9a41.67,41.67,0,0,1,14.27,7.47l-10.27,5.23s-39.93-8.9-49.78-10.3-45-1.65-45-1.65a74.66,74.66,0,0,0-9.51-6C957.34,17.74,970.45,13.2,999.14,16Z" style="fill:#440d40"/><polygon points="1000.37 368.93 1081.09 334.69 1069.82 323.67 989.65 357.69 1000.37 368.93" style="fill:#876484"/><polygon points="49.69 17.34 58.18 73.23 71.76 71.24 63.15 14.58 49.69 17.34" style="fill:#876484"/><path d="M43.35,75.43s11.26-7.22,21.37-3.18a54.18,54.18,0,0,1,10.69-4l9.24,1.44H93.6L83.21,74.27h-9L62.7,76.58l-8.38-1.15Z" style="fill:#440d40"/><polygon points="1002.37 404.64 1011.21 406.05 1008.03 411.71 1002.37 404.64" style="fill:#876484"/><path d="M16.32,409.84s14.06-5.81,19.87-5.33,24.23,5.33,24.23,5.33H84.84l-27,6.31s-11.92-2.91-19.67-3.4S16.32,409.84,16.32,409.84Z" style="fill:#440d40"/><ellipse cx="783.47" cy="367.12" rx="14.12" ry="24.87" transform="translate(361.5 1122.46) rotate(-85.92)" style="fill:#440d40"/><ellipse cx="838.02" cy="403.31" rx="15.87" ry="9.01" transform="translate(-28.36 65.19) rotate(-4.38)" style="fill:#440d40"/><ellipse cx="659.28" cy="277.16" rx="9.01" ry="15.87" transform="translate(318.07 905.68) rotate(-84.3)" style="fill:#440d40"/><ellipse cx="491.89" cy="366.62" rx="7.12" ry="12.53" transform="translate(-50.39 653.49) rotate(-64.58)" style="fill:#440d40"/><path d="M539.9,346.59s29.23,26.28,76.81,25.38,75.91-11.55,97-26.38-.79-17.6-7.58-13S641,353.26,616,348.71s-62-13.9-74.17-20.27S526.21,336.49,539.9,346.59Z" style="fill:#440d40"/><path d="M567.38,253.64s25.44-24.51,61.67-23.39,56.62,11.31,71,25.38-2.68,16.52-7.32,12.14-47.35-19.79-67-15.67-49,12.69-59,18.61S555.73,263.05,567.38,253.64Z" style="fill:#440d40"/><path d="M534.5,356.8c12.46,8.57,31.94,18.7,45.19,21.82s41.3,5.45,50.65,3.12,33.5-3.12,33.5-3.12-21.82,10.13-33.5,10.91-49.09,3.12-60-.78-46.75-27.27-49.09-31.17-11.69-17.14-10.13-17.14S534.5,356.8,534.5,356.8Z" style="fill:#440d40"/><path d="M644.19,397.57c15-2,36.26-7.46,48.19-14S726.74,360,732.13,352,755,327.3,755,327.3s-9.45,22.12-17.62,30.52S702.92,393,692.21,397.36s-53,11-57.34,9.65-20.16-4.93-19-6S644.19,397.57,644.19,397.57Z" style="fill:#440d40"/><path d="M951.25,380.78s-6.5,3.5-7.25,4-2.83,2.48-2.83,4.23,3.85,3.64,6.73,4.48,17.6,6.54,21.1,8.79a29.86,29.86,0,0,0,8,3.32s5.8.68,8.8,2.43,3.16-2.57,3.16-2.57l-8.41-4.68s7.5,1.5,9,1.5-2.5-4-2.5-4l2.5-3.75-2.5-2.75Z" style="fill:#440d40"/><polygon points="953.78 376.54 944.03 387.67 986.11 404.64 981.16 398.98 992.12 399.69 985.4 394.39 990.13 391.19 953.78 376.54" style="fill:#876484"/><path d="M1005.92,387.3,1002.6,389l1.3,2.31,6.92-.87,1.87.29-.86,4.9,4.75,1.58-3.89.29-2.16,2.6s9.51.72,14.84-.44c6.34.58,18.3-1.15,20.61-2a72.07,72.07,0,0,1,9.8.43s4-1,3.31-3.46-4.76-9.51-4.76-9.51L1049,383Z" style="fill:#440d40"/><polygon points="1002.37 386.61 1006.78 386.08 1049.75 380.95 1055.76 394.74 1010.15 398.27 1016.87 395.09 1011.56 393.32 1013.33 388.73 1006.26 390.14 1002.37 386.61" style="fill:#876484"/><path d="M921.67,42.54s12.55,14.12,23,18.82,28.77,11,37.66,13.08,13.6,3.14,26.68,2.62,9.41,6.27,1.56,5.23-28.76,1.57-36.61-.53S953.57,76,941,69.21s-19.35-16.74-23-22.49S915.39,40.44,921.67,42.54Z" style="fill:#440d40"/><path d="M970.53,186s-8.25-13.07-3.43-22.69,58.56-19.9,81.83-16.51c33,4.81,68.09,11,76.34,22.7s6.88,29.57-1.38,33.69-35.76,8.26-35.76,8.26,28.2-10.32,30.95-13.76,3.44-20.63-2.06-23.38-48.81-12.13-70.84-13.07c-32.32-1.37-59.14,1.38-66.71,7.57S970.53,186,970.53,186Z" style="fill:#440d40"/><path d="M281.8,402.48s-11.86-22.4-8.88-40.38,58.47-43.8,84.29-40.86c36.61,4.16,75.76,10.53,87.3,30.45s14.15,52.29,6.21,60.84-36.6,19.73-36.6,19.73,28-22.41,30.16-29-1-37.6-7.55-41.8-55.27-15.19-79.19-13.87c-35.09,1.93-63.31,10.53-70,22.7S281.8,402.48,281.8,402.48Z" style="fill:#440d40"/><path d="M955.44,144.52s4.66-8.65,2.4-15.25-30.07-14.65-42.33-12.84c-17.38,2.57-35.88,6-40.5,13.75S870.62,150,874.83,153s18.47,6.31,18.47,6.31-14.46-7.55-15.81-9.93-1.25-14,1.7-15.74,25.83-7.18,37.37-7.36c16.93-.26,30.88,2.15,34.67,6.49S955.44,144.52,955.44,144.52Z" style="fill:#440d40"/><path d="M291.85,379.42c9.3-4,38.53-16.83,47.38-18.16s32.78-2.21,50.93,0c-8.41-3.54-39-8.41-55.35-4.87S300.71,367.46,291.85,379.42Z" style="fill:#440d40"/></g></g></svg>