<svg xmlns="http://www.w3.org/2000/svg" viewBox="0 0 389.01 389.01"><title>blast</title><g id="Layer_2" data-name="Layer 2"><g id="Layer_1-2" data-name="Layer 1"><circle cx="194.5" cy="194.5" r="194.5" style="fill:none"/><polygon points="192.59 188.15 273.68 181.73 271.23 184.23 272.74 168.59 272.94 166.49 274.95 166.4 329.56 164.02 329.99 164 330.3 164.22 336.82 168.84 336.03 168.69 380.68 158.92 336.5 170.64 336.1 170.74 335.7 170.49 328.99 166.16 329.72 166.36 275.26 171.13 277.46 168.95 276.64 184.63 276.52 186.87 274.19 187.13 193.34 196.12 192.59 188.15"/><polygon points="246.94 186.28 258.13 208.86 255.7 207.56 294.61 204.53 295.59 204.46 296.04 205.25 303.35 218.18 302.5 217.63 348.12 223.53 302.27 219.88 301.73 219.84 301.41 219.34 293.48 206.79 294.91 207.51 256.2 212.44 254.61 212.65 253.78 211.14 241.62 189.06 246.94 186.28"/><polygon points="196.14 189.45 248.91 241.23 250.79 243.08 249.28 245.11 240 257.65 239.77 254.32 268.87 286.81 267.98 286.31 283.16 289.83 283.68 289.95 283.96 290.33 297.42 308.94 296.74 308.61 314.76 309 314.98 309 315.11 309.16 328.62 325.38 314.41 309.76 314.76 309.92 296.74 310.31 296.34 310.32 296.06 309.98 281.8 291.97 282.61 292.48 267.29 289.63 266.8 289.53 266.4 289.12 235.91 257.93 234.44 256.43 235.68 254.6 244.41 241.67 244.79 245.55 190.61 195.24 196.14 189.45"/><polygon points="196.55 192.98 198.58 251.39 198.73 255.57 194.73 254.81 175.97 251.27 179.35 248.41 178.69 279.27 177.89 277.55 193.81 291.49 194.47 292.07 194.46 292.87 192.66 377.08 190.87 292.87 191.51 294.24 175 280.99 174.23 280.36 174.2 279.27 173.54 248.41 173.47 245.05 176.92 245.55 195.82 248.28 191.97 251.7 188.56 193.35 196.55 192.98"/><polygon points="190.45 190.27 249.66 118.27 249.33 120.59 243.91 106.33 243.53 105.32 244.09 104.51 262.51 77.73 262.36 78.71 257.1 57.65 257.02 57.31 257.21 57.06 273.62 36.06 258.32 57.88 258.43 57.29 264.68 78.07 264.82 78.56 264.52 79.05 247.38 106.67 247.56 104.85 253.65 118.83 254.17 120.04 253.31 121.16 196.72 195.24 190.45 190.27"/><polygon points="222.77 152.36 239.93 156.44 236.38 157.56 268.37 124.97 267.76 126.54 268.23 110.85 268.29 108.58 270.41 109.04 292.77 113.89 291.96 114.04 326.04 94.64 293.17 116.03 292.82 116.25 292.35 116.18 269.73 112.67 271.92 110.85 272.38 126.54 272.41 127.37 271.77 128.11 241.87 162.62 240.51 164.18 238.31 163.73 221.03 160.17 222.77 152.36"/><polygon points="284.89 165.85 288.78 145.04 289.07 143.47 290.48 143.19 317.38 137.88 316.48 138.71 321.71 124.24 321.81 123.98 322 123.86 338.59 113.99 322.75 125.03 323.04 124.66 318.86 139.48 318.68 140.11 317.95 140.31 291.51 147.55 293.21 145.7 290.82 166.74 284.89 165.85"/><polygon points="189.17 192.7 187.55 110.95 188.21 112.55 176.01 98.62 175.46 97.98 175.48 97.25 176.62 54.36 176.64 53.68 177.26 53.52 190.43 50.2 190.06 50.66 192.14 31.35 191.08 50.74 191.06 51.09 190.71 51.2 177.73 55.2 178.37 54.36 179.5 97.25 178.97 95.89 191.88 109.15 192.49 109.78 192.55 110.75 197.17 192.4 189.17 192.7"/><polygon points="189.03 192.24 203.55 123 203.91 121.27 205.55 121.19 223.91 120.25 222.52 121.4 239.51 67.47 225.57 122.27 225.31 123.28 224.18 123.42 205.93 125.62 207.93 123.81 196.9 193.68 189.03 192.24"/><polygon points="188.62 146.44 175.17 138.86 174.01 138.21 173.8 137.01 169.55 113.38 170.52 114.82 160.19 107.81 159.27 107.19 159.29 106.14 160.05 66.92 161.16 68.14 150.72 66.89 149.81 66.78 149.79 65.9 149.34 35.55 149.33 35.33 149.49 35.2 157.46 28.55 157.38 28.76 156.05 16.7 157.85 28.7 157.87 28.82 157.77 28.91 150.06 35.86 150.21 35.52 151.84 65.83 150.92 64.85 161.4 65.69 162.49 65.78 162.51 66.92 163.27 106.14 162.37 104.47 172.96 111.07 173.72 111.54 173.93 112.5 179.09 135.95 177.73 134.1 191.47 141.16 188.62 146.44"/><polygon points="189.13 193.8 167.05 155.13 168.82 156.43 154.03 151.96 152.87 151.61 152.63 150.63 142.45 109.81 156.33 149.53 154.93 148.2 170.14 150.89 171.21 151.08 171.92 152.19 195.97 189.65 189.13 193.8"/><polygon points="190.68 195.88 147.69 172.38 151.46 171.93 137.59 183.65 136.79 184.32 135.88 184.38 76.15 187.73 74.42 187.83 74.46 186.17 74.82 169.95 75.96 171.15 23.2 167.34 76.08 168.76 77.2 168.79 77.22 169.95 77.59 186.17 75.9 184.61 135.42 178.55 133.71 179.27 147.04 166.93 148.69 165.4 150.81 166.48 194.42 188.81 190.68 195.88"/><polygon points="141.46 179.06 115.01 171.4 112.79 170.75 112.68 168.64 111.72 149.76 113.51 151.95 72.58 138.58 73.51 138.42 62.81 145.41 62.59 145.55 62.37 145.53 41.5 143.28 62.48 144.17 62.03 144.29 72.26 136.63 72.65 136.33 73.19 136.47 114.9 147.16 116.48 147.57 116.69 149.35 118.87 168.13 116.54 165.38 143.44 171.31 141.46 179.06"/><polygon points="150.83 142.64 135 143.36 134.11 143.4 133.53 143.02 88.05 112.94 136.08 138.76 134.61 138.42 150.36 136.66 150.83 142.64"/><polygon points="116.15 130.68 114.25 112.62 114.75 113.57 71.32 72.67 116.8 111.27 117.21 111.62 117.3 112.22 120.11 130.16 116.15 130.68"/><polygon points="193.21 196.73 130.76 202.79 133.45 200.08 130.86 220.43 130.67 221.92 129.41 222.48 73.87 246.78 74.5 245.85 73.72 256.3 73.68 256.8 73.26 257 42.03 271.95 72.51 255.51 72.05 256.21 72.32 245.74 72.34 245.11 72.95 244.81 127.25 217.86 125.79 219.91 127.39 199.46 127.58 197.06 130.08 196.74 192.31 188.78 193.21 196.73"/><polygon points="104.39 232.4 92.51 225.84 93.75 225.97 60.57 234.61 60.2 234.71 59.9 234.53 49.06 227.99 49.43 228.06 24.77 231.15 49.26 226.91 49.45 226.88 49.64 226.98 60.77 233 60.09 232.92 92.82 222.73 93.42 222.54 94.06 222.86 106.24 228.85 104.39 232.4"/><polygon points="113.5 183.51 115.56 193.17 116.08 195.62 113.71 195.99 48.94 206.13 48.74 206.17 48.58 206.09 37.72 201.09 37.92 201.11 26.86 203.95 37.76 200.52 37.85 200.49 37.96 200.53 49.07 204.95 48.71 204.91 112.87 191.4 111.02 194.22 108.63 184.64 113.5 183.51"/><polygon points="196.87 194.62 157.29 250.16 157.74 247.46 161.52 261.52 161.94 263.12 160.95 264.22 139.14 288.5 139.19 286.53 151.52 303.46 152.05 304.19 151.64 304.93 122.67 357 149.19 303.64 149.31 305.11 136.63 288.44 135.91 287.49 136.68 286.47 156.38 260.45 155.82 263.15 151.59 249.21 151.17 247.81 152.04 246.51 190.3 190.06 196.87 194.62"/><polygon points="165.05 234.65 150.43 232.38 152.84 231.51 130.79 254.45 130.17 255.09 129.39 255.1 115.84 255.26 117.01 254.69 98.22 275.73 98.45 275.08 98.06 292.35 98.06 292.63 97.86 292.79 74.21 312.89 97.07 291.9 96.87 292.35 96.48 275.08 96.47 274.74 96.72 274.44 114.54 252.59 114.96 252.07 115.71 252.02 129.23 251.09 127.83 251.74 148.77 227.78 149.69 226.74 151.18 226.92 165.87 228.7 165.05 234.65"/><polygon points="193.56 313.39 207.07 316.5 208.16 316.75 208.27 317.75 213.06 359.82 205.29 318.2 206.5 319.45 192.81 317.32 193.56 313.39"/><polygon points="197.38 191.51 219.01 261.09 219.49 262.62 218.56 263.78 210.46 274.05 210.79 271.47 219.63 294.72 218.43 293.59 239.17 301.44 239.82 301.68 240.04 302.27 260.13 356.68 237.34 303.34 238.21 304.18 217.1 297.38 216.29 297.12 215.91 296.24 205.92 273.47 205.35 272.16 206.25 270.89 213.83 260.24 213.39 262.93 189.78 194 197.38 191.51"/><polygon points="196.81 185.7 258.36 164.56 198.62 190.36 196.81 185.7"/></g></g></svg>