<svg xmlns="http://www.w3.org/2000/svg" viewBox="0 0 802.05 183.65"><title>board-shadow</title><g id="Layer_2" data-name="Layer 2"><g id="Layer_1-2" data-name="Layer 1"><path d="M801.07,174.66c0,4.71-4.18,7.81-8.89,7.53-4.42-.27-10.47-.38-18-.79-5.28-.29-11.25-1.44-17.95-1.79-5.54-.28-11.64,1.28-18.09,1-5.66-.27-11.68-.38-18-.67-5.74-.26-11.68-2.12-17.94-2.38-5.78-.25-11.83.55-18,.3-5.83-.23-11.85.11-18-.12-5.85-.22-11.82-1.29-18-1.5-5.87-.21-11.89-.06-18-.27-5.89-.19-11.86-1.31-18-1.5-5.9-.18-11.9-.81-18-1-5.91-.16-11.94.47-18,.31-5.92-.15-11.91-1-18-1.15-5.93-.14-12,.54-18,.41s-12,.12-18,0-11.93-1.39-18-1.49-12,2-18,2-11.94-2.31-18-2.38-12,.41-18,.36-12,.86-18,.83-12,.07-18,0-12-.31-18-.31-12.3.58-18.41.6-12.32-2.44-18.43-2.4-12.29,2.79-18.4,2.85-12.3.33-18.41.4-12.33-1.13-18.43-1-12.33-.28-18.42-.17-12.32.23-18.41.36-12.3,1.8-18.37,1.94-12.39-1.52-18.46-1.36-12.3,2-18.36,2.21c-6.22.17-12.36.21-18.4.4-6.24.19-12.37.53-18.4.73-6.25.21-12.45-1.27-18.46-1-6.27.22-12.44-.46-18.43-.24-6.3.24-12.42,1.16-18.38,1.4-6.33.26-12.49,0-18.42.29-6.38.27-12.5,1-18.37,1.24-6.46.29-12.6.42-18.4.69-6.58.32-12.72.68-18.39,1-6.83.35-12.88,2.61-18.28,2.9-7.69.41-13.88.62-18.38.88-4.7.27-7.6-4.38-7.6-9.09,0-9.36-1.11-9.36-1.11-18.71s.42-9.36.42-18.71-1-9.36-1-18.71,1.47-9.36,1.47-18.71.17-9.36.17-18.71-.58-9.36-.58-18.72.48-9.35.48-18.71S0,34.21,0,24.85c0-4.26,4.05-8.09,8.3-8.45S18.53,15.6,26.1,15c5.2-.4,11.2-.28,17.85-.76,5.47-.4,11.39-1.28,17.78-1.72,5.6-.38,11.61.13,17.88-.27,5.68-.37,11.64-.39,17.84-.76,5.73-.34,11.56-2.68,17.72-3,5.76-.33,11.83,1.63,18,1.31,5.79-.31,11.61-3.22,17.7-3.52,5.82-.29,11.79-.09,17.86-.37,5.84-.27,11.84.76,17.9.5,5.85-.25,11.73-2.24,17.78-2.47,5.85-.23,11.88,1.57,17.92,1.36,5.86-.21,11.78-1.33,17.81-1.52C246,3.59,252,4.47,258,4.29s11.79-2,17.81-2.17,11.89,1.52,17.9,1.38S305.5,1.88,311.5,1.77s11.85-.65,17.85-.74,11.87.16,17.87.09S359.08.05,365.07,0,377,1.77,383,1.74s11.88.13,17.87.13,11.9.13,17.85.16,11.91,0,17.85.06,11.92,0,17.86.08,11.9.88,17.84,1,12-1.85,17.89-1.73S502,2.89,507.94,3s11.92.59,17.84.76,12-1,17.89-.85,11.92,1.3,17.81,1.5,11.94,1,17.83,1.27,12-.09,17.86.15c6,.25,12,1,17.81,1.29,6,.26,12.09-1.66,17.94-1.39,6.06.29,12,.89,17.82,1.19,6.08.3,12,2.23,17.75,2.54,6.11.32,12.07.24,17.86.56,6.13.34,12.12-.11,17.87.23,6.18.36,12,2.62,17.7,3,6.25.38,12.32-1.07,17.94-.71,6.37.41,12.32.81,17.81,1.18,6.63.45,12.59.91,17.81,1.28,7.53.54,13.46,1.94,17.73,2.26s6.93,3.36,6.93,7.65c0,9.35-.81,9.35-.81,18.71s.79,9.36.79,18.72,1.93,9.35,1.93,18.71-1.8,9.36-1.8,18.71-.81,9.36-.81,18.72.8,9.36.8,18.72,1.72,9.35,1.81,18.71S801.07,165.29,801.07,174.66Z"/></g></g></svg>