<svg xmlns="http://www.w3.org/2000/svg" viewBox="0 0 44.67 52.12"><title>bomb-straight</title><g id="Layer_2" data-name="Layer 2"><g id="Layer_1-2" data-name="Layer 1"><circle cx="22.33" cy="29.79" r="22.33"/><path d="M29.33,3.83l.55,5.95c.18,1.89-1.51,3.53-3.72,3.62l-6,.23c-2.23.09-4.64-.72-4.6-2.64l.67-6.86A3.67,3.67,0,0,1,19.44.28a20.09,20.09,0,0,1,6.83,0A3.58,3.58,0,0,1,29.33,3.83Z"/><path d="M20.83,4.59a14.75,14.75,0,0,1-3.1-1.09c-.17,1.45-.19,4.94-.17,5.62a4.91,4.91,0,0,0,3.1,2.44C20.68,10.16,20.83,4.59,20.83,4.59Z" style="fill:#fff;opacity:0.3"/></g></g></svg>