<svg xmlns="http://www.w3.org/2000/svg" xmlns:xlink="http://www.w3.org/1999/xlink" viewBox="0 0 125.09 75.3"><defs><clipPath id="clip-path"><circle cx="37.67" cy="37.65" r="30.05" style="fill:none"/></clipPath><linearGradient id="linear-gradient" x1="21.91" y1="781.15" x2="39.84" y2="791.62" gradientTransform="matrix(1, 0, 0, -1, -7, 811.64)" gradientUnits="userSpaceOnUse"><stop offset="0" stop-color="#a52714" stop-opacity="0.6"/><stop offset="0.66" stop-color="#a52714" stop-opacity="0"/></linearGradient><linearGradient id="linear-gradient-2" x1="49.75" y1="750.6" x2="29.83" y2="762.26" gradientTransform="matrix(1, 0, 0, -1, -7, 811.64)" gradientUnits="userSpaceOnUse"><stop offset="0" stop-color="#055524" stop-opacity="0.4"/><stop offset="0.33" stop-color="#055524" stop-opacity="0"/></linearGradient><clipPath id="clip-path-6"><polygon points="7.63 67.7 36.23 67.7 49.51 54.42 49.51 44.48 25.85 44.48 7.63 13.23 7.63 67.7" style="fill:none"/></clipPath><linearGradient id="linear-gradient-3" x1="53.5" y1="789.76" x2="58.52" y2="767.8" gradientTransform="matrix(1, 0, 0, -1, -7, 811.64)" gradientUnits="userSpaceOnUse"><stop offset="0" stop-color="#ea6100" stop-opacity="0.3"/><stop offset="0.66" stop-color="#ea6100" stop-opacity="0"/></linearGradient><clipPath id="clip-path-9"><polygon points="37.67 23.99 49.51 44.48 36.23 67.7 67.72 67.7 67.72 23.99 37.67 23.99" style="fill:none"/></clipPath><radialGradient id="radial-gradient" cx="619.37" cy="787.66" r="28.71" gradientTransform="matrix(1, 0, 0, -1, -583, 811.64)" gradientUnits="userSpaceOnUse"><stop offset="0" stop-color="#3e2723" stop-opacity="0.2"/><stop offset="1" stop-color="#3e2723" stop-opacity="0"/></radialGradient><clipPath id="clip-path-12"><polygon points="12.39 7.6 12.39 21.38 25.85 44.48 37.67 23.99 67.72 23.99 67.72 7.6 12.39 7.6" style="fill:none"/></clipPath><radialGradient id="radial-gradient-2" cx="595.36" cy="790.2" r="26.65" xlink:href="#radial-gradient"/><radialGradient id="radial-gradient-3" cx="620.62" cy="773.94" r="30.01" gradientTransform="matrix(1, 0, 0, -1, -583, 811.64)" gradientUnits="userSpaceOnUse"><stop offset="0" stop-color="#263238" stop-opacity="0.2"/><stop offset="1" stop-color="#263238" stop-opacity="0"/></radialGradient><radialGradient id="radial-gradient-4" cx="23.6" cy="795.84" r="60.36" gradientTransform="matrix(1, 0, 0, -1, -7, 811.64)" gradientUnits="userSpaceOnUse"><stop offset="0" stop-color="#fff" stop-opacity="0.1"/><stop offset="1" stop-color="#fff" stop-opacity="0"/></radialGradient></defs><title>chrome-ok</title><g id="Layer_2" data-name="Layer 2"><g id="Layer_1-2" data-name="Layer 1"><rect width="125.09" height="75.3" rx="37.65" ry="37.65" style="fill:#fff;opacity:0.15"/><g style="clip-path:url(#clip-path)"><path d="M12.4,7.6V44.48H25.85L37.67,24H67.72V7.6Z" style="fill:#db4437"/><path d="M12.4,7.6V44.48H25.85L37.67,24H67.72V7.6Z" style="fill:url(#linear-gradient)"/></g><g style="clip-path:url(#clip-path)"><path d="M26.17,44.36,12.57,21l-.2.35,13.5,23.15Z" style="fill:#3e2723;fill-opacity:0.15000000596046448"/></g><g style="clip-path:url(#clip-path)"><path d="M7.63,67.7h28.6L49.51,54.42V44.48H25.85L7.63,13.23Z" style="fill:#0f9d58"/><path d="M7.63,67.7h28.6L49.51,54.42V44.48H25.85L7.63,13.23Z" style="fill:url(#linear-gradient-2)"/></g><g style="clip-path:url(#clip-path)"><path d="M49.23,44.93,49,44.77,35.84,67.7h.39l13-22.76Z" style="fill:#263238;fill-opacity:0.15000000596046448"/></g><g style="clip-path:url(#clip-path)"><g style="clip-path:url(#clip-path-6)"><path d="M37.67,24,49.51,44.48,36.23,67.7H67.72V24Z" style="fill:#ffcd40"/><path d="M37.67,24,49.51,44.48,36.23,67.7H67.72V24Z" style="fill:url(#linear-gradient-3)"/></g><g style="clip-path:url(#clip-path)"><path d="M37.67,24,49.51,44.48,36.23,67.7H67.72V24Z" style="fill:#ffcd40"/><path d="M37.67,24,49.51,44.48,36.23,67.7H67.72V24Z" style="fill:url(#linear-gradient-3)"/></g><g style="clip-path:url(#clip-path)"><g style="clip-path:url(#clip-path-9)"><path d="M12.4,7.6V44.48H25.85L37.67,24H67.72V7.6Z" style="fill:#db4437"/><path d="M12.4,7.6V44.48H25.85L37.67,24H67.72V7.6Z" style="fill:url(#linear-gradient)"/></g><g style="clip-path:url(#clip-path)"><path d="M37.67,24v7.16L64.45,24Z" style="fill:url(#radial-gradient)"/></g><g style="clip-path:url(#clip-path)"><g style="clip-path:url(#clip-path-12)"><path d="M7.63,67.7h28.6L49.51,54.42V44.48H25.85L7.63,13.23Z" style="fill:#0f9d58"/><path d="M7.63,67.7h28.6L49.51,54.42V44.48H25.85L7.63,13.23Z" style="fill:url(#linear-gradient-2)"/></g><g style="clip-path:url(#clip-path)"><path d="M12.4,21.41,31.94,41l-6.09,3.52Z" style="fill:url(#radial-gradient-2)"/></g><g style="clip-path:url(#clip-path)"><path d="M36.25,67.66,43.41,41l6.1,3.52Z" style="fill:url(#radial-gradient-3)"/></g><g style="clip-path:url(#clip-path)"><circle cx="37.67" cy="37.65" r="13.66" style="fill:#f1f1f1"/><circle cx="37.67" cy="37.65" r="10.93" style="fill:#4285f4"/></g><g style="clip-path:url(#clip-path)"><path d="M37.67,23.65A13.66,13.66,0,0,0,24,37.31v.34A13.66,13.66,0,0,1,37.67,24H67.72v-.34Z" style="fill:#3e2723;fill-opacity:0.20000000298023224"/><path d="M49.49,44.48a13.63,13.63,0,0,1-23.63,0h0L7.63,13.23v.34L25.85,44.82h0a13.63,13.63,0,0,0,23.63,0h0v-.34Z" style="fill:#fff;fill-opacity:0.10000000149011612"/><path d="M38,24h-.17a13.65,13.65,0,0,1,0,27.3H38A13.66,13.66,0,0,0,38,24Z" style="fill:#3e2723;opacity:0.10000000149011612;isolation:isolate"/><path d="M49.63,44.93a13.54,13.54,0,0,0,1.83-6.81A13.73,13.73,0,0,0,50.82,34a13.42,13.42,0,0,1,.51,3.66,13.58,13.58,0,0,1-1.83,6.82h0L36.23,67.7h.4L49.63,45Z" style="fill:#fff;fill-opacity:0.20000000298023224"/></g><g style="clip-path:url(#clip-path)"><path d="M37.67,7.94A30,30,0,0,1,67.72,37.82v-.17a30.05,30.05,0,0,0-60.1,0c0,.06,0,.11,0,.17a30,30,0,0,1,30-29.88Z" style="fill:#fff;fill-opacity:0.20000000298023224"/><path d="M37.67,67.36A30,30,0,0,0,67.72,37.48v.17a30.05,30.05,0,0,1-60.1,0c0-.06,0-.11,0-.17a30,30,0,0,0,30,29.88Z" style="fill:#3e2723;fill-opacity:0.15000000596046448"/></g><circle cx="37.67" cy="37.65" r="30.05" style="fill:url(#radial-gradient-4)"/></g></g></g><polygon points="82.26 36.27 79.43 39.1 89.34 49.71 107.03 29.9 104.2 27.07 89.34 43.34 82.26 36.27" style="fill:#1ea15f"/></g></g></svg>