<svg id="Layer_1" data-name="Layer 1" xmlns="http://www.w3.org/2000/svg" viewBox="0 0 98 49.04"><title>control-keyboard-left</title><g style="opacity:0.45"><path d="M74.88,40.4a.32.32,0,0,1-.1.12.23.23,0,0,1-.14,0,.32.32,0,0,1-.18-.06l-.24-.14a1.61,1.61,0,0,0-.32-.14,1.35,1.35,0,0,0-.43-.06,1.54,1.54,0,0,0-.39.05,1.06,1.06,0,0,0-.28.15.76.76,0,0,0-.17.23.94.94,0,0,0,0,.3.55.55,0,0,0,.11.34,1.19,1.19,0,0,0,.3.23,3.5,3.5,0,0,0,.43.17l.49.16.49.2a1.62,1.62,0,0,1,.43.29,1.19,1.19,0,0,1,.3.43,1.38,1.38,0,0,1,.12.61,2,2,0,0,1-.14.73,1.73,1.73,0,0,1-.39.6,1.84,1.84,0,0,1-.63.4,2.26,2.26,0,0,1-.85.14,2.5,2.5,0,0,1-.55,0,4.28,4.28,0,0,1-.51-.15,3.33,3.33,0,0,1-.46-.24,2.38,2.38,0,0,1-.38-.32l.31-.51a.36.36,0,0,1,.11-.1.28.28,0,0,1,.13,0,.35.35,0,0,1,.22.08l.27.18a1.68,1.68,0,0,0,.38.18,1.3,1.3,0,0,0,.51.08A1.07,1.07,0,0,0,74,44.1a.79.79,0,0,0,.25-.63.54.54,0,0,0-.11-.37.89.89,0,0,0-.3-.24,2.41,2.41,0,0,0-.43-.17l-.49-.15a3.3,3.3,0,0,1-.49-.19,1.37,1.37,0,0,1-.42-.29,1.34,1.34,0,0,1-.31-.45,1.84,1.84,0,0,1-.11-.67,1.46,1.46,0,0,1,.13-.61,1.6,1.6,0,0,1,.36-.54,2.1,2.1,0,0,1,.6-.37,2.2,2.2,0,0,1,.8-.14,2.91,2.91,0,0,1,1,.16,2.25,2.25,0,0,1,.73.45Z" style="fill:#88e6ff"/><path d="M77.18,43.09v2H76.11V39.35H78a3.28,3.28,0,0,1,1,.13,1.87,1.87,0,0,1,.7.38,1.43,1.43,0,0,1,.41.59,2,2,0,0,1,.13.74,1.92,1.92,0,0,1-.14.77,1.56,1.56,0,0,1-.42.6A1.82,1.82,0,0,1,79,43a2.9,2.9,0,0,1-1,.14Zm0-.84H78a1.64,1.64,0,0,0,.52-.07,1.07,1.07,0,0,0,.36-.21.87.87,0,0,0,.22-.34,1.5,1.5,0,0,0,.07-.44,1.42,1.42,0,0,0-.07-.42.8.8,0,0,0-.22-.32.91.91,0,0,0-.36-.2,1.64,1.64,0,0,0-.52-.07h-.81Z" style="fill:#88e6ff"/><path d="M82.28,45.13H81.2V39.35h1.08Z" style="fill:#88e6ff"/><path d="M84.27,39.35s.06,0,.08,0l.08,0,.08.09,3,3.87c0-.1,0-.19,0-.28s0-.17,0-.25V39.35h.95v5.78h-.55a.48.48,0,0,1-.22,0,.5.5,0,0,1-.16-.14l-3-3.86c0,.09,0,.17,0,.26a1.85,1.85,0,0,1,0,.23v3.55h-1V39.35h.69Z" style="fill:#88e6ff"/></g><g style="opacity:0.4"><path d="M18.71,43l.12.27c0-.09.07-.19.11-.28l.13-.27,1.71-3.2.07-.1.08-.05.09,0H22v5.78H21v-4c0-.09,0-.17,0-.26l-1.75,3.28a.45.45,0,0,1-.15.18.44.44,0,0,1-.23.06h-.14a.44.44,0,0,1-.23-.06.45.45,0,0,1-.15-.18L16.6,40.9l0,.26v4h-.95V39.35h.94l.09,0,.08.05a.36.36,0,0,1,.07.1l1.73,3.21A2.21,2.21,0,0,1,18.71,43Z" style="fill:#fff"/><path d="M28.67,42.24a3.29,3.29,0,0,1-.21,1.18,2.66,2.66,0,0,1-.6.93,2.58,2.58,0,0,1-.92.62,3.36,3.36,0,0,1-2.39,0,2.62,2.62,0,0,1-.93-.62,2.66,2.66,0,0,1-.6-.93,3.29,3.29,0,0,1-.21-1.18A3.22,3.22,0,0,1,23,41.06a2.8,2.8,0,0,1,.6-.94,2.76,2.76,0,0,1,.93-.62,3.27,3.27,0,0,1,1.19-.22,3.09,3.09,0,0,1,1.2.23,2.69,2.69,0,0,1,.92.61,2.8,2.8,0,0,1,.6.94A3.22,3.22,0,0,1,28.67,42.24Zm-1.1,0a2.59,2.59,0,0,0-.13-.86,1.75,1.75,0,0,0-.36-.64,1.64,1.64,0,0,0-.57-.4,2.16,2.16,0,0,0-1.53,0,1.59,1.59,0,0,0-.58.4,1.75,1.75,0,0,0-.36.64,2.59,2.59,0,0,0-.13.86,2.49,2.49,0,0,0,.13.85,1.67,1.67,0,0,0,.36.64,1.47,1.47,0,0,0,.58.4,2.16,2.16,0,0,0,1.53,0,1.51,1.51,0,0,0,.57-.4,1.67,1.67,0,0,0,.36-.64A2.49,2.49,0,0,0,27.57,42.24Z" style="fill:#fff"/><path d="M28.73,39.35h.87a.36.36,0,0,1,.22.06.49.49,0,0,1,.14.18l1.36,3.53.13.38c0,.13.08.28.11.43a4.65,4.65,0,0,1,.23-.81l1.36-3.53a.34.34,0,0,1,.13-.17.32.32,0,0,1,.22-.07h.87L32,45.13h-1Z" style="fill:#fff"/><path d="M38.62,39.35v.85H36.06v1.61h2v.82h-2v1.64h2.56v.86H35V39.35Z" style="fill:#fff"/></g><rect x="2.13" y="18.97" width="14.6" height="14.6" rx="1.33" ry="1.33" style="fill:#cecece;opacity:0.5"/><rect x="19.73" y="18.97" width="14.6" height="14.6" rx="1.33" ry="1.33" style="fill:#cecece;opacity:0.5"/><rect x="19.73" y="1.36" width="14.6" height="14.6" rx="1.33" ry="1.33" style="fill:#cecece;opacity:0.5"/><path d="M23,6h.88a.42.42,0,0,1,.23.07.3.3,0,0,1,.12.17l1,3.39q0,.12.06.27l.06.31a2.82,2.82,0,0,1,.07-.31,1.73,1.73,0,0,1,.08-.27l1.11-3.39A.38.38,0,0,1,26.92,6h.31a.38.38,0,0,1,.22.07.37.37,0,0,1,.13.17l1.1,3.39a3.63,3.63,0,0,1,.15.55l.06-.29c0-.1,0-.18.06-.26l1-3.39A.38.38,0,0,1,30,6.06.42.42,0,0,1,30.26,6h.82l-1.75,5.66h-.95L27.14,7.79s0-.11-.05-.16,0-.12-.05-.19a1.05,1.05,0,0,1-.05.19,1,1,0,0,1,0,.16L25.7,11.65h-.95Z"/><path d="M28.54,24.3a.34.34,0,0,1-.1.13.28.28,0,0,1-.13,0,.32.32,0,0,1-.18-.06l-.23-.13a1.8,1.8,0,0,0-.31-.14,1.33,1.33,0,0,0-.42-.06,1.35,1.35,0,0,0-.38.05,1.06,1.06,0,0,0-.28.15.72.72,0,0,0-.17.22.93.93,0,0,0-.05.29.5.5,0,0,0,.11.33.89.89,0,0,0,.3.23,2.81,2.81,0,0,0,.42.17l.47.16a3.43,3.43,0,0,1,.48.19,1.57,1.57,0,0,1,.42.29,1.24,1.24,0,0,1,.3.41,1.57,1.57,0,0,1,.11.6,1.88,1.88,0,0,1-.13.72,1.77,1.77,0,0,1-.38.58,1.72,1.72,0,0,1-.62.39,2.16,2.16,0,0,1-.83.15,2.48,2.48,0,0,1-.54-.06,2.21,2.21,0,0,1-.5-.15,2.38,2.38,0,0,1-.45-.23,2.25,2.25,0,0,1-.37-.31l.3-.5a.31.31,0,0,1,.11-.09.2.2,0,0,1,.13,0,.37.37,0,0,1,.21.08l.27.18a2,2,0,0,0,.36.17,1.3,1.3,0,0,0,.51.08,1,1,0,0,0,.69-.21.74.74,0,0,0,.25-.61A.57.57,0,0,0,27.8,27a.8.8,0,0,0-.3-.24,1.6,1.6,0,0,0-.42-.16l-.47-.15a3.19,3.19,0,0,1-.48-.19,1.3,1.3,0,0,1-.71-.72,1.6,1.6,0,0,1-.12-.65,1.63,1.63,0,0,1,.13-.61,1.52,1.52,0,0,1,.36-.52,1.78,1.78,0,0,1,.58-.36,2.13,2.13,0,0,1,.78-.14,2.75,2.75,0,0,1,.93.16,2,2,0,0,1,.72.44Z"/><rect x="63.97" y="18.97" width="14.6" height="14.6" rx="1.33" ry="1.33" style="fill:#88e6ff;opacity:0.6000000000000001"/><path d="M73.11,27.74a.2.2,0,0,1,.15.06l.42.45a2.28,2.28,0,0,1-.85.66,3,3,0,0,1-1.21.22,2.88,2.88,0,0,1-1.13-.21,2.38,2.38,0,0,1-.86-.6,2.57,2.57,0,0,1-.55-.92,3.57,3.57,0,0,1-.19-1.16,2.92,2.92,0,0,1,.22-1.16,2.6,2.6,0,0,1,.59-.92,2.74,2.74,0,0,1,.92-.59,3,3,0,0,1,1.18-.22,2.58,2.58,0,0,1,1.91.74l-.36.49a.2.2,0,0,1-.08.08.23.23,0,0,1-.13,0,.27.27,0,0,1-.18-.07l-.24-.15a2.81,2.81,0,0,0-.37-.15,1.78,1.78,0,0,0-.56-.07,1.73,1.73,0,0,0-.73.14,1.56,1.56,0,0,0-.58.39,2,2,0,0,0-.37.63,2.45,2.45,0,0,0-.14.83,2.48,2.48,0,0,0,.14.85,1.93,1.93,0,0,0,.36.63,1.59,1.59,0,0,0,.54.39,1.72,1.72,0,0,0,.68.13,2.42,2.42,0,0,0,.39,0l.32-.07a1.47,1.47,0,0,0,.28-.14l.26-.19a.16.16,0,0,1,.08-.06A.15.15,0,0,1,73.11,27.74Z"/><rect x="81.58" y="18.97" width="14.6" height="14.6" rx="1.33" ry="1.33" style="fill:#88e6ff;opacity:0.6000000000000001"/><path d="M86.12,23.41H87a.38.38,0,0,1,.22.07.43.43,0,0,1,.13.17l1.33,3.45c0,.12.09.24.13.37s.08.28.11.43a4.79,4.79,0,0,1,.23-.8l1.32-3.45a.48.48,0,0,1,.13-.16.33.33,0,0,1,.22-.08h.85l-2.29,5.66H88.4Z"/><path d="M12.19,28.93h-.81a.31.31,0,0,1-.22-.07.37.37,0,0,1-.13-.17l-.42-1.15H8.26l-.42,1.15a.38.38,0,0,1-.12.17.35.35,0,0,1-.23.07H6.67L8.9,23.28H10ZM8.53,26.8h1.81l-.69-1.89-.11-.29-.11-.37c0,.13-.07.26-.1.37a2.45,2.45,0,0,1-.11.3Z"/><rect x="37.34" y="18.97" width="14.6" height="14.6" rx="1.33" ry="1.33" style="fill:#cecece;opacity:0.5"/><path d="M47.6,26.1a3.27,3.27,0,0,1-.2,1.15,2.71,2.71,0,0,1-.59.89,2.66,2.66,0,0,1-.9.59,3.34,3.34,0,0,1-1.17.2H42.58V23.28h2.16a3.13,3.13,0,0,1,1.17.21,2.49,2.49,0,0,1,.9.58,2.61,2.61,0,0,1,.59.89A3.25,3.25,0,0,1,47.6,26.1Zm-1.07,0a2.41,2.41,0,0,0-.13-.83,1.75,1.75,0,0,0-.35-.63,1.61,1.61,0,0,0-.57-.39,1.91,1.91,0,0,0-.74-.14h-1.1v4h1.1a1.91,1.91,0,0,0,.74-.14,1.61,1.61,0,0,0,.57-.39,1.84,1.84,0,0,0,.35-.63A2.47,2.47,0,0,0,46.53,26.1Z"/><g style="opacity:0.4"><path d="M71.55,15.85A3.85,3.85,0,0,1,67.7,12h1a2.85,2.85,0,1,0,2.85-2.85v-1a3.85,3.85,0,0,1,0,7.69Z" style="fill:#88e6ff"/><path d="M71.55,6.86v3.82S68.89,8.78,69,8.77,71.55,6.86,71.55,6.86Z" style="fill:#88e6ff"/><path d="M88.65,15.85a3.85,3.85,0,0,1,0-7.69v1A2.85,2.85,0,1,0,91.49,12h1A3.84,3.84,0,0,1,88.65,15.85Z" style="fill:#88e6ff"/><path d="M88.65,6.86v3.82s2.66-1.9,2.56-1.91S88.65,6.86,88.65,6.86Z" style="fill:#88e6ff"/></g></svg>