<svg xmlns="http://www.w3.org/2000/svg" viewBox="0 0 136.88 125.66"><title>control-gamepad</title><g id="Layer_2" data-name="Layer 2"><g id="Layer_1-2" data-name="Layer 1"><g style="opacity:0.2"><g id="gamepad"><path id="Shape" d="M60.69,87.33h15.5a15.94,15.94,0,0,1,1.54-5.53H58.92A12.46,12.46,0,0,1,60.69,87.33Zm-2.21,1.11A12.17,12.17,0,1,1,46.31,76.26,12.28,12.28,0,0,1,58.48,88.44Zm-3.32,0a8.85,8.85,0,1,0-8.85,8.85A8.88,8.88,0,0,0,55.16,88.44ZM51.84,64.09a24.39,24.39,0,0,1-2.21,10.4,14,14,0,0,1,8,5.09H79.28a14.72,14.72,0,0,1,8-5.09A24.39,24.39,0,0,1,85,64.09a25.12,25.12,0,0,1,11.28-21H40.56A25.12,25.12,0,0,1,51.84,64.09Zm-48.68,0a23.24,23.24,0,0,1,46.47,0,20.07,20.07,0,0,1-2.28,10c-8.62,0-14.12,5.76-15,12.62a24.26,24.26,0,0,1-5.76.66A23.28,23.28,0,0,1,3.16,64.09ZM26.39,89.54A25.35,25.35,0,0,1,2.71,73.39L.06,107.91a14.29,14.29,0,0,0,11.51,15.27,14.26,14.26,0,0,0,16.37-8.85L35,97.07a16.22,16.22,0,0,1-3.09-8.41A16.25,16.25,0,0,1,26.39,89.54Zm84.1-48.68a23.24,23.24,0,0,1,0,46.47,25.65,25.65,0,0,1-5.76-.66c-.81-6.53-6-12.62-15.06-12.62a23.58,23.58,0,0,1-2.2-10A22.91,22.91,0,0,1,110.49,40.86ZM114.91,73a4.43,4.43,0,1,0-4.42,4.42A4.44,4.44,0,0,0,114.91,73Zm0-8.86a4.43,4.43,0,1,0,4.43-4.42A4.44,4.44,0,0,0,114.91,64.09Zm-8.85-8.85a4.43,4.43,0,1,0,4.43-4.42A4.44,4.44,0,0,0,106.06,55.24Zm-8.85,8.85a4.43,4.43,0,1,0,4.42-4.42A4.44,4.44,0,0,0,97.21,64.09Zm5.53,24.35A12.17,12.17,0,1,1,90.57,76.26,12.28,12.28,0,0,1,102.74,88.44Zm-3.32,0a8.85,8.85,0,1,0-8.85,8.85A8.88,8.88,0,0,0,99.42,88.44Zm37.4,19.47-2.65-34.52a25.35,25.35,0,0,1-23.68,16.15,23.83,23.83,0,0,1-5.54-.66,14,14,0,0,1-3.09,8.41l7.08,17.26a14.5,14.5,0,0,0,16.37,8.85A14.66,14.66,0,0,0,136.82,107.91Z" style="fill:#fff"/></g><path d="M15.2,41.43s10.78-6,22.18.09V34.84H15.2S15.29,41.53,15.2,41.43Z" style="fill:#fff"/><path d="M99.57,41.43s10.78-6,22.18.09V34.84H99.57S99.66,41.53,99.57,41.43Z" style="fill:#fff"/></g><circle cx="46.31" cy="88.44" r="8.85" style="fill:#cecece"/><circle cx="90.53" cy="88.44" r="8.85" style="fill:#88e6ff"/><path d="M19.76,29.1H32.49a2.28,2.28,0,0,1,2.28,2.28v2.08a0,0,0,0,1,0,0H17.47a0,0,0,0,1,0,0V31.39A2.28,2.28,0,0,1,19.76,29.1Z" style="fill:#88e6ff"/><path d="M104.13,29.1h12.73a2.28,2.28,0,0,1,2.28,2.28v2.08a0,0,0,0,1,0,0h-17.3a0,0,0,0,1,0,0V31.39A2.28,2.28,0,0,1,104.13,29.1Z" style="fill:#88e6ff"/><text transform="translate(53.81 11.2)" style="opacity:0.5;font-size:13px;fill:#88e6ff;font-family:Lato-Bold, Lato;font-weight:700">SPIN</text><path d="M21.69,52.39V56a2.1,2.1,0,0,0,.62,1.5l2.3,2.3a2.13,2.13,0,0,0,3,0l2.3-2.3a2.1,2.1,0,0,0,.62-1.5V52.39a2.12,2.12,0,0,0-2.12-2.13h-4.6A2.13,2.13,0,0,0,21.69,52.39Z" style="fill:#cecece"/><path d="M30.54,74.69V71.06a2.12,2.12,0,0,0-.62-1.5l-2.3-2.3a2.13,2.13,0,0,0-3,0l-2.3,2.3a2.12,2.12,0,0,0-.62,1.5v3.63a2.13,2.13,0,0,0,2.13,2.13h4.6A2.12,2.12,0,0,0,30.54,74.69Z" style="fill:#cecece"/><path d="M37.27,59.11H33.64a2.13,2.13,0,0,0-1.51.63L29.83,62a2.12,2.12,0,0,0,0,3l2.3,2.3a2.13,2.13,0,0,0,1.51.63h3.63a2.13,2.13,0,0,0,2.12-2.13v-4.6A2.13,2.13,0,0,0,37.27,59.11Z" style="fill:#cecece"/><path d="M15,68H18.6a2.13,2.13,0,0,0,1.5-.63L22.4,65a2.12,2.12,0,0,0,0-3l-2.3-2.3a2.13,2.13,0,0,0-1.5-.63H15a2.13,2.13,0,0,0-2.12,2.13v4.6A2.13,2.13,0,0,0,15,68Z" style="fill:#cecece"/><g style="opacity:0.4"><path d="M58.48,119.47H30.75c-2.56,0-4.63-2.73-4.63-6.1V81.8" style="fill:none;stroke:#fff;stroke-miterlimit:10"/><line x1="46.31" y1="104.67" x2="46.31" y2="119.49" style="fill:none;stroke:#fff;stroke-miterlimit:10"/></g><g style="opacity:0.45"><path d="M26.39,12.23V8.39a1.91,1.91,0,0,1,2-1.86H50.83" style="fill:none;stroke:#88e6ff;stroke-miterlimit:10"/><path d="M110.49,12.23V8.39a1.91,1.91,0,0,0-2-1.86H86" style="fill:none;stroke:#88e6ff;stroke-miterlimit:10"/><line x1="68.4" y1="22.03" x2="68.4" y2="14.74" style="fill:none;stroke:#88e6ff;stroke-miterlimit:10"/><path d="M68.44,22V59.79a11,11,0,0,0,2.93,7.47L79,75.53" style="fill:none;stroke:#88e6ff;stroke-miterlimit:10"/></g><g style="opacity:0.5"><text transform="translate(62.61 123.68)" style="font-size:11px;fill:#fff;font-family:Lato-Bold, Lato;font-weight:700">M<tspan x="10.23" y="0" style="letter-spacing:-0.02800958806818182em">O</tspan><tspan x="18.72" y="0">VE</tspan></text></g><g style="opacity:0.4"><path d="M26.59,24.77a3.85,3.85,0,0,1-3.85-3.84h1a2.85,2.85,0,1,0,2.85-2.84v-1a3.84,3.84,0,0,1,0,7.68Z" style="fill:#88e6ff"/><path d="M26.59,15.79v3.82S23.93,17.71,24,17.7,26.59,15.79,26.59,15.79Z" style="fill:#88e6ff"/></g><g style="opacity:0.4"><path d="M110.69,24.77a3.84,3.84,0,0,1,0-7.68v1a2.84,2.84,0,1,0,2.84,2.84h1A3.84,3.84,0,0,1,110.69,24.77Z" style="fill:#88e6ff"/><path d="M110.69,15.79v3.82s2.66-1.9,2.56-1.91S110.69,15.79,110.69,15.79Z" style="fill:#88e6ff"/></g></g></g></svg>