<svg id="Layer_1" data-name="Layer 1" xmlns="http://www.w3.org/2000/svg" viewBox="0 0 147.54 132.16"><title>control-gamepad</title><g style="opacity:0.2"><g id="gamepad"><path id="Shape" d="M66,91.43H81.46A16,16,0,0,1,83,85.9H64.2A12.46,12.46,0,0,1,66,91.43Zm-2.21,1.11A12.17,12.17,0,1,1,51.59,80.37,12.28,12.28,0,0,1,63.76,92.54Zm-3.32,0a8.86,8.86,0,1,0-8.85,8.85A8.87,8.87,0,0,0,60.44,92.54ZM57.12,68.19A24.46,24.46,0,0,1,54.91,78.6a13.84,13.84,0,0,1,8,5.09H84.56a14.6,14.6,0,0,1,8-5.09,24.47,24.47,0,0,1-2.22-10.41,25.13,25.13,0,0,1,11.29-21H45.83A25.13,25.13,0,0,1,57.12,68.19Zm-48.69,0a23.24,23.24,0,0,1,46.48,0,20,20,0,0,1-2.29,10c-8.61,0-14.12,5.77-15,12.62a24.23,24.23,0,0,1-5.75.66A23.28,23.28,0,0,1,8.43,68.19ZM31.67,93.64A25.34,25.34,0,0,1,8,77.49L5.34,112a14.29,14.29,0,0,0,11.5,15.27,14.28,14.28,0,0,0,16.38-8.85l7.08-17.26a16.23,16.23,0,0,1-3.1-8.41A16.15,16.15,0,0,1,31.67,93.64ZM115.76,45a23.24,23.24,0,1,1,0,46.47,25.62,25.62,0,0,1-5.75-.66c-.82-6.53-6-12.62-15.06-12.62a23.58,23.58,0,0,1-2.2-10A22.9,22.9,0,0,1,115.76,45Zm4.43,32.09a4.43,4.43,0,1,0-4.43,4.42A4.44,4.44,0,0,0,120.19,77.05Zm0-8.86a4.43,4.43,0,1,0,4.43-4.42A4.44,4.44,0,0,0,120.19,68.19Zm-8.85-8.85a4.43,4.43,0,1,0,4.42-4.42A4.44,4.44,0,0,0,111.34,59.34Zm-8.85,8.85a4.43,4.43,0,1,0,4.42-4.42A4.44,4.44,0,0,0,102.49,68.19ZM108,92.54A12.17,12.17,0,1,1,95.85,80.37,12.28,12.28,0,0,1,108,92.54Zm-3.32,0a8.86,8.86,0,1,0-8.85,8.85A8.87,8.87,0,0,0,104.7,92.54ZM142.1,112l-2.66-34.52a25.33,25.33,0,0,1-23.68,16.15,23.74,23.74,0,0,1-5.53-.66,14,14,0,0,1-3.1,8.41l7.08,17.26a14.51,14.51,0,0,0,16.38,8.85A14.68,14.68,0,0,0,142.1,112Z" style="fill:#fff"/></g><path d="M20.47,45.53s10.78-6,22.19.09V38.94H20.47S20.57,45.63,20.47,45.53Z" style="fill:#fff"/><path d="M104.85,45.53s10.77-6,22.18.09V38.94H104.85S104.94,45.63,104.85,45.53Z" style="fill:#fff"/></g><circle cx="51.59" cy="92.54" r="8.85" style="fill:#cecece"/><circle cx="95.81" cy="92.54" r="8.85" style="fill:#88e6ff"/><path d="M25,33.2H37.76A2.28,2.28,0,0,1,40,35.49v2.08a0,0,0,0,1,0,0H22.75a0,0,0,0,1,0,0V35.49A2.28,2.28,0,0,1,25,33.2Z" style="fill:#88e6ff"/><path d="M109.4,33.2h12.73a2.28,2.28,0,0,1,2.28,2.28v2.08a0,0,0,0,1,0,0h-17.3a0,0,0,0,1,0,0V35.49A2.28,2.28,0,0,1,109.4,33.2Z" style="fill:#88e6ff"/><g style="opacity:0.5"><path d="M65.73,7.38a.42.42,0,0,1-.15.19.36.36,0,0,1-.21,0,.54.54,0,0,1-.27-.09l-.35-.21a3.66,3.66,0,0,0-.48-.2,1.76,1.76,0,0,0-.64-.1A2.05,2.05,0,0,0,63,7.1a1.42,1.42,0,0,0-.42.23.91.91,0,0,0-.25.34,1.13,1.13,0,0,0-.09.45.8.8,0,0,0,.17.51,1.49,1.49,0,0,0,.46.34,3.42,3.42,0,0,0,.64.26l.73.24c.25.09.5.19.74.3a2.6,2.6,0,0,1,.64.44,1.76,1.76,0,0,1,.45.64,2.08,2.08,0,0,1,.18.91,2.84,2.84,0,0,1-.21,1.1,2.58,2.58,0,0,1-.58.9,3,3,0,0,1-1,.6,3.61,3.61,0,0,1-1.28.22,4.45,4.45,0,0,1-.81-.08,4.6,4.6,0,0,1-.77-.23,3.75,3.75,0,0,1-.69-.36,3.4,3.4,0,0,1-.58-.47l.47-.78a1.07,1.07,0,0,1,.16-.14.36.36,0,0,1,.21,0,.58.58,0,0,1,.32.12l.41.27a3.24,3.24,0,0,0,.56.27,2,2,0,0,0,.77.13,1.57,1.57,0,0,0,1.07-.33,1.18,1.18,0,0,0,.38-.94.91.91,0,0,0-.17-.56,1.54,1.54,0,0,0-.46-.36,3.16,3.16,0,0,0-.64-.25l-.73-.22a6.52,6.52,0,0,1-.73-.29,2.21,2.21,0,0,1-.64-.44,2,2,0,0,1-.46-.67,2.64,2.64,0,0,1-.17-1A2.26,2.26,0,0,1,61,7.28a2.44,2.44,0,0,1,.55-.8,2.76,2.76,0,0,1,.89-.56,3.27,3.27,0,0,1,1.21-.21A4,4,0,0,1,65,6a3.08,3.08,0,0,1,1.11.67Z" style="fill:#88e6ff"/><path d="M69.19,11.43v3.05H67.58V5.81H70.4a4.89,4.89,0,0,1,1.51.2,3.1,3.1,0,0,1,1,.57,2.25,2.25,0,0,1,.61.88,3.24,3.24,0,0,1,0,2.27,2.37,2.37,0,0,1-.63.9,3,3,0,0,1-1.05.59,4.72,4.72,0,0,1-1.48.21Zm0-1.26H70.4a2.46,2.46,0,0,0,.77-.11,1.4,1.4,0,0,0,.55-.32A1.23,1.23,0,0,0,72,9.23a1.69,1.69,0,0,0,.11-.66A1.61,1.61,0,0,0,72,7.94a1.13,1.13,0,0,0-.32-.48,1.38,1.38,0,0,0-.55-.3,2.46,2.46,0,0,0-.77-.11H69.19Z" style="fill:#88e6ff"/><path d="M76.84,14.48H75.22V5.81h1.62Z" style="fill:#88e6ff"/><path d="M79.81,5.81a.4.4,0,0,1,.13,0,.28.28,0,0,1,.11.08.77.77,0,0,1,.12.13l4.56,5.81a3,3,0,0,1,0-.42c0-.13,0-.25,0-.37V5.81h1.42v8.67h-.84a.71.71,0,0,1-.31-.06.68.68,0,0,1-.25-.21L80.17,8.43a2.43,2.43,0,0,1,0,.38c0,.12,0,.24,0,.34v5.33H78.79V5.81h1Z" style="fill:#88e6ff"/></g><path d="M27,56.49v3.63a2.09,2.09,0,0,0,.62,1.5l2.3,2.3a2.13,2.13,0,0,0,3,0l2.3-2.3a2.09,2.09,0,0,0,.62-1.5V56.49a2.13,2.13,0,0,0-2.13-2.13h-4.6A2.12,2.12,0,0,0,27,56.49Z" style="fill:#cecece"/><path d="M35.82,78.79V75.16a2.12,2.12,0,0,0-.62-1.5l-2.3-2.3a2.13,2.13,0,0,0-3,0l-2.3,2.3a2.12,2.12,0,0,0-.62,1.5v3.63a2.12,2.12,0,0,0,2.12,2.13h4.6A2.13,2.13,0,0,0,35.82,78.79Z" style="fill:#cecece"/><path d="M42.54,63.21H38.91a2.13,2.13,0,0,0-1.5.63l-2.3,2.3a2.12,2.12,0,0,0,0,3l2.3,2.3a2.13,2.13,0,0,0,1.5.63h3.63a2.13,2.13,0,0,0,2.13-2.13v-4.6A2.13,2.13,0,0,0,42.54,63.21Z" style="fill:#cecece"/><path d="M20.24,72.07h3.63a2.13,2.13,0,0,0,1.51-.63l2.3-2.3a2.12,2.12,0,0,0,0-3l-2.3-2.3a2.13,2.13,0,0,0-1.51-.63H20.24a2.13,2.13,0,0,0-2.12,2.13v4.6A2.13,2.13,0,0,0,20.24,72.07Z" style="fill:#cecece"/><g style="opacity:0.4"><path d="M63.76,123.58H36c-2.56,0-4.64-2.74-4.64-6.11V85.9" style="fill:none;stroke:#fff;stroke-miterlimit:10"/><line x1="51.59" y1="108.77" x2="51.59" y2="123.59" style="fill:none;stroke:#fff;stroke-miterlimit:10"/></g><g style="opacity:0.45"><path d="M31.66,16.33V12.49a1.91,1.91,0,0,1,2-1.86H56.11" style="fill:none;stroke:#88e6ff;stroke-miterlimit:10"/><path d="M115.76,16.33V12.49a1.91,1.91,0,0,0-2-1.86H91.32" style="fill:none;stroke:#88e6ff;stroke-miterlimit:10"/><line x1="73.67" y1="26.13" x2="73.67" y2="18.84" style="fill:none;stroke:#88e6ff;stroke-miterlimit:10"/><path d="M73.72,26.13V63.89a11,11,0,0,0,2.92,7.47l7.66,8.27" style="fill:none;stroke:#88e6ff;stroke-miterlimit:10"/></g><g style="opacity:0.5"><path d="M71.81,124.58c.06.14.12.28.17.42l.18-.43c.06-.14.12-.27.19-.4l2.57-4.81a.39.39,0,0,1,.1-.14.28.28,0,0,1,.11-.08.32.32,0,0,1,.14,0h1.41v8.68H75.25v-5.6c0-.11,0-.22,0-.35l0-.37-2.62,4.92a.75.75,0,0,1-.24.26.58.58,0,0,1-.33.09h-.22a.64.64,0,0,1-.34-.09.72.72,0,0,1-.23-.26l-2.66-4.94c0,.13,0,.26,0,.38s0,.25,0,.36v5.6H67.27V119.1h1.4a.38.38,0,0,1,.26.11.39.39,0,0,1,.1.14l2.59,4.82A2.93,2.93,0,0,1,71.81,124.58Z" style="fill:#fff"/><path d="M86.75,123.44a4.84,4.84,0,0,1-.32,1.77,4.28,4.28,0,0,1-.89,1.41,4.17,4.17,0,0,1-1.39.92,4.91,4.91,0,0,1-3.59,0,4,4,0,0,1-2.29-2.33,4.84,4.84,0,0,1-.32-1.77,4.92,4.92,0,0,1,.32-1.77,4.1,4.1,0,0,1,2.29-2.33,5,5,0,0,1,3.59,0,4.35,4.35,0,0,1,1.39.93,4.14,4.14,0,0,1,.89,1.4A4.92,4.92,0,0,1,86.75,123.44Zm-1.66,0a4.26,4.26,0,0,0-.18-1.28,2.66,2.66,0,0,0-.55-1,2.22,2.22,0,0,0-.86-.61,3.23,3.23,0,0,0-2.29,0,2.22,2.22,0,0,0-.86.61,2.52,2.52,0,0,0-.55,1,4,4,0,0,0-.2,1.28,3.91,3.91,0,0,0,.2,1.28,2.52,2.52,0,0,0,.55,1,2.32,2.32,0,0,0,.86.61,3.23,3.23,0,0,0,2.29,0,2.32,2.32,0,0,0,.86-.61,2.66,2.66,0,0,0,.55-1A4.21,4.21,0,0,0,85.09,123.44Z" style="fill:#fff"/><path d="M86.83,119.1h1.31a.53.53,0,0,1,.34.11.59.59,0,0,1,.2.26l2,5.29c.06.17.13.36.19.57s.12.42.18.65a6.88,6.88,0,0,1,.34-1.22l2-5.29a.59.59,0,0,1,.2-.25.49.49,0,0,1,.34-.12h1.3l-3.5,8.68H90.34Z" style="fill:#fff"/><path d="M101.68,119.1v1.29H97.83v2.4h3V124h-3v2.45h3.85v1.29H96.21V119.1Z" style="fill:#fff"/></g><g style="opacity:0.4"><path d="M31.86,28.87A3.84,3.84,0,0,1,28,25h1a2.85,2.85,0,1,0,2.84-2.84v-1a3.84,3.84,0,1,1,0,7.68Z" style="fill:#88e6ff"/><path d="M31.86,19.89v3.82s-2.65-1.9-2.56-1.91S31.86,19.89,31.86,19.89Z" style="fill:#88e6ff"/></g><g style="opacity:0.4"><path d="M116,28.87a3.84,3.84,0,1,1,0-7.68v1A2.84,2.84,0,1,0,118.81,25h1A3.84,3.84,0,0,1,116,28.87Z" style="fill:#88e6ff"/><path d="M116,19.89v3.82s2.65-1.9,2.56-1.91S116,19.89,116,19.89Z" style="fill:#88e6ff"/></g></svg>