<svg xmlns="http://www.w3.org/2000/svg" viewBox="0 0 94.06 49.62"><title>control-keyboard-right</title><g id="Layer_2" data-name="Layer 2"><g id="Layer_1-2" data-name="Layer 1"><g style="opacity:0.4"><text transform="translate(2.59 47.45)" style="font-size:12px;fill:#fff;font-family:Lato-Bold, Lato;font-weight:700">SPIN</text></g><g style="opacity:0.4"><text transform="translate(51.24 47.45)" style="font-size:12px;fill:#fff;font-family:Lato-Bold, Lato;font-weight:700">M<tspan x="11.16" y="0" style="letter-spacing:-0.0279541015625em">O</tspan><tspan x="20.42" y="0">VE</tspan></text></g><rect y="17.61" width="14.6" height="14.6" rx="1.33" ry="1.33" style="fill:#fff"/><text transform="translate(5.03 27.71)" style="font-size:7.824538230895996px;font-family:Lato-Bold, Lato;font-weight:700">&lt;</text><rect x="17.61" y="17.61" width="14.6" height="14.6" rx="1.33" ry="1.33" style="fill:#fff"/><text transform="translate(22.64 27.71)" style="font-size:7.824538230895996px;font-family:Lato-Bold, Lato;font-weight:700">&gt;</text><rect x="61.85" width="14.6" height="14.6" rx="1.33" ry="1.33" style="fill:#fff"/><path d="M67,8l1.87-2.51a.37.37,0,0,1,.59,0L71.31,8a.37.37,0,0,1-.29.59H67.28A.37.37,0,0,1,67,8Z"/><rect x="61.85" y="17.61" width="14.6" height="14.6" rx="1.33" ry="1.33" transform="translate(138.3 49.82) rotate(180)" style="fill:#fff"/><path d="M71.31,24.17l-1.87,2.52a.38.38,0,0,1-.59,0L67,24.17a.37.37,0,0,1,.3-.58H71A.36.36,0,0,1,71.31,24.17Z"/><rect x="79.45" y="17.61" width="14.6" height="14.6" rx="1.33" ry="1.33" transform="translate(111.66 -61.85) rotate(90)" style="fill:#fff"/><path d="M86,22.75l2.51,1.86a.37.37,0,0,1,0,.59L86,27.07a.37.37,0,0,1-.59-.29V23A.37.37,0,0,1,86,22.75Z"/><rect x="44.24" y="17.61" width="14.6" height="14.6" rx="1.33" ry="1.33" transform="translate(26.63 76.45) rotate(-90)" style="fill:#fff"/><path d="M52.28,27.07,49.76,25.2a.38.38,0,0,1,0-.59l2.52-1.86a.36.36,0,0,1,.58.29v3.74A.36.36,0,0,1,52.28,27.07Z"/><g style="opacity:0.49"><path d="M7.3,7.38A3.35,3.35,0,1,1,4,10.73" style="fill:none;stroke:#fff;stroke-miterlimit:10"/><path d="M7.3,5.58V9.4S4.65,7.5,4.74,7.49,7.3,5.58,7.3,5.58Z" style="fill:#fff"/><path d="M24.91,7.38a3.35,3.35,0,1,0,3.34,3.35" style="fill:none;stroke:#fff;stroke-miterlimit:10"/><path d="M24.91,5.58V9.4s2.66-1.9,2.56-1.91S24.91,5.58,24.91,5.58Z" style="fill:#fff"/></g></g></g></svg>