<svg xmlns="http://www.w3.org/2000/svg" viewBox="0 0 94.06 45.89"><title>control-keyboard-right</title><g id="Layer_2" data-name="Layer 2"><g id="Layer_1-2" data-name="Layer 1"><g style="opacity:0.45"><text transform="translate(7.06 44.45)" style="font-size:8px;fill:#88e6ff;font-family:Lato-Bold, Lato;font-weight:700">SPIN</text></g><g style="opacity:0.4"><text transform="translate(57.21 44.45)" style="font-size:8px;fill:#fff;font-family:Lato-Bold, Lato;font-weight:700">M<tspan x="7.44" y="0" style="letter-spacing:-0.02801513671875em">O</tspan><tspan x="13.61" y="0">VE</tspan></text></g><rect y="17.61" width="14.6" height="14.6" rx="1.33" ry="1.33" style="fill:#88e6ff;opacity:0.6"/><text transform="translate(5.03 27.71)" style="font-size:7.824540138244629px;font-family:Lato-Bold, Lato;font-weight:700">&lt;</text><rect x="17.61" y="17.61" width="14.6" height="14.6" rx="1.33" ry="1.33" style="fill:#88e6ff;opacity:0.6"/><text transform="translate(22.64 27.71)" style="font-size:7.824540138244629px;font-family:Lato-Bold, Lato;font-weight:700">&gt;</text><g style="opacity:0.5"><rect x="61.85" width="14.6" height="14.6" rx="1.33" ry="1.33" style="fill:#cecece"/></g><path d="M67,8l1.87-2.51a.37.37,0,0,1,.59,0L71.31,8a.37.37,0,0,1-.29.59H67.28A.37.37,0,0,1,67,8Z"/><rect x="61.85" y="17.61" width="14.6" height="14.6" rx="1.33" ry="1.33" transform="translate(138.3 49.82) rotate(180)" style="fill:#cecece;opacity:0.5"/><path d="M71.31,24.17l-1.87,2.52a.38.38,0,0,1-.59,0L67,24.17a.37.37,0,0,1,.3-.58H71A.36.36,0,0,1,71.31,24.17Z"/><rect x="79.45" y="17.61" width="14.6" height="14.6" rx="1.33" ry="1.33" transform="translate(111.66 -61.85) rotate(90)" style="fill:#cecece;opacity:0.5"/><path d="M86,22.75l2.51,1.86a.37.37,0,0,1,0,.59L86,27.07a.37.37,0,0,1-.59-.29V23A.37.37,0,0,1,86,22.75Z"/><rect x="44.24" y="17.61" width="14.6" height="14.6" rx="1.33" ry="1.33" transform="translate(26.63 76.45) rotate(-90)" style="fill:#cecece;opacity:0.5"/><path d="M52.28,27.07,49.76,25.2a.38.38,0,0,1,0-.59l2.52-1.86a.36.36,0,0,1,.58.29v3.74A.36.36,0,0,1,52.28,27.07Z"/><g style="opacity:0.4"><path d="M7.51,14.28a3.86,3.86,0,0,1-3.85-3.84h1A2.85,2.85,0,1,0,7.51,7.59v-1a3.85,3.85,0,0,1,0,7.69Z" style="fill:#88e6ff"/><path d="M7.51,5.29V9.11S4.85,7.21,4.94,7.2,7.51,5.29,7.51,5.29Z" style="fill:#88e6ff"/><path d="M24.61,14.28a3.85,3.85,0,1,1,0-7.69v1a2.85,2.85,0,1,0,2.84,2.85h1A3.85,3.85,0,0,1,24.61,14.28Z" style="fill:#88e6ff"/><path d="M24.61,5.29V9.11s2.66-1.9,2.56-1.91S24.61,5.29,24.61,5.29Z" style="fill:#88e6ff"/></g></g></g></svg>