<svg xmlns="http://www.w3.org/2000/svg" viewBox="0 0 136.88 143.99"><title>control-gamepad</title><g id="Layer_2" data-name="Layer 2"><g id="Layer_1-2" data-name="Layer 1"><g style="opacity:0.35000000000000003"><g id="gamepad"><path id="Shape" d="M60.69,92.29h15.5a15.94,15.94,0,0,1,1.54-5.53H58.92A12.46,12.46,0,0,1,60.69,92.29ZM58.48,93.4A12.17,12.17,0,1,1,46.31,81.23,12.28,12.28,0,0,1,58.48,93.4Zm-3.32,0a8.85,8.85,0,1,0-8.85,8.85A8.88,8.88,0,0,0,55.16,93.4ZM51.84,69.05a24.39,24.39,0,0,1-2.21,10.4,14,14,0,0,1,8,5.09H79.28a14.72,14.72,0,0,1,8-5.09A24.39,24.39,0,0,1,85,69.05,25.12,25.12,0,0,1,96.32,48H40.56A25.12,25.12,0,0,1,51.84,69.05Zm-48.68,0a23.24,23.24,0,0,1,46.47,0,20.07,20.07,0,0,1-2.28,10c-8.62,0-14.12,5.77-15,12.62a24.26,24.26,0,0,1-5.76.66A23.28,23.28,0,0,1,3.16,69.05ZM26.39,94.5A25.35,25.35,0,0,1,2.71,78.35L.06,112.87a14.29,14.29,0,0,0,11.51,15.27,14.26,14.26,0,0,0,16.37-8.85L35,102a16.22,16.22,0,0,1-3.09-8.41A16.25,16.25,0,0,1,26.39,94.5Zm84.1-48.68a23.24,23.24,0,0,1,0,46.47,25.65,25.65,0,0,1-5.76-.66C103.92,85.1,98.72,79,89.67,79a23.58,23.58,0,0,1-2.2-10A22.91,22.91,0,0,1,110.49,45.82Zm4.42,32.09a4.43,4.43,0,1,0-4.42,4.42A4.44,4.44,0,0,0,114.91,77.91Zm0-8.86a4.43,4.43,0,1,0,4.43-4.42A4.44,4.44,0,0,0,114.91,69.05Zm-8.85-8.85a4.43,4.43,0,1,0,4.43-4.42A4.44,4.44,0,0,0,106.06,60.2Zm-8.85,8.85a4.43,4.43,0,1,0,4.42-4.42A4.44,4.44,0,0,0,97.21,69.05Zm5.53,24.35A12.17,12.17,0,1,1,90.57,81.23,12.28,12.28,0,0,1,102.74,93.4Zm-3.32,0a8.85,8.85,0,1,0-8.85,8.85A8.88,8.88,0,0,0,99.42,93.4Zm37.4,19.47-2.65-34.52A25.35,25.35,0,0,1,110.49,94.5a23.83,23.83,0,0,1-5.54-.66,14,14,0,0,1-3.09,8.41l7.08,17.26a14.5,14.5,0,0,0,16.37,8.85A14.66,14.66,0,0,0,136.82,112.87Z" style="fill:#fff"/></g><path d="M15.2,46.39s10.78-6,22.18.09V39.8H15.2S15.29,46.49,15.2,46.39Z" style="fill:#fff"/><path d="M99.57,46.39s10.78-6,22.18.09V39.8H99.57S99.66,46.49,99.57,46.39Z" style="fill:#fff"/></g><circle cx="46.31" cy="93.4" r="8.85" style="fill:#fff"/><circle cx="90.53" cy="93.4" r="8.85" style="fill:#fff"/><path d="M19.76,34.06H32.49a2.28,2.28,0,0,1,2.28,2.28v2.08a0,0,0,0,1,0,0H17.47a0,0,0,0,1,0,0V36.35A2.28,2.28,0,0,1,19.76,34.06Z" style="fill:#fff"/><path d="M104.13,34.06h12.73a2.28,2.28,0,0,1,2.28,2.28v2.08a0,0,0,0,1,0,0h-17.3a0,0,0,0,1,0,0V36.35A2.28,2.28,0,0,1,104.13,34.06Z" style="fill:#fff"/><g style="opacity:0.5"><text transform="translate(54.93 10.34)" style="font-size:12px;fill:#fff;font-family:Lato-Bold, Lato;font-weight:700">SPIN</text></g><path d="M21.69,57.35V61a2.1,2.1,0,0,0,.62,1.5l2.3,2.3a2.13,2.13,0,0,0,3,0l2.3-2.3a2.1,2.1,0,0,0,.62-1.5V57.35a2.12,2.12,0,0,0-2.12-2.13h-4.6A2.13,2.13,0,0,0,21.69,57.35Z" style="fill:#fff"/><path d="M30.54,79.65V76a2.12,2.12,0,0,0-.62-1.5l-2.3-2.3a2.13,2.13,0,0,0-3,0l-2.3,2.3a2.12,2.12,0,0,0-.62,1.5v3.63a2.13,2.13,0,0,0,2.13,2.13h4.6A2.12,2.12,0,0,0,30.54,79.65Z" style="fill:#fff"/><path d="M37.27,64.07H33.64a2.13,2.13,0,0,0-1.51.63L29.83,67a2.12,2.12,0,0,0,0,3l2.3,2.3a2.13,2.13,0,0,0,1.51.63h3.63a2.13,2.13,0,0,0,2.12-2.13V66.2A2.13,2.13,0,0,0,37.27,64.07Z" style="fill:#fff"/><path d="M15,72.93H18.6a2.13,2.13,0,0,0,1.5-.63L22.4,70a2.12,2.12,0,0,0,0-3l-2.3-2.3a2.13,2.13,0,0,0-1.5-.63H15a2.13,2.13,0,0,0-2.12,2.13v4.6A2.13,2.13,0,0,0,15,72.93Z" style="fill:#fff"/><g style="opacity:0.65"><polyline points="46.23 110.16 46.23 115.37 26.12 115.37 26.12 86.76" style="fill:none;stroke:#fff;stroke-miterlimit:10"/><line x1="36.52" y1="115.37" x2="36.52" y2="130.19" style="fill:none;stroke:#fff;stroke-miterlimit:10"/></g><g style="opacity:0.45"><line x1="35.13" y1="26.99" x2="100.61" y2="26.99" style="fill:none;stroke:#fff;stroke-miterlimit:10"/><line x1="68.4" y1="26.99" x2="68.4" y2="14.08" style="fill:none;stroke:#fff;stroke-miterlimit:10"/><polyline points="68.44 26.99 68.44 69.05 79.02 80.49" style="fill:none;stroke:#fff;stroke-miterlimit:10"/></g><g style="opacity:0.5"><text transform="translate(18.62 141.82)" style="font-size:12px;fill:#fff;font-family:Lato-Bold, Lato;font-weight:700">M<tspan x="11.16" y="0" style="letter-spacing:-0.0279541015625em">O</tspan><tspan x="20.42" y="0">VE</tspan></text></g><g style="opacity:0.4"><path d="M26.39,23.64A3.35,3.35,0,1,1,23.05,27" style="fill:none;stroke:#fff;stroke-miterlimit:10"/><path d="M26.39,21.85v3.82s-2.65-1.9-2.56-1.91S26.39,21.85,26.39,21.85Z" style="fill:#fff"/></g><g style="opacity:0.4"><path d="M110.49,23.64A3.35,3.35,0,1,0,113.83,27" style="fill:none;stroke:#fff;stroke-miterlimit:10"/><path d="M110.49,21.85v3.82s2.65-1.9,2.56-1.91S110.49,21.85,110.49,21.85Z" style="fill:#fff"/></g></g></g></svg>