<svg xmlns="http://www.w3.org/2000/svg" viewBox="0 0 94.06 45.22"><title>control-keyboard-left</title><g id="Layer_2" data-name="Layer 2"><g id="Layer_1-2" data-name="Layer 1"><text transform="translate(69.07 43.77)" style="opacity:0.45;font-size:8px;fill:#88e6ff;font-family:Lato-Bold, Lato;font-weight:700">SPIN</text><text transform="translate(12.97 43.77)" style="opacity:0.4;font-size:8px;fill:#fff;font-family:Lato-Bold, Lato;font-weight:700">M<tspan x="7.44" y="0" style="letter-spacing:-0.02801513671875em">O</tspan><tspan x="13.61" y="0">VE</tspan></text><rect y="17.61" width="14.6" height="14.6" rx="1.33" ry="1.33" style="fill:#cecece"/><rect x="17.61" y="17.61" width="14.6" height="14.6" rx="1.33" ry="1.33" style="fill:#cecece"/><rect x="17.61" width="14.6" height="14.6" rx="1.33" ry="1.33" style="fill:#cecece"/><text transform="translate(20.82 10.29)" style="font-size:7.824538230895996px;font-family:Lato-Bold, Lato;font-weight:700">W</text><text transform="translate(22.81 27.57)" style="font-size:7.824538230895996px;font-family:Lato-Bold, Lato;font-weight:700">S</text><rect x="61.85" y="17.61" width="14.6" height="14.6" rx="1.33" ry="1.33" style="fill:#88e6ff"/><text transform="translate(66.53 27.71)" style="font-size:7.824538230895996px;font-family:Lato-Bold, Lato;font-weight:700">C</text><rect x="79.45" y="17.61" width="14.6" height="14.6" rx="1.33" ry="1.33" style="fill:#88e6ff"/><text transform="translate(83.98 27.71)" style="font-size:7.824538230895996px;font-family:Lato-Bold, Lato;font-weight:700">V</text><text transform="translate(4.52 27.57)" style="font-size:7.824538230895996px;font-family:Lato-Bold, Lato;font-weight:700">A</text><rect x="35.21" y="17.61" width="14.6" height="14.6" rx="1.33" ry="1.33" style="fill:#cecece"/><text transform="translate(39.88 27.57)" style="font-size:7.824538230895996px;font-family:Lato-Bold, Lato;font-weight:700">D</text><g style="opacity:0.4"><path d="M69.42,14.49a3.84,3.84,0,0,1-3.84-3.84h1A2.84,2.84,0,1,0,69.42,7.8v-1a3.85,3.85,0,0,1,0,7.69Z" style="fill:#88e6ff"/><path d="M69.42,5.51V9.33s-2.66-1.91-2.56-1.91S69.42,5.51,69.42,5.51Z" style="fill:#88e6ff"/><path d="M86.52,14.49a3.85,3.85,0,0,1,0-7.69v1a2.85,2.85,0,1,0,2.85,2.85h1A3.85,3.85,0,0,1,86.52,14.49Z" style="fill:#88e6ff"/><path d="M86.52,5.51V9.33s2.66-1.91,2.57-1.91S86.52,5.51,86.52,5.51Z" style="fill:#88e6ff"/></g></g></g></svg>