<svg xmlns="http://www.w3.org/2000/svg" viewBox="0 0 94.06 52.94"><title>control-keyboard-left</title><g id="Layer_2" data-name="Layer 2"><g id="Layer_1-2" data-name="Layer 1"><text transform="translate(64.6 50.78)" style="font-size:12px;fill:#3faa7f;font-family:Lato-Bold, Lato;font-weight:700">SPIN</text><text transform="translate(7.01 50.78)" style="font-size:12px;fill:#ac4d9c;font-family:Lato-Bold, Lato;font-weight:700">M<tspan x="11.16" y="0" style="letter-spacing:-0.0279541015625em">O</tspan><tspan x="20.42" y="0">VE</tspan></text><rect y="17.61" width="14.6" height="14.6" rx="1.33" ry="1.33" style="fill:#ac4d9c"/><rect x="17.61" y="17.61" width="14.6" height="14.6" rx="1.33" ry="1.33" style="fill:#ac4d9c"/><rect x="17.61" width="14.6" height="14.6" rx="1.33" ry="1.33" style="fill:#ac4d9c"/><text transform="translate(20.82 10.29)" style="font-size:7.824538230895996px;font-family:Lato-Bold, Lato;font-weight:700">W</text><text transform="translate(22.81 27.57)" style="font-size:7.824538230895996px;font-family:Lato-Bold, Lato;font-weight:700">S</text><rect x="61.85" y="17.61" width="14.6" height="14.6" rx="1.33" ry="1.33" style="fill:#3faa7f"/><text transform="translate(66.53 27.71)" style="font-size:7.824538230895996px;font-family:Lato-Bold, Lato;font-weight:700">C</text><rect x="79.45" y="17.61" width="14.6" height="14.6" rx="1.33" ry="1.33" style="fill:#3faa7f"/><text transform="translate(84.34 27.71)" style="font-size:7.824538230895996px;font-family:Lato-Bold, Lato;font-weight:700">Z</text><text transform="translate(4.52 27.57)" style="font-size:7.824538230895996px;font-family:Lato-Bold, Lato;font-weight:700">A</text><rect x="35.21" y="17.61" width="14.6" height="14.6" rx="1.33" ry="1.33" style="fill:#ac4d9c"/><text transform="translate(39.88 27.57)" style="font-size:7.824538230895996px;font-family:Lato-Bold, Lato;font-weight:700">D</text><path d="M69.42,7.3a3.35,3.35,0,1,1-3.34,3.35" style="fill:none;stroke:#3faa7f;stroke-miterlimit:10"/><path d="M69.42,5.51V9.33s-2.66-1.91-2.56-1.91S69.42,5.51,69.42,5.51Z" style="fill:#3faa7f"/><path d="M86.52,7.3a3.35,3.35,0,1,0,3.35,3.35" style="fill:none;stroke:#3faa7f;stroke-miterlimit:10"/><path d="M86.52,5.51V9.33s2.66-1.91,2.57-1.91S86.52,5.51,86.52,5.51Z" style="fill:#3faa7f"/></g></g></svg>