<svg id="Layer_1" data-name="Layer 1" xmlns="http://www.w3.org/2000/svg" viewBox="0 0 98 51.11"><title>control-keyboard-right</title><g style="opacity:0.45"><path d="M12.87,43.36a.32.32,0,0,1-.1.12.23.23,0,0,1-.14,0,.32.32,0,0,1-.18-.06l-.24-.14a1.61,1.61,0,0,0-.32-.14,1.35,1.35,0,0,0-.43-.06,1.48,1.48,0,0,0-.39.05,1.06,1.06,0,0,0-.28.15.76.76,0,0,0-.17.23.94.94,0,0,0,0,.3.55.55,0,0,0,.11.34,1.19,1.19,0,0,0,.3.23,3.5,3.5,0,0,0,.43.17l.49.16.49.2a1.8,1.8,0,0,1,.43.29,1.19,1.19,0,0,1,.3.43,1.38,1.38,0,0,1,.12.61,2,2,0,0,1-.14.73,1.73,1.73,0,0,1-.39.6,1.84,1.84,0,0,1-.63.4,2.26,2.26,0,0,1-.85.14,2.5,2.5,0,0,1-.55,0,4.28,4.28,0,0,1-.51-.15,3.33,3.33,0,0,1-.46-.24,2.38,2.38,0,0,1-.38-.32l.31-.51a.36.36,0,0,1,.11-.1.28.28,0,0,1,.13,0,.35.35,0,0,1,.22.08l.27.18a1.68,1.68,0,0,0,.38.18,1.3,1.3,0,0,0,.51.08,1.07,1.07,0,0,0,.71-.21.79.79,0,0,0,.25-.63.54.54,0,0,0-.11-.37.89.89,0,0,0-.3-.24,1.84,1.84,0,0,0-.43-.17l-.49-.15a4.94,4.94,0,0,1-.49-.19A1.57,1.57,0,0,1,10,45a1.34,1.34,0,0,1-.31-.45,1.84,1.84,0,0,1-.11-.67,1.46,1.46,0,0,1,.13-.61,1.6,1.6,0,0,1,.36-.54,2.1,2.1,0,0,1,.6-.37,2.2,2.2,0,0,1,.8-.14,2.91,2.91,0,0,1,1,.16,2.25,2.25,0,0,1,.73.45Z" style="fill:#88e6ff"/><path d="M15.17,46.05v2H14.1V42.31H16a3.28,3.28,0,0,1,1,.13,1.87,1.87,0,0,1,.7.38,1.43,1.43,0,0,1,.41.59,2,2,0,0,1,.13.74,1.92,1.92,0,0,1-.14.77,1.56,1.56,0,0,1-.42.6,1.82,1.82,0,0,1-.7.39,2.9,2.9,0,0,1-1,.14Zm0-.84H16a1.64,1.64,0,0,0,.52-.07,1.07,1.07,0,0,0,.36-.21.87.87,0,0,0,.22-.34,1.5,1.5,0,0,0,.07-.44,1.37,1.37,0,0,0-.07-.42.8.8,0,0,0-.22-.32.91.91,0,0,0-.36-.2,1.64,1.64,0,0,0-.52-.07h-.81Z" style="fill:#88e6ff"/><path d="M20.27,48.09H19.19V42.31h1.08Z" style="fill:#88e6ff"/><path d="M22.26,42.31s.06,0,.08,0a.18.18,0,0,1,.08,0l.08.09,3,3.87c0-.1,0-.19,0-.28s0-.17,0-.25V42.31h.95v5.78H25.9a.48.48,0,0,1-.22,0,.5.5,0,0,1-.16-.14l-3-3.86c0,.09,0,.17,0,.26a1.85,1.85,0,0,1,0,.23v3.55h-.95V42.31h.69Z" style="fill:#88e6ff"/></g><g style="opacity:0.4"><path d="M63,46l.12.27c0-.09.07-.19.11-.28l.13-.27L65,42.48a.86.86,0,0,1,.07-.1l.07-.05.1,0h.93v5.78h-.94v-4c0-.09,0-.17,0-.26l-1.75,3.28a.45.45,0,0,1-.15.18.44.44,0,0,1-.23.06H63a.4.4,0,0,1-.22-.06.47.47,0,0,1-.16-.18l-1.77-3.29a2.46,2.46,0,0,1,0,.26,1.85,1.85,0,0,1,0,.23v3.74h-.95V42.31h.94l.09,0,.08.05a.86.86,0,0,1,.07.1l1.73,3.21Z" style="fill:#fff"/><path d="M72.91,45.2a3.29,3.29,0,0,1-.21,1.18,2.66,2.66,0,0,1-.6.93,2.58,2.58,0,0,1-.92.62,3.09,3.09,0,0,1-1.2.22,3.13,3.13,0,0,1-1.2-.22,2.58,2.58,0,0,1-.92-.62,2.66,2.66,0,0,1-.6-.93,3.29,3.29,0,0,1-.21-1.18A3.22,3.22,0,0,1,67.26,44a2.8,2.8,0,0,1,.6-.94,2.71,2.71,0,0,1,.92-.62,3.33,3.33,0,0,1,1.2-.22,3.09,3.09,0,0,1,1.2.23,2.56,2.56,0,0,1,.92.61,2.8,2.8,0,0,1,.6.94A3.22,3.22,0,0,1,72.91,45.2Zm-1.1,0a2.88,2.88,0,0,0-.13-.86,1.75,1.75,0,0,0-.36-.64,1.59,1.59,0,0,0-.58-.4,1.81,1.81,0,0,0-.76-.14,1.84,1.84,0,0,0-.76.14,1.59,1.59,0,0,0-.58.4,1.92,1.92,0,0,0-.37.64,2.88,2.88,0,0,0-.12.86,2.77,2.77,0,0,0,.12.85,1.83,1.83,0,0,0,.37.64,1.47,1.47,0,0,0,.58.4,1.84,1.84,0,0,0,.76.14,1.81,1.81,0,0,0,.76-.14,1.47,1.47,0,0,0,.58-.4,1.67,1.67,0,0,0,.36-.64A2.76,2.76,0,0,0,71.81,45.2Z" style="fill:#fff"/><path d="M73,42.31h.86a.39.39,0,0,1,.23.06.38.38,0,0,1,.13.18l1.36,3.53a2.8,2.8,0,0,1,.13.38,4.43,4.43,0,0,1,.12.43,4.65,4.65,0,0,1,.23-.81l1.36-3.53a.38.38,0,0,1,.12-.17.37.37,0,0,1,.23-.07h.87l-2.34,5.78h-1Z" style="fill:#fff"/><path d="M82.86,42.31v.85H80.3v1.61h2v.82h-2v1.64h2.56v.86H79.21V42.31Z" style="fill:#fff"/></g><rect x="2.13" y="21.25" width="14.6" height="14.6" rx="1.33" ry="1.33" style="fill:#88e6ff;opacity:0.6000000000000001"/><path d="M7.7,28.52l3.1-1.62v.69a.21.21,0,0,1,0,.14.26.26,0,0,1-.13.12l-1.42.72a.64.64,0,0,1-.19.08,1,1,0,0,1-.21.07.65.65,0,0,1,.21.06.64.64,0,0,1,.19.08l1.42.73a.29.29,0,0,1,.13.11.23.23,0,0,1,0,.14v.69L7.7,28.91Z"/><rect x="19.73" y="21.25" width="14.6" height="14.6" rx="1.33" ry="1.33" style="fill:#88e6ff;opacity:0.6000000000000001"/><path d="M25.66,30.53v-.69a.33.33,0,0,1,0-.14.36.36,0,0,1,.13-.11l1.42-.73a1.57,1.57,0,0,1,.4-.14l-.21-.07a.64.64,0,0,1-.19-.08l-1.42-.72a.3.3,0,0,1-.13-.12.29.29,0,0,1,0-.14V26.9l3.1,1.62v.39Z"/><g style="opacity:0.5"><rect x="63.97" y="3.64" width="14.6" height="14.6" rx="1.33" ry="1.33" style="fill:#cecece"/></g><path d="M69.11,11.68,71,9.16a.38.38,0,0,1,.59,0l1.87,2.52a.36.36,0,0,1-.3.58H69.41A.36.36,0,0,1,69.11,11.68Z"/><rect x="63.97" y="21.25" width="14.6" height="14.6" rx="1.33" ry="1.33" transform="translate(142.55 57.1) rotate(180)" style="fill:#cecece;opacity:0.5"/><path d="M73.44,27.81l-1.87,2.52a.38.38,0,0,1-.59,0l-1.87-2.52a.36.36,0,0,1,.3-.58h3.73A.36.36,0,0,1,73.44,27.81Z"/><rect x="81.58" y="21.25" width="14.6" height="14.6" rx="1.33" ry="1.33" transform="translate(117.43 -60.33) rotate(90)" style="fill:#cecece;opacity:0.5"/><path d="M88.15,26.38l2.51,1.87a.37.37,0,0,1,0,.59l-2.51,1.87a.37.37,0,0,1-.59-.29V26.68A.37.37,0,0,1,88.15,26.38Z"/><rect x="46.37" y="21.25" width="14.6" height="14.6" rx="1.33" ry="1.33" transform="translate(25.12 82.22) rotate(-90)" style="fill:#cecece;opacity:0.5"/><path d="M54.4,30.71l-2.51-1.87a.37.37,0,0,1,0-.59l2.51-1.87a.37.37,0,0,1,.59.3v3.74A.37.37,0,0,1,54.4,30.71Z"/><g style="opacity:0.4"><path d="M9.63,17.92a3.85,3.85,0,0,1-3.84-3.85h1a2.85,2.85,0,1,0,2.84-2.84v-1a3.85,3.85,0,1,1,0,7.69Z" style="fill:#88e6ff"/><path d="M9.63,8.93v3.82S7,10.85,7.07,10.84,9.63,8.93,9.63,8.93Z" style="fill:#88e6ff"/><path d="M26.73,17.92a3.85,3.85,0,0,1,0-7.69v1a2.85,2.85,0,1,0,2.85,2.84h1A3.86,3.86,0,0,1,26.73,17.92Z" style="fill:#88e6ff"/><path d="M26.74,8.93v3.82s2.65-1.9,2.56-1.91S26.74,8.93,26.74,8.93Z" style="fill:#88e6ff"/></g></svg>