<svg xmlns="http://www.w3.org/2000/svg" viewBox="0 0 103.27 105.27"><title>crosshair</title><g id="Layer_2" data-name="Layer 2"><g id="Layer_1-2" data-name="Layer 1"><g style="opacity:0.2"><path d="M51.52,96.16A42.06,42.06,0,1,1,93.58,54.1,42.1,42.1,0,0,1,51.52,96.16Zm0-78.12A36.06,36.06,0,1,0,87.58,54.1,36.1,36.1,0,0,0,51.52,18Z"/><circle cx="51.52" cy="54.1" r="7.48"/><rect y="51.1" width="25.1" height="6"/><rect x="78.17" y="51.1" width="25.1" height="6"/><rect x="48.52" y="3" width="6" height="24.58"/><rect x="48.52" y="80.69" width="6" height="24.58"/></g><path d="M51.52,93.16A42.06,42.06,0,1,1,93.58,51.1,42.1,42.1,0,0,1,51.52,93.16Zm0-78.12A36.06,36.06,0,1,0,87.58,51.1,36.1,36.1,0,0,0,51.52,15Z" style="fill:#fff"/><circle cx="51.52" cy="51.1" r="7.48" style="fill:#fff"/><rect y="48.1" width="25.1" height="6" style="fill:#fff"/><rect x="78.17" y="48.1" width="25.1" height="6" style="fill:#fff"/><rect x="48.52" width="6" height="24.58" style="fill:#fff"/><rect x="48.52" y="77.69" width="6" height="24.58" style="fill:#fff"/></g></g></svg>