<svg xmlns="http://www.w3.org/2000/svg" viewBox="0 0 61.35 192.15"><title>dash</title><g id="Layer_2" data-name="Layer 2"><g id="Layer_1-2" data-name="Layer 1"><path d="M61.35,47.2c0,5.82-.11,90-.11,97.85,0,31.09-42.2,47.1-42.2,47.1S35.18,175,38.66,161.28C24,173.22,6.27,176.64,6.27,176.64S22.55,164.18,21,155.51a58.57,58.57,0,0,1-21,3.75s14.11-7.84,16.7-11.87C25.9,133,28,56.05,22,44.25c-2.11-4.16-16.38-11-16.38-11s6.72-2.95,19.09-.92C24.35,24.45,9.66,12.52,9.66,12.52s19.65,5.14,31.48,15.92C38.51,19.87,28.63,0,28.63,0S61.35,17.83,61.35,47.2Z" style="fill:#fff"/></g></g></svg>