<svg xmlns="http://www.w3.org/2000/svg" viewBox="0 0 60.71 117.94"><title>fire</title><g id="Layer_2" data-name="Layer 2"><g id="Layer_1-2" data-name="Layer 1"><g style="opacity:0.23"><path d="M42.76,94.1s7.23-20.38,8-30c-3.75,3.31-13,13-13,13s6-20,6.3-37.67a107.57,107.57,0,0,1-8.45,11S34.5,13,30.5,0c-4.3,12.56-5.32,50.32-5.32,50.32a38.19,38.19,0,0,1-9-10.9C15.76,56.1,23.53,77,23.53,77s-12.59-8-16-11.36c.67,9.64,11.21,27.91,11.21,27.91A70.43,70.43,0,0,1,6.23,89c4.31,15.55,14.57,27.35,23.51,28.82,3.21,0-.27-.09,2.12-.09,11.79-3.1,18.9-17.63,22.9-31.63C47.76,92.1,42.76,94.1,42.76,94.1Z" style="fill:#fff"/><path d="M2.38,75.31A16.91,16.91,0,0,0,9.3,87,15.2,15.2,0,0,0,2.38,75.31Z" style="fill:#fff"/><path d="M56.66,75.47a16.88,16.88,0,0,0-7.45,11.37A15.28,15.28,0,0,0,56.66,75.47Z" style="fill:#fff"/><path d="M60.71,105a23.07,23.07,0,0,0-15.55,12C53.52,115.93,58.65,109.26,60.71,105Z" style="fill:#fff"/><path d="M16.61,117.05A23.07,23.07,0,0,0,0,106.51C3.89,114,11.9,116.56,16.61,117.05Z" style="fill:#fff"/></g><path d="M30.47,41.78s-5.34,47.54-4.77,59.71,1.39,16.45,5,16.45c4.37,0,4.59-9.59,4.59-16.87S32.07,48,30.47,41.78Z" style="fill:#fff"/></g></g></svg>