<svg xmlns="http://www.w3.org/2000/svg" viewBox="0 0 262.31 143.99"><title>gamepad-buttons</title><g id="Layer_2" data-name="Layer 2"><g id="Layer_1-2" data-name="Layer 1"><g id="gamepad" style="opacity:0.2"><path id="Shape" d="M186.13,92.29h15.49a15.74,15.74,0,0,1,1.55-5.53H184.36A12.58,12.58,0,0,1,186.13,92.29Zm-2.22,1.11a12.17,12.17,0,1,1-12.17-12.17A12.28,12.28,0,0,1,183.91,93.4Zm-3.31,0a8.86,8.86,0,1,0-8.86,8.85A8.89,8.89,0,0,0,180.6,93.4Zm-3.32-24.35a24.4,24.4,0,0,1-2.22,10.4,14,14,0,0,1,8,5.09h21.69a14.69,14.69,0,0,1,8-5.09,24.39,24.39,0,0,1-2.21-10.4,25.13,25.13,0,0,1,11.29-21H166A25.13,25.13,0,0,1,177.28,69.05Zm-48.69,0a23.24,23.24,0,0,1,46.47,0,20.07,20.07,0,0,1-2.28,10c-8.61,0-14.12,5.77-15,12.62a24.23,24.23,0,0,1-5.75.66A23.28,23.28,0,0,1,128.59,69.05ZM151.83,94.5a25.33,25.33,0,0,1-23.68-16.15l-2.66,34.52a14.47,14.47,0,0,0,27.89,6.42L160.46,102a16.23,16.23,0,0,1-3.1-8.41A16.15,16.15,0,0,1,151.83,94.5Zm84.09-48.68a23.24,23.24,0,1,1,0,46.47,25.62,25.62,0,0,1-5.75-.66c-.82-6.53-6-12.62-15.07-12.62a23.58,23.58,0,0,1-2.2-10A22.91,22.91,0,0,1,235.92,45.82Zm4.43,32.09a4.43,4.43,0,1,0-4.43,4.42A4.44,4.44,0,0,0,240.35,77.91Zm0-8.86a4.43,4.43,0,1,0,4.42-4.42A4.44,4.44,0,0,0,240.35,69.05Zm-8.86-8.85a4.43,4.43,0,1,0,4.43-4.42A4.44,4.44,0,0,0,231.49,60.2Zm-8.85,8.85a4.43,4.43,0,1,0,4.43-4.42A4.44,4.44,0,0,0,222.64,69.05Zm5.53,24.35A12.17,12.17,0,1,1,216,81.23,12.28,12.28,0,0,1,228.17,93.4Zm-3.31,0a8.86,8.86,0,1,0-8.86,8.85A8.89,8.89,0,0,0,224.86,93.4Zm37.39,19.47L259.6,78.35A25.34,25.34,0,0,1,235.92,94.5a23.74,23.74,0,0,1-5.53-.66,14,14,0,0,1-3.1,8.41l7.08,17.26a14.51,14.51,0,0,0,16.38,8.85A14.67,14.67,0,0,0,262.25,112.87Z" style="fill:#fff"/></g><circle cx="171.74" cy="93.4" r="8.85" style="fill:#ac4d9c"/><circle cx="215.96" cy="93.4" r="8.85" style="fill:#3faa7f"/><path d="M140.63,46.39s10.78-6,22.18.09V39.8H140.63S140.73,46.49,140.63,46.39Z" style="fill:#fff;opacity:0.2"/><path d="M145.19,34.06h12.73a2.28,2.28,0,0,1,2.28,2.28v2.08a0,0,0,0,1,0,0h-17.3a0,0,0,0,1,0,0V36.35A2.28,2.28,0,0,1,145.19,34.06Z" style="fill:#3faa7f"/><path d="M225,46.39s10.78-6,22.18.09V39.8H225S225.1,46.49,225,46.39Z" style="fill:#fff;opacity:0.2"/><path d="M229.56,34.06h12.73a2.28,2.28,0,0,1,2.28,2.28v2.08a0,0,0,0,1,0,0h-17.3a0,0,0,0,1,0,0V36.35A2.28,2.28,0,0,1,229.56,34.06Z" style="fill:#3faa7f"/><text transform="translate(180.36 10.34)" style="font-size:12px;fill:#3faa7f;font-family:Lato-Bold, Lato;font-weight:700">SPIN</text><path d="M147.12,57.35V61a2.11,2.11,0,0,0,.63,1.5l2.3,2.3a2.12,2.12,0,0,0,3,0l2.3-2.3A2.11,2.11,0,0,0,156,61V57.35a2.13,2.13,0,0,0-2.13-2.13h-4.6A2.13,2.13,0,0,0,147.12,57.35Z" style="fill:#ac4d9c"/><path d="M156,79.65V76a2.13,2.13,0,0,0-.63-1.5l-2.3-2.3a2.12,2.12,0,0,0-3,0l-2.3,2.3a2.13,2.13,0,0,0-.63,1.5v3.63a2.13,2.13,0,0,0,2.13,2.13h4.6A2.13,2.13,0,0,0,156,79.65Z" style="fill:#ac4d9c"/><path d="M162.7,64.07h-3.63a2.11,2.11,0,0,0-1.5.63l-2.3,2.3a2.12,2.12,0,0,0,0,3l2.3,2.3a2.11,2.11,0,0,0,1.5.63h3.63a2.13,2.13,0,0,0,2.13-2.13V66.2A2.13,2.13,0,0,0,162.7,64.07Z" style="fill:#ac4d9c"/><path d="M140.4,72.93H144a2.13,2.13,0,0,0,1.5-.63l2.3-2.3a2.12,2.12,0,0,0,0-3l-2.3-2.3a2.13,2.13,0,0,0-1.5-.63H140.4a2.13,2.13,0,0,0-2.13,2.13v4.6A2.13,2.13,0,0,0,140.4,72.93Z" style="fill:#ac4d9c"/><g style="opacity:0.65"><polyline points="171.66 110.16 171.66 115.37 151.55 115.37 151.55 86.76" style="fill:none;stroke:#ac4d9c;stroke-miterlimit:10"/><line x1="161.96" y1="115.37" x2="161.96" y2="130.19" style="fill:none;stroke:#ac4d9c;stroke-miterlimit:10"/></g><g style="opacity:0.45"><polyline points="151.56 29.77 151.56 22.59 236.09 22.59 236.09 29.77" style="fill:none;stroke:#3faa7f;stroke-miterlimit:10"/><line x1="193.83" y1="22.59" x2="193.83" y2="14.08" style="fill:none;stroke:#3faa7f;stroke-miterlimit:10"/><polyline points="200.78 22.59 200.78 69.05 207.11 79.48" style="fill:none;stroke:#3faa7f;stroke-miterlimit:10"/></g><text transform="translate(144.05 141.82)" style="font-size:12px;fill:#ac4d9c;font-family:Lato-Bold, Lato;font-weight:700">M<tspan x="11.16" y="0" style="letter-spacing:-0.0279541015625em">O</tspan><tspan x="20.42" y="0">VE</tspan></text><rect y="44.31" width="14.6" height="14.6" rx="1.33" ry="1.33" style="fill:#ac4d9c"/><rect x="17.61" y="44.31" width="14.6" height="14.6" rx="1.33" ry="1.33" style="fill:#ac4d9c"/><rect x="17.61" y="26.71" width="14.6" height="14.6" rx="1.33" ry="1.33" style="fill:#ac4d9c"/><text transform="translate(20.82 37)" style="font-size:7.824538230895996px;font-family:Lato-Bold, Lato;font-weight:700">W</text><text transform="translate(22.81 54.28)" style="font-size:7.824538230895996px;font-family:Lato-Bold, Lato;font-weight:700">S</text><rect x="61.85" y="44.31" width="14.6" height="14.6" rx="1.33" ry="1.33" style="fill:#3faa7f"/><text transform="translate(66.53 54.42)" style="font-size:7.824538230895996px;font-family:Lato-Bold, Lato;font-weight:700">C</text><rect x="79.45" y="44.31" width="14.6" height="14.6" rx="1.33" ry="1.33" style="fill:#3faa7f"/><text transform="translate(84.34 54.42)" style="font-size:7.824538230895996px;font-family:Lato-Bold, Lato;font-weight:700">Z</text><text transform="translate(4.52 54.28)" style="font-size:7.824538230895996px;font-family:Lato-Bold, Lato;font-weight:700">A</text><rect x="35.21" y="44.31" width="14.6" height="14.6" rx="1.33" ry="1.33" style="fill:#ac4d9c"/><text transform="translate(39.88 54.28)" style="font-size:7.824538230895996px;font-family:Lato-Bold, Lato;font-weight:700">D</text><rect y="105.39" width="14.6" height="14.6" rx="1.33" ry="1.33" style="fill:#3faa7f"/><text transform="translate(5.03 115.5)" style="font-size:7.824538230895996px;font-family:Lato-Bold, Lato;font-weight:700">&lt;</text><rect x="17.61" y="105.39" width="14.6" height="14.6" rx="1.33" ry="1.33" style="fill:#3faa7f"/><text transform="translate(22.64 115.5)" style="font-size:7.824538230895996px;font-family:Lato-Bold, Lato;font-weight:700">&gt;</text><rect x="61.85" y="87.79" width="14.6" height="14.6" rx="1.33" ry="1.33" style="fill:#ac4d9c"/><path d="M67,95.83l1.87-2.52a.38.38,0,0,1,.59,0l1.87,2.52a.36.36,0,0,1-.29.58H67.28A.37.37,0,0,1,67,95.83Z"/><rect x="61.85" y="105.39" width="14.6" height="14.6" rx="1.33" ry="1.33" transform="translate(138.3 225.39) rotate(180)" style="fill:#ac4d9c"/><path d="M71.31,112l-1.87,2.51a.37.37,0,0,1-.59,0L67,112a.37.37,0,0,1,.3-.59H71A.37.37,0,0,1,71.31,112Z"/><rect x="79.45" y="105.39" width="14.6" height="14.6" rx="1.33" ry="1.33" transform="translate(199.45 25.94) rotate(90)" style="fill:#ac4d9c"/><path d="M86,110.53l2.51,1.87a.37.37,0,0,1,0,.59L86,114.86a.37.37,0,0,1-.59-.29v-3.74A.37.37,0,0,1,86,110.53Z"/><rect x="44.24" y="105.39" width="14.6" height="14.6" rx="1.33" ry="1.33" transform="translate(-61.16 164.24) rotate(-90)" style="fill:#ac4d9c"/><path d="M52.28,114.86,49.76,113a.38.38,0,0,1,0-.59l2.52-1.87a.37.37,0,0,1,.58.3v3.74A.36.36,0,0,1,52.28,114.86Z"/></g></g></svg>