<svg xmlns="http://www.w3.org/2000/svg" viewBox="0 0 61.85 40.14"><title>gamepad-body</title><g id="Layer_2" data-name="Layer 2"><g id="Layer_1-2" data-name="Layer 1"><g style="opacity:0.2"><g id="gamepad"><path id="Shape" d="M27.43,23.72h7a7.17,7.17,0,0,1,.7-2.5h-8.5A5.66,5.66,0,0,1,27.43,23.72Zm-1,.5a5.5,5.5,0,1,1-5.5-5.5A5.55,5.55,0,0,1,26.43,24.22Zm-1.5,0a4,4,0,1,0-4,4A4,4,0,0,0,24.93,24.22Zm-1.5-11a11,11,0,0,1-1,4.7,6.29,6.29,0,0,1,3.6,2.3h9.8a6.63,6.63,0,0,1,3.6-2.3,11,11,0,0,1-1-4.7,11.35,11.35,0,0,1,5.1-9.5H18.33A11.35,11.35,0,0,1,23.43,13.22Zm-22,0a10.5,10.5,0,0,1,21,0,9.07,9.07,0,0,1-1,4.5,6.48,6.48,0,0,0-6.77,5.7,10.9,10.9,0,0,1-2.6.3A10.52,10.52,0,0,1,1.43,13.22Zm12.5,3-2-2-2,2v3h4Zm1-5-2,2,2,2h3v-4Zm-5-4v3l2,2,2-2v-3Zm-4,8h3l2-2-2-2h-3Zm6,9.5a11.45,11.45,0,0,1-10.7-7.3L0,33a6.46,6.46,0,0,0,5.2,6.9,6.45,6.45,0,0,0,7.4-4l3.2-7.8a7.33,7.33,0,0,1-1.4-3.8A7.27,7.27,0,0,1,11.93,24.72Zm38-22a10.5,10.5,0,1,1,0,21,11.53,11.53,0,0,1-2.6-.3,6.5,6.5,0,0,0-6.81-5.7,10.71,10.71,0,0,1-1-4.5A10.35,10.35,0,0,1,49.93,2.72Zm2,14.5a2,2,0,1,0-2,2A2,2,0,0,0,51.93,17.22Zm0-4a2,2,0,1,0,2-2A2,2,0,0,0,51.93,13.22Zm-4-4a2,2,0,1,0,2-2A2,2,0,0,0,47.93,9.22Zm-4,4a2,2,0,1,0,2-2A2,2,0,0,0,43.93,13.22Zm2.5,11a5.5,5.5,0,1,1-5.5-5.5A5.55,5.55,0,0,1,46.43,24.22Zm-1.5,0a4,4,0,1,0-4,4A4,4,0,0,0,44.93,24.22ZM61.83,33l-1.2-15.6a11.45,11.45,0,0,1-10.7,7.3,10.68,10.68,0,0,1-2.5-.3,6.31,6.31,0,0,1-1.4,3.8l3.2,7.8a6.56,6.56,0,0,0,7.4,4A6.63,6.63,0,0,0,61.83,33Z" style="fill:#fff"/></g><path d="M6.87,3a11,11,0,0,1,10,0V0h-10S6.91,3,6.87,3Z" style="fill:#fff"/><path d="M45,3A11.06,11.06,0,0,1,55,3V0H45S45,3,45,3Z" style="fill:#fff"/></g></g></g></svg>