<?xml version="1.0" encoding="UTF-8"?>
<svg width="62px" height="46px" viewBox="0 0 62 46" version="1.1" xmlns="http://www.w3.org/2000/svg" xmlns:xlink="http://www.w3.org/1999/xlink">
    <g id="Page-1" stroke="none" stroke-width="1" fill="none" fill-rule="evenodd">
        <g id="gamepad" fill-rule="nonzero" fill="#FFFFFF">
            <path d="M32,9 L30,9 C30,4 34,0 39,0 L45,0 C45.6,0 46,0.4 46,1 C46,1.6 45.6,2 45,2 L39,2 C35.1,2 32,5.1 32,9 Z M27.5,29.5 L27.5,29.5 L34.5,29.5 L34.5,29.5 C34.6,28.6 34.8,27.8 35.2,27 L26.7,27 C27.2,27.8 27.4,28.6 27.5,29.5 Z M26.5,30 C26.5,33 24,35.5 21,35.5 C18,35.5 15.5,33 15.5,30 C15.5,27 18,24.5 21,24.5 C24,24.5 26.5,27 26.5,30 Z M25,30 C25,27.8 23.2,26 21,26 C18.8,26 17,27.8 17,30 C17,32.2 18.8,34 21,34 C23.2,34 25,32.2 25,30 Z M23.5,19 C23.5,20.6 23.2,22.2 22.5,23.7 C24,24 25.2,24.9 26.1,26 L35.9,26 C36.799,24.9 38.099,24 39.5,23.7 C38.8,22.2 38.5,20.6 38.5,19 C38.5,15 40.5,11.6 43.6,9.5 L18.4,9.5 C21.5,11.6 23.5,15 23.5,19 Z M1.5,19 C1.5,13.2 6.2,8.5 12,8.5 C17.8,8.5 22.5,13.2 22.5,19 C22.5,21.851 21.469,23.5 21.469,23.5 C17.577,23.5 15.088,26.104 14.7,29.2 C13.9,29.4 13,29.5 12.1,29.5 C6.2,29.5 1.5,24.8 1.5,19 Z M14,22 L12,20 L10,22 L10,25 L14,25 L14,22 Z M15,17 L13,19 L15,21 L18,21 L18,17 L15,17 Z M10,13 L10,16 L12,18 L14,16 L14,13 L10,13 Z M6,21 L9,21 L11,19 L9,17 L6,17 L6,21 Z M12,30.5 C7.1,30.5 3,27.5 1.3,23.2 L0.1,38.8 C-0.2,42.1 2.1,45.1 5.3,45.7 C8.4,46.4 11.5,44.7 12.7,41.7 L15.9,33.9 C15.1,32.799 14.6,31.5 14.5,30.099 C13.7,30.4 12.8,30.5 12,30.5 Z M50,8.5 C55.8,8.5 60.5,13.2 60.5,19 C60.5,24.8 55.8,29.5 50,29.5 C49.1,29.5 48.3,29.4 47.4,29.2 C47.031,26.253 44.682,23.5 40.593,23.5 C40.593,23.5 39.599,21.59 39.599,19 C39.5,13.2 44.2,8.5 50,8.5 Z M52,23 C52,21.9 51.1,21 50,21 C48.9,21 48,21.9 48,23 C48,24.1 48.9,25 50,25 C51.1,25 52,24.1 52,23 Z M52,19 C52,20.1 52.9,21 54,21 C55.1,21 56,20.1 56,19 C56,17.9 55.1,17 54,17 C52.9,17 52,17.9 52,19 Z M48,15 C48,16.1 48.9,17 50,17 C51.1,17 52,16.1 52,15 C52,13.9 51.1,13 50,13 C48.9,13 48,13.9 48,15 Z M44,19 C44,20.1 44.9,21 46,21 C47.1,21 48,20.1 48,19 C48,17.9 47.1,17 46,17 C44.9,17 44,17.9 44,19 Z M46.5,30 C46.5,33 44,35.5 41,35.5 C38,35.5 35.5,33 35.5,30 C35.5,27 38,24.5 41,24.5 C44,24.5 46.5,27 46.5,30 Z M45,30 C45,27.8 43.2,26 41,26 C38.8,26 37,27.8 37,30 C37,32.2 38.8,34 41,34 C43.2,34 45,32.2 45,30 Z M61.9,38.8 L60.7,23.2 C59,27.5 54.9,30.5 50,30.5 C49.2,30.5 48.3,30.4 47.5,30.2 C47.5,31.599 46.9,33 46.1,34 L49.3,41.8 C50.5,44.8 53.6,46.401 56.7,45.8 C59.9,45.1 62.2,42.1 61.9,38.8 Z" id="Shape"></path>
        </g>
    </g>
</svg>