<svg xmlns="http://www.w3.org/2000/svg" viewBox="0 0 505.08 499.81"><title>green-moon</title><g id="Layer_2" data-name="Layer 2"><g id="Layer_1-2" data-name="Layer 1"><path d="M66.49,88.16s-6.33-1.91-8.53-.84-24.07,31.4-25.25,35.75.58,6.92,2.83,9.37C46.37,111.74,66.49,88.16,66.49,88.16Z" style="fill:#93721f"/><path d="M327.36,487.27s4.41,5,7.25,5.05,45.9-18,50.27-21.53,4.66-6.89,4.42-10.35C363.7,474.8,327.36,487.27,327.36,487.27Z" style="fill:#aa8a30"/><circle cx="255.17" cy="249.9" r="249.9" style="fill:#aa8a30"/><path d="M360.79,29.7a243.38,243.38,0,0,1,23.9,105.49c0,134.88-109.35,244.23-244.23,244.23A243.38,243.38,0,0,1,35,355.52C74.34,437.58,158.2,494.25,255.29,494.25c134.88,0,244.23-109.34,244.23-244.23C499.52,152.93,442.85,69.07,360.79,29.7Z" style="fill:#93721f"/><path d="M128.64,290.14a45.57,45.57,0,0,1,65.83-41,43.9,43.9,0,0,0-61,61.49A45.65,45.65,0,0,1,128.64,290.14Z" style="fill:#93721f"/><path d="M215.79,71c0-18.67,17.69-33.81,39.52-33.81a43.15,43.15,0,0,1,27.28,9.35c-7.14-8.81-19-14.59-32.52-14.59-21.83,0-39.52,15.13-39.52,33.81,0,9.62,4.7,18.3,12.25,24.45A30.35,30.35,0,0,1,215.79,71Z" style="fill:#93721f"/><path d="M69.69,339.59c-3.68-7.87-2.59-16.14,2.41-18.48,3.59-1.67,8.21.17,11.9,4.23-3.88-6.08-9.8-9.25-14.18-7.21-5,2.33-6.09,10.61-2.42,18.47a23.28,23.28,0,0,0,3.82,5.79A24.18,24.18,0,0,1,69.69,339.59Z" style="fill:#93721f"/><path d="M379.8,334.58c7.56-10.48,19.77-15,29.2-11.46a16.94,16.94,0,0,0-1.52-1.26c-9.13-6.58-23.19-2.68-31.41,8.71-7.4,10.26-7.52,23.08-.81,30.34C372.24,353.19,373.67,343.06,379.8,334.58Z" style="fill:#aa8a30"/><ellipse cx="274.47" cy="390.66" rx="31.67" ry="27.53" transform="translate(-54.27 44.43) rotate(-8.42)" style="fill:#aa8a30"/><ellipse cx="279.17" cy="394.15" rx="31.17" ry="25.14" transform="translate(-81.37 72.75) rotate(-12.98)" style="fill:#93721f"/><ellipse cx="323.44" cy="317.53" rx="31.67" ry="27.53" transform="translate(-43.03 50.81) rotate(-8.42)" style="fill:#aa8a30"/><path d="M204.78,464.63c.94-12.92,18.51-22.17,39.25-20.67,12.72.92,23.66,5.68,30,12.2-4.16-9.51-17.5-17.12-33.82-18.31-20.32-1.47-37.53,7.6-38.45,20.26a16.37,16.37,0,0,0,3.31,10.77A15.11,15.11,0,0,1,204.78,464.63Z" style="fill:#aa8a30"/><path d="M179.84,415c.82-8.26,12.24-13.89,25.51-12.57,7.78.77,14.46,3.77,18.49,7.77-2.35-6.46-11.08-11.88-22-13-13.26-1.32-24.68,4.31-25.51,12.58-.34,3.42,1.2,6.75,4,9.58A10,10,0,0,1,179.84,415Z" style="fill:#aa8a30"/><path d="M125.51,436.1c2.51-4.82,11.88-4.91,20.92-.19a31.81,31.81,0,0,1,7,4.89,27.32,27.32,0,0,0-10.74-9.38c-9-4.71-18.4-4.62-20.91.2-1.77,3.38.31,8.18,4.82,12.37C124.86,441.13,124.36,438.31,125.51,436.1Z" style="fill:#aa8a30"/><path d="M63.65,127.12c10.38-15.86,24.17-26.28,35-27.6-10.36-5.33-28.39,5.41-41,24.74-13.07,20-15.43,41.58-5.27,48.22a9.91,9.91,0,0,0,1.23.69C48.51,163.18,52.23,144.58,63.65,127.12Z" style="fill:#93721f"/><path d="M98.94,152.87C87.38,173.15,71.22,187,58,189.42c13.13,5.79,34.48-8.78,48.57-33.5,14.57-25.55,15.85-52.28,2.87-59.7a13.93,13.93,0,0,0-1.56-.75C114.84,107.38,111.67,130.54,98.94,152.87Z" style="fill:#93721f"/><path d="M152.54,45.94c10.11-6.6,21-8.11,25.21-3.73a6.29,6.29,0,0,0-.86-2.05C173.32,34.69,161.71,36,151,43s-16.59,17.15-13,22.62a6.71,6.71,0,0,0,.74.93C137.35,60.82,143,52.16,152.54,45.94Z" style="fill:#93721f"/><path d="M169.89,68.53c-13,9-27.39,11.78-33.44,6.85a7.28,7.28,0,0,0,1.32,2.41c5.23,6.32,20.69,3.73,34.51-5.8s20.78-22.37,15.55-28.69a7.66,7.66,0,0,0-1.07-1.06C189,49.05,182.14,60.09,169.89,68.53Z" style="fill:#93721f"/><path d="M214.65,260.15a51.43,51.43,0,0,1-69,69.49,49.17,49.17,0,0,0,69-69.49Z" style="fill:#93721f"/><path d="M293.1,40.31a46.21,46.21,0,0,1,5.44,21.77c0,26.35-22.12,47.72-49.4,47.72a50.48,50.48,0,0,1-22.37-5.18A48,48,0,0,0,257,115.18c26.05,0,47.17-20.4,47.17-45.58A44.51,44.51,0,0,0,293.1,40.31Z" style="fill:#93721f"/><path d="M404,285.94c-9-21.87-1.3-49.65,17.21-62a33.77,33.77,0,0,1,16.58-5.85,31.32,31.32,0,0,0-21.69,5.43c-17.8,11.9-25.2,38.59-16.55,59.61,3.43,8.33,8.87,14.51,15.29,18.21A40,40,0,0,1,404,285.94Z" style="fill:#aa8a30"/><path d="M445.1,231.67a31,31,0,0,1,8.63,12.1c7,17,1,38.51-13.35,48.12a26.12,26.12,0,0,1-13.15,4.55,23.89,23.89,0,0,0,18.69-3.83c13.72-9.18,19.43-29.76,12.75-46C455.72,239.46,450.82,234.35,445.1,231.67Z" style="fill:#aa8a30"/><path d="M23.18,273.67c-4.73-17,1.13-36.11,13.09-42.77a17,17,0,0,1,10.49-2.17A16.2,16.2,0,0,0,33.11,230c-11.48,6.4-17.11,24.8-12.57,41.1a31.68,31.68,0,0,0,8.76,15.09A35.64,35.64,0,0,1,23.18,273.67Z" style="fill:#93721f"/><path d="M58.4,230.79a40,40,0,0,1,7.09,14.29c5.32,19.12-1.28,40.7-14.75,48.21a19.21,19.21,0,0,1-12.1,2.4,18.16,18.16,0,0,0,17-.65c12.86-7.17,19.17-27.78,14.08-46C67.52,240.91,63.4,234.64,58.4,230.79Z" style="fill:#93721f"/><path d="M96.46,333.49a32.31,32.31,0,0,0-5.27-8,34,34,0,0,1,2.12,3.87c5.06,10.86,3.57,22.27-3.34,25.49-5,2.31-11.33-.22-16.41-5.83,5.34,8.4,13.52,12.77,19.56,10C100,355.76,101.52,344.35,96.46,333.49Z" style="fill:#93721f"/><ellipse cx="332.19" cy="324.01" rx="33.08" ry="28.76" transform="translate(-43.88 52.16) rotate(-8.42)" style="fill:#93721f"/><path d="M345.08,131a38.76,38.76,0,0,1,9.4,16.7c5.31,19.46-5,39.12-23,43.9a31.82,31.82,0,0,1-17.9-.48,31.39,31.39,0,0,0,22.31,2.46c17.52-4.66,27.54-23.78,22.38-42.71A37.39,37.39,0,0,0,345.08,131Z" style="fill:#93721f"/><ellipse cx="326.54" cy="159.3" rx="38.55" ry="41.73" transform="translate(-32.64 104.55) rotate(-17.34)" style="fill:none"/><path d="M298.62,166.72c-4.53-16.66,4.28-33.48,19.7-37.58a27.06,27.06,0,0,1,11.44-.53,25.81,25.81,0,0,0-16.4-1.11c-14.5,3.85-22.8,19.68-18.53,35.35a31.16,31.16,0,0,0,9.15,15A33.47,33.47,0,0,1,298.62,166.72Z" style="fill:#93721f"/><path d="M160.6,164.32a30,30,0,0,1-41,41,29.16,29.16,0,0,0,41-41Z" style="fill:#93721f"/><circle cx="138.1" cy="182.86" r="34.24" style="fill:none"/><path d="M112.45,182.86A25.67,25.67,0,0,1,148,159.2a24.12,24.12,0,0,0-33.58,33.59A25.45,25.45,0,0,1,112.45,182.86Z" style="fill:#93721f"/><path d="M214.33,195.3a22,22,0,0,1-30.1,30.1,21.38,21.38,0,0,0,30.1-30.1Z" style="fill:#93721f"/><circle cx="197.83" cy="208.89" r="25.11" style="fill:none"/><path d="M179,208.89a18.83,18.83,0,0,1,26.1-17.35,17.7,17.7,0,0,0-24.64,24.64A18.78,18.78,0,0,1,179,208.89Z" style="fill:#93721f"/><path d="M351.59,311.9a19.34,19.34,0,0,0-1.71-1.68c4.94,8.77,1.78,20.82-8.09,28.51-8.35,6.51-19.11,8-27.25,4.63,7.83,7,21.4,6.62,31.38-1.16C356.55,333.92,359.09,320.35,351.59,311.9Z" style="fill:#aa8a30"/><ellipse cx="386.87" cy="94.68" rx="21.87" ry="29.42" transform="matrix(1, -0.03, 0.03, 1, -2.83, 12.41)" style="fill:#aa8a30"/><ellipse cx="394.73" cy="92.22" rx="22.84" ry="30.73" transform="translate(-2.74 12.66) rotate(-1.83)" style="fill:#93721f"/><path d="M394.8,70.44a10.8,10.8,0,0,0-1.81.24c7.79,1.75,14.38,11.5,15.35,23.52.81,10.17-2.63,19-8.22,23,7.81-1.49,13.17-11.72,12.2-23.87C411.28,80.34,403.43,70.11,394.8,70.44Z" style="fill:#aa8a30"/><path d="M335.24,267.2s8.49-7.74,12.13-16.34c5.9-7.08,10.86-14,10.65-19.63a72.57,72.57,0,0,0,6.65-18.75c.29-1.22-6.66,13.81-9.6,17.11-1.24,6.8-6.77,16.17-10.63,19.16C342.09,254.55,335.24,267.2,335.24,267.2Z" style="fill:#93721f"/><path d="M377.61,235.24s6.6-9.4,8.29-18.59c4.22-8.19,7.56-16,6.13-21.47a72.47,72.47,0,0,0,2.42-19.74c0-1.26-3.51,14.92-5.66,18.78.27,6.9-3.09,17.26-6.21,21C381.54,221.4,377.61,235.24,377.61,235.24Z" style="fill:#aa8a30"/><path d="M303.38,282.75s9.69-6.18,14.75-14c7-6,13.1-12,13.85-17.52a72.18,72.18,0,0,0,9.76-17.33c.49-1.16-8.93,12.46-12.39,15.21-2.38,6.49-9.44,14.78-13.75,17.06C312.29,271.45,303.38,282.75,303.38,282.75Z" style="fill:#93721f"/><path d="M179.67,367.27s11.48-.47,19.8-4.71c9.07-1.64,17.33-3.76,20.77-8.2a72.15,72.15,0,0,0,17.15-10.08c1-.75-14,6.29-18.36,6.93-5.31,4.41-15.58,8-20.45,7.84C193.05,362,179.67,367.27,179.67,367.27Z" style="fill:#93721f"/><path d="M111.35,385.64s10.88,3.68,20.17,2.71c9,1.73,17.52,2.72,22.33-.19a72.33,72.33,0,0,0,19.62-3.25c1.21-.34-15.3.85-19.61-.12-6.55,2.21-17.43,1.9-21.91,0C125.74,385.51,111.35,385.64,111.35,385.64Z" style="fill:#aa8a30"/><path d="M84,388s9.83,5.95,19.1,7c8.47,3.66,16.52,6.46,21.84,4.66a72.34,72.34,0,0,0,19.87,1.08c1.25-.07-15.13-2.49-19.13-4.37-6.86.74-17.43-1.92-21.38-4.78C98.08,391,84,388,84,388Z" style="fill:#aa8a30"/><path d="M18,178.07s-7.45,1.31-9.21,3.94S-.81,235.49.07,241.62,4,250,7.52,251.7C10.15,242.94,18,178.07,18,178.07Z" style="fill:#aa8a30"/><path d="M18.72,181.7s-6.55,1.19-8.09,3.58-8.46,48.56-7.69,54.13S6.4,247,9.48,248.57C10.51,219.24,18.72,181.7,18.72,181.7Z" style="fill:#93721f"/><ellipse cx="253.45" cy="308.97" rx="12.49" ry="12.18" style="fill:#93721f"/><ellipse cx="295.01" cy="434.83" rx="12.49" ry="8.79" transform="translate(-177.89 205.76) rotate(-30)" style="fill:#aa8a30"/><ellipse cx="378.22" cy="298.05" rx="12.49" ry="11.61" transform="translate(-98.35 229.04) rotate(-30)" style="fill:#aa8a30"/><ellipse cx="380.38" cy="272.07" rx="5.27" ry="4.9" transform="matrix(0.87, -0.5, 0.5, 0.87, -85.07, 226.64)" style="fill:#aa8a30"/><ellipse cx="91.56" cy="254.76" rx="7.84" ry="10.64" style="fill:#93721f"/><ellipse cx="113.5" cy="363.06" rx="6.02" ry="8.32" transform="translate(-263.81 314.75) rotate(-65.34)" style="fill:#93721f"/></g></g></svg>