<svg xmlns="http://www.w3.org/2000/svg" viewBox="0 0 362.3 362.3"><title>happy-moon</title><g id="Layer_2" data-name="Layer 2"><g id="Layer_1-2" data-name="Layer 1"><circle cx="181.15" cy="181.15" r="181.15" style="fill:#5b4f5b"/><path d="M262.43,26.93a174.42,174.42,0,0,1-235.5,235.5,174.42,174.42,0,1,0,235.5-235.5Z" style="fill:#3a303a"/><ellipse cx="300.1" cy="130.19" rx="22.96" ry="28.1" transform="translate(-12.95 35.27) rotate(-6.58)" style="fill:#230422"/><ellipse cx="119.3" cy="179.41" rx="31.35" ry="34.25" transform="translate(-25.97 20.3) rotate(-8.77)" style="fill:#230422"/><path d="M144,178.09a27.28,27.28,0,0,1-.3,10c-11,2-27.62,6.87-35.49,14.12a26.3,26.3,0,0,1-10-17.07c-2.14-13.81,6.38-26.59,19-28.54S141.89,164.29,144,178.09Z" style="fill:#440c44"/><path d="M319.59,134.74a26.83,26.83,0,0,1-.84,5.69c-14.48-2.39-22.15,3.51-30.34,5.64a25.3,25.3,0,0,1-2.73-12.68c.47-11.8,8.44-21.07,17.8-20.7S320.06,122.93,319.59,134.74Z" style="fill:#440c44"/><path d="M156.06,189.87s-37.94,7.65-54.2,22.06c2.46,2.7,11.82,11.25,11.82,11.25s36.46-21.15,45.82-22.5C156.06,194.37,156.06,189.87,156.06,189.87Z" style="fill:#5b4f5b"/><path d="M280.05,156.38s25.95-13.65,43.81-11.89c.25,3.08.17,13.59.17,13.59s-33.3,3.67-39.38,7.4A26.69,26.69,0,0,0,280.05,156.38Z" style="fill:#3a303a"/><path d="M121.6,246.7s5.34,26.66,16,44a25.9,25.9,0,0,0,10-4.67S132.27,264.7,121.6,246.7Z" style="fill:#3a303a"/><path d="M137.28,271.1s10.8,13.47,18.26,22.33c6.13,7.28,34.39,32.35,57.27,32.09,27-.3,45.4-13.4,53.09-21.63,12-15.68,13.28-38.75,13.28-38.75l-130.47-8Z" style="fill:#5b4f5b"/><path d="M214.22,210s45.78-2.54,83.39-27.89C252.62,236.34,211,241,211,241Z" style="fill:#5b4f5b"/><path d="M305.23,173.15S248,249.31,127.48,229.8c3.51,12.74,53.25,97.42,96.8,87,57.6-13.74,69.2-90.41,74-128.39A25.78,25.78,0,0,0,305.23,173.15Z" style="fill:#230422"/><path d="M164,272.86s28.8,38.82,54.15,35.41c19.16-2.58,44.15-16.61,58.72-56C262.4,245,237.6,245,230.65,248.65s-10.68,6.89-14.52,9.71c8,3.21,13.1,6.73,18.51,12.86-7.86-2.79-23.14-13-28.26-13.35s-18.33-4.43-29.57.39S164,272.86,164,272.86Z" style="fill:#440840"/><path d="M257.53,70.34s-64.1-7.27-147,33.3c-15.09,10.24-16.78,19.74-16.78,19.74s48.83-24.63,83.33-31.84c45.54-9.52,117.7-14.13,117.7-14.13S285.18,71.41,257.53,70.34Z" style="fill:#3a303a"/><path d="M223.39,47s-28.53-2.82-74.33,12.2c-9.46,4.49-17.78,15.06-17.78,15.06S159.55,63.22,180,58.94c27-5.65,65.09-6.55,65.09-6.55S238.5,47.47,223.39,47Z" style="fill:#3a303a"/><ellipse cx="106.66" cy="167.78" rx="12.51" ry="10.1" transform="matrix(0.6, -0.8, 0.8, 0.6, -91.56, 152.4)" style="fill:#b550b5;opacity:0.6"/><ellipse cx="292.05" cy="118.55" rx="10.15" ry="7.87" transform="translate(21.95 281.01) rotate(-53.12)" style="fill:#b550b5;opacity:0.6"/></g></g></svg>