<?xml version="1.0" encoding="UTF-8"?>
<svg width="31px" height="15px" viewBox="0 0 31 15" version="1.1" xmlns="http://www.w3.org/2000/svg" xmlns:xlink="http://www.w3.org/1999/xlink">
    <!-- Generator: Sketch 43.2 (39069) - http://www.bohemiancoding.com/sketch -->
    <title>Shape</title>
    <desc>Created with Sketch.</desc>
    <defs></defs>
    <g id="Page-1" stroke="none" stroke-width="1" fill="none" fill-rule="evenodd">
        <path d="M0.5,0 C0.2,0 0,0.2 0,0.5 L0,14.5 C0,14.8 0.2,15 0.5,15 L30.5,15 C30.8,15 31,14.8 31,14.5 L31,0.5 C31,0.2 30.8,0 30.5,0 L0.5,0 Z M2.188,2 L3.688,2 C3.888,2 4.001,2.112 4.001,2.313 L4.001,3.813 C4.001,3.913 3.914,4.001 3.813,4.001 L2.188,4.001 C2.088,4.001 2,3.914 2,3.813 L2,2.313 C2,2.113 2.087,2 2.188,2 L2.188,2 Z M5.188,2 L6.688,2 C6.888,2 7.001,2.112 7.001,2.313 L7.001,3.813 C7.001,3.913 6.913,4.001 6.813,4.001 L5.188,4.001 C5.088,4.001 5,3.914 5,3.813 L5,2.313 C5,2.113 5.088,2 5.188,2 Z M8.188,2 L9.688,2 C9.888,2 10.001,2.112 10.001,2.313 L10.001,3.813 C10.001,3.913 9.913,4.001 9.813,4.001 L8.188,4.001 C8.088,4.001 8,3.914 8,3.813 L8,2.313 C8,2.113 8.088,2 8.188,2 Z M11.188,2 L12.688,2 C12.888,2 13.001,2.112 13.001,2.313 L13.001,3.813 C13.001,3.913 12.913,4.001 12.813,4.001 L11.313,4.001 C11.113,4.001 11,3.914 11,3.813 L11,2.313 C11,2.113 11.088,2 11.188,2 Z M14.188,2 L15.688,2 C15.888,2 16.001,2.112 16.001,2.313 L16.001,3.813 C16.001,3.913 15.913,4.001 15.813,4.001 L14.313,4.001 C14.113,4.001 14,3.914 14,3.813 L14,2.313 C14,2.113 14.088,2 14.188,2 L14.188,2 Z M17.188,2 L18.688,2 C18.888,2 19.001,2.112 19.001,2.313 L19.001,3.813 C19.001,3.913 18.914,4.001 18.813,4.001 L17.313,4.001 C17.113,4.001 17,3.914 17,3.813 L17,2.313 C17,2.113 17.087,2 17.188,2 Z M20.188,2 L21.688,2 C21.888,2 22.001,2.112 22.001,2.313 L22.001,3.813 C22.001,3.913 21.914,4.001 21.813,4.001 L20.313,4.001 C20.113,4.001 20,3.914 20,3.813 L20,2.313 C20,2.113 20.087,2 20.188,2 Z M23.188,2 L24.688,2 C24.888,2 25.001,2.112 25.001,2.313 L25.001,3.813 C25.001,3.913 24.914,4.001 24.813,4.001 L23.313,4.001 C23.113,4.001 23,3.914 23,3.813 L23,2.313 C23,2.113 23.087,2 23.188,2 Z M26.188,2 L28.688,2 C28.888,2 29.001,2.112 29.001,2.313 L29.001,3.813 C29.001,3.913 28.914,4.001 28.813,4.001 L26.313,4.001 C26.113,4.001 26,3.914 26,3.813 L26,2.313 C26,2.113 26.087,2 26.188,2 Z M2.188,5 L4.688,5 C4.888,5 5.001,5.088 5.001,5.188 L5.001,6.688 C5.001,6.888 4.913,7.001 4.813,7.001 L2.188,7.001 C2.088,7.001 2,6.913 2,6.813 L2,5.188 C2,5.088 2.087,5 2.188,5 Z M6.188,5 L7.688,5 C7.888,5 8.001,5.088 8.001,5.188 L8.001,6.688 C8.001,6.888 7.913,7.001 7.813,7.001 L6.188,7.001 C6.088,7.001 6,6.913 6,6.813 L6,5.188 C6,5.088 6.088,5 6.188,5 L6.188,5 Z M9.188,5 L10.688,5 C10.888,5 11.001,5.088 11.001,5.188 L11.001,6.688 C11.001,6.888 10.913,7.001 10.813,7.001 L9.188,7.001 C9.088,7.001 9,6.913 9,6.813 L9,5.188 C9,5.088 9.088,5 9.188,5 Z M12.188,5 L13.688,5 C13.888,5 14.001,5.088 14.001,5.188 L14.001,6.688 C14.001,6.888 13.913,7.001 13.813,7.001 L12.313,7.001 C12.113,7.001 12,6.913 12,6.813 L12,5.188 C12,5.088 12.088,5 12.188,5 Z M15.188,5 L16.688,5 C16.888,5 17.001,5.088 17.001,5.188 L17.001,6.688 C17.001,6.888 16.914,7.001 16.813,7.001 L15.313,7.001 C15.113,7.001 15,6.913 15,6.813 L15,5.188 C15,5.088 15.088,5 15.188,5 Z M18.188,5 L19.688,5 C19.888,5 20.001,5.088 20.001,5.188 L20.001,6.688 C20.001,6.888 19.914,7.001 19.813,7.001 L18.313,7.001 C18.113,7.001 18,6.913 18,6.813 L18,5.188 C18,5.088 18.087,5 18.188,5 Z M21.188,5 L22.688,5 C22.888,5 23.001,5.088 23.001,5.188 L23.001,6.688 C23.001,6.888 22.914,7.001 22.813,7.001 L21.313,7.001 C21.113,7.001 21,6.913 21,6.813 L21,5.188 C21,5.088 21.087,5 21.188,5 Z M24.188,5 L25.688,5 C25.888,5 26.001,5.088 26.001,5.188 L26.001,6.688 C26.001,6.888 25.914,7.001 25.813,7.001 L24.313,7.001 C24.113,7.001 24,6.913 24,6.813 L24,5.188 C24,5.088 24.087,5 24.188,5 Z M27.188,5 L28.688,5 C28.888,5 29.001,5.088 29.001,5.188 L29.001,6.813 C29.001,6.913 28.914,7.001 28.813,7.001 L27.313,7.001 C27.113,7.001 27,6.913 27,6.813 L27,5.188 C27,5.088 27.087,5 27.188,5 Z M2.188,8 L5.688,8 C5.888,8 6.001,8.088 6.001,8.188 L6.001,9.688 C6.001,9.888 5.913,10.001 5.813,10.001 L2.188,10.001 C2.088,10.001 2,9.913 2,9.813 L2,8.188 C2,8.088 2.087,8 2.188,8 Z M7.188,8 L8.688,8 C8.888,8 9.001,8.088 9.001,8.188 L9.001,9.688 C9.001,9.888 8.913,10.001 8.813,10.001 L7.188,10.001 C7.088,10.001 7,9.913 7,9.813 L7,8.188 C7,8.088 7.088,8 7.188,8 Z M10.188,8 L11.688,8 C11.888,8 12.001,8.088 12.001,8.188 L12.001,9.688 C12.001,9.788 11.913,9.907 11.813,9.907 L10.313,9.907 C10.113,10.007 10,9.913 10,9.813 L10,8.188 C10,8.088 10.088,8 10.188,8 Z M13.188,8 L14.688,8 C14.888,8 15.001,8.088 15.001,8.188 L15.001,9.688 C15.001,9.788 14.913,9.907 14.813,9.907 L13.313,9.907 C13.113,10.007 13,9.913 13,9.813 L13,8.188 C13,8.088 13.088,8 13.188,8 Z M16.188,8 L17.688,8 C17.888,8 18.001,8.088 18.001,8.188 L18.001,9.688 C18.001,9.788 17.914,9.907 17.813,9.907 L16.313,9.907 C16.113,10.007 16,9.913 16,9.813 L16,8.188 C16,8.088 16.087,8 16.188,8 Z M19.188,8 L20.688,8 C20.888,8 21.001,8.088 21.001,8.188 L21.001,9.688 C21.001,9.788 20.914,9.907 20.813,9.907 L19.313,9.907 C19.113,10.007 19,9.913 19,9.813 L19,8.188 C19,8.088 19.087,8 19.188,8 Z M22.188,8 L23.688,8 C23.888,8 24.001,8.088 24.001,8.188 L24.001,9.688 C24.001,9.888 23.914,10.001 23.813,10.001 L22.313,10.001 C22.113,10.001 22,9.913 22,9.813 L22,8.188 C22,8.088 22.087,8 22.188,8 Z M25.188,8 L28.688,8 C28.888,8 29.001,8.088 29.001,8.188 L29.001,9.813 C29.001,9.913 28.914,10.001 28.813,10.001 L25.313,10.001 C25.113,10.001 25,9.913 25,9.813 L25,8.188 C25,8.088 25.087,8 25.188,8 Z M2.188,11 L3.688,11 C3.888,11 4.001,11.088 4.001,11.188 L4.001,12.813 C4.001,12.913 3.914,13.001 3.813,13.001 L2.188,13.001 C2.088,13.001 2,12.913 2,12.813 L2,11.313 C2,11.113 2.087,11 2.188,11 L2.188,11 Z M5.188,11 L6.688,11 C6.888,11 7.001,11.088 7.001,11.188 L7.001,12.813 C7.001,12.913 6.913,13.001 6.813,13.001 L5.188,13.001 C5.088,13.001 5,12.913 5,12.813 L5,11.313 C5,11.113 5.088,11 5.188,11 Z M8.188,11 L22.688,11 C22.788,11 22.907,11.088 22.907,11.188 L22.907,12.813 L23.001,12.813 C23.001,12.913 22.914,13.001 22.813,13.001 L8.188,13.001 C8.088,13.001 8,12.913 8,12.813 L8,11.313 C8,11.113 8.088,11 8.188,11 L8.188,11 Z M24.313,11.094 L25.813,11.094 C25.913,11.094 26.001,11.213 26.001,11.313 L26.001,12.813 C26.001,12.913 25.914,13.001 25.813,13.001 L24.313,13.001 C24.213,13.001 24.094,12.913 24.094,12.813 L24.094,11.313 C24.094,11.213 24.213,11.094 24.313,11.094 Z M27.313,11.094 L28.813,11.094 C28.913,11.094 29.001,11.213 29.001,11.313 L29.001,12.813 C29.001,12.913 28.914,13.001 28.813,13.001 L27.313,13.001 C27.213,13.001 27.094,12.913 27.094,12.813 L27.094,11.313 C27.094,11.213 27.213,11.094 27.313,11.094 Z" id="Shape" fill="#FFFFFF" fill-rule="nonzero"></path>
    </g>
</svg>