<svg xmlns="http://www.w3.org/2000/svg" viewBox="0 0 57.98 57.98"><title>mine_1</title><g id="Layer_2" data-name="Layer 2"><g id="Layer_1-2" data-name="Layer 1"><ellipse cx="28.86" cy="28.7" rx="23.83" ry="23.95" style="fill:#a0a0a0"/><ellipse cx="28.86" cy="25.31" rx="17.62" ry="17.7" style="fill:#848484"/><ellipse cx="28.86" cy="21.9" rx="6.7" ry="6.73" style="fill:#a31f00"/><polygon points="5.93 32.92 0 28.99 5.93 25.06 5.93 32.92" style="fill:#a0a0a0"/><polygon points="52.05 25.06 57.98 28.99 52.05 32.92 52.05 25.06" style="fill:#a0a0a0"/><polygon points="25.06 5.93 28.99 0 32.92 5.93 25.06 5.93" style="fill:#a0a0a0"/><polygon points="32.92 52.05 28.99 57.98 25.06 52.05 32.92 52.05" style="fill:#a0a0a0"/><polygon points="9.91 15.46 8.49 8.49 15.46 9.91 9.91 15.46" style="fill:#a0a0a0"/><polygon points="48.07 42.52 49.49 49.49 42.52 48.07 48.07 42.52" style="fill:#a0a0a0"/><polygon points="15.46 48.07 8.49 49.49 9.91 42.52 15.46 48.07" style="fill:#a0a0a0"/><polygon points="42.52 9.91 49.49 8.49 48.07 15.46 42.52 9.91" style="fill:#a0a0a0"/></g></g></svg>