<svg xmlns="http://www.w3.org/2000/svg" viewBox="0 0 254.53 273.18"><title>paddle-guy</title><g id="Layer_2" data-name="Layer 2"><g id="Layer_1-2" data-name="Layer 1"><path d="M48.66,205.52q4.89,28.72,9.77,57.45l19.81,10.21q-3.72-29.88-7.46-59.75Z" style="fill:#fff"/><path d="M48.66,205.52l172.7-56.89,17.54,3.18q-84.06,30.83-168.12,61.62Z" style="fill:#fff"/><path d="M78.24,273.18l163-71q-1.19-25.2-2.36-50.39-84.06,30.83-168.12,61.62Q74.51,243.3,78.24,273.18Z" style="fill:#e8e8e8"/><path d="M195.21,69.61c3.21-3.9,5.82-5.35,11-5.86a19.59,19.59,0,0,1,12.68,3.19,11.38,11.38,0,0,1,4.34,5.72,21.31,21.31,0,0,1,2.59-1,6.6,6.6,0,0,1,.3-3.12c.22-3.64-.88-6.24-2.21-9.55-.69-1.71-1.44-3.77-2.09-5.39s-1.21-1.89-2.78-1.6a32.82,32.82,0,0,1-8.71.8c-3-.25-5.89-.74-8.76-.08-1.57.36-2.45,1.61-3.9,2.1a9,9,0,0,1-4.22.59c-1.65-.16-4.08-.54-5.21-2-.87-1.08-.61-2.82-.75-3.91-.2-1.6.82-2.38,1-3.78s-.5-2.71-.2-4.09a29,29,0,0,0,.25-4.24,25.13,25.13,0,0,1,.49-4A5.2,5.2,0,0,1,191,30a10.38,10.38,0,0,1,2.56-1.8,16.5,16.5,0,0,1,8-.63,47,47,0,0,1,11.29,2.51c2.6,1,5.06,2.27,7.62,3.44a41,41,0,0,1,4.3,2.14,4.6,4.6,0,0,1,.58.47c3.34,1,6.89,6.73,8.66,8.72,4.1,4.6,7.3,7,10.69,11.65,5.64,7.74,9.8,16.3,9.66,26.08a9.69,9.69,0,0,1-5.12,8.84c-3.35,1.69-6.4,2.43-9.73,4.78-2.27,1.59-3.2,2.66-6.6,4.42-4.15,2.15-11.62,6.72-16.32,8.59-2.24.9,1.27,0-2.17.6s-13.7,1.57-18.44,2.29c-6-6.16-11.52-12.32-17.34-18.48q-1.74-10.71-3.51-21.43C180.61,64.21,187.67,64.83,195.21,69.61Zm32-32.25-1-.53A3,3,0,0,0,227.18,37.36Z" style="fill:#fcc21b"/><path d="M187.78,45.9a71.28,71.28,0,0,1,.31-10.42c.39-3.19,2.26-6.73,6.1-7.55-1,.54-1.78.58-2.49,1.76s-.56,3.63-.8,5.05c-.12.75-.23,1.84-.26,2.37,0,.76-.07,1.91-.09,2.33-.05,1.52-.1,4.11-.1,5s0,.21.07.57,0,.18.22.42a1,1,0,0,0,.83.44,1.3,1.3,0,0,0,1.53-.83,22.71,22.71,0,0,0,.45-3.54c.07-1.4.24-3.48.37-4.41s.23-.78.63-1.11a.94.94,0,0,1,1.36.17c.32.45.45.32.39,1.44s-.62,6.87-.64,7.67c0,1.52.32,1.37,1,1.47s1.19.6,1.6-.91.79-5.88,1-8c0-.06,0,0,0-.14s.23-.76.61-.95a1.38,1.38,0,0,1,1.38.17,1.6,1.6,0,0,1,.42,1.31c-.21,1.73-1,7.08-1,7.93-.11,1.74.27,1.3.94,1.54s1.15.46,1.6-.81,1.24-6.62,1.5-7.87.31-.76.74-1.12a.9.9,0,0,1,1.35.3c.25.49.39.38.26,1.48s-1.17,6.82-1.26,7.62c-.17,1.53.17,1.42.85,1.61s1.13.77,1.73-.7a80.53,80.53,0,0,0,1.94-7.94c2,1.32,1.83,2.75,1.81,5.07a5.73,5.73,0,0,0,2,4.26,3.29,3.29,0,0,0,2.61.37,5.83,5.83,0,0,0,1-.39c.23-.08.07-.06.17-.1s0,0,0,0c.65-.24,1.33-.67,1.94-.94a1.69,1.69,0,0,1,1.71,0,2,2,0,0,1,1.24,1.4c1.56,5,3.13,9.32,4.62,14.94.24.89-.72,5.74-.48,7.31a13.72,13.72,0,0,0-3.67.51c-.56-1.82-1.72-2.89-2.7-4.45a6.45,6.45,0,0,1,2.7-4.27l-3.48-10.27a30.16,30.16,0,0,1-16.32,1.74c-3.14,3.33-7.53,2.95-11.74,2.39l-.27-.08a6.74,6.74,0,0,1-4.22-3.07C185.75,51.34,187,49,187.78,45.9Zm2.13,5.29a4.34,4.34,0,0,0,.56.81,4.4,4.4,0,0,0,1.72.88c.91.22,3.39.64,3.75.64,1.37,0,2.14-.21,2.3-1.25s.39-1.78-1-2.46-4.89-1.3-6.67-1.74l-.73-.16A5.41,5.41,0,0,0,189.91,51.19Z" style="fill:#e48c15"/><path d="M202.24,108.71c12.52-1.31,23.39-2,32.3-11.76,4-1.78,11.36-4.78,14.31-6.86,4.26-3,4.3-6.15,5.68-10.14-1,6-1,10.07-5.94,15.06-2.16,2.18-9.7,5.31-13.23,6.55-11,10.59-21,11.26-35.59,10.26C200.23,110.44,201.66,109.78,202.24,108.71Z" style="fill:#e48c15"/><path d="M120.65,183.06c12.42,5.35,31,4.35,44.29-.08,9.92-3.3,23.92-12.35,22.78-21.06-.57-4.4-5.55-4.59-9.69-4-7.29,1.07-24.27,4.37-32.68,7.62-6.84,2.64-25.33,5.54-25.16,12.26A37.84,37.84,0,0,0,120.65,183.06Z" style="fill:#fff"/><path d="M136.55,181c14.65,1.39,32.45-4.59,44-15.08,4.33-10.57,5.81-21.67,6-32.73,4.51-5.61,6.23-5.86,10-13.88,2.78-5.94,7-14.28,2.5-23.78s-10.67-20.59-24.59-18.31-31-4.22-45.4.27S92.67,88.39,82.45,98.28s-10,27.53-2.23,34.38S92.54,139.54,96.56,148A168.67,168.67,0,0,0,118,159.32C120.86,170.61,121.91,179.57,136.55,181Z" style="fill:#fcc21b"/><path d="M169.1,41.81,175.86,43a37.52,37.52,0,0,1,4,14.25c.29,7.4-2.2,8.47-2.2,8.47l-4.56,1.48Z" style="fill:#e8e8e8"/><path d="M148.14,37.59c6.53.39,17.69,1.2,22.41,11.11,2.94,6.17,8.54,21.47,7,30.66S164.09,98.91,154.7,97s-42.43,4.62-42.42-10.91C112.29,64.67,116.42,35.7,148.14,37.59Z" style="fill:#fcc21b"/><path d="M172.89,54.19s-14.59,7-18.39,7-29.63-2.41-29.63-2.41-1.42,8.94-2.42,11.84C121,74.78,119,76.08,119,76.08l-4.64-3.7,5.71-23.15,7.1-2,27.57,3.4,15.83-1.89Z" style="fill:#e48c15"/><path d="M75.24,86.49c-5.5-3.64-8.45-5.93-15.66-5A17.33,17.33,0,0,0,45.48,93.4,29.51,29.51,0,0,1,39,94.82c-1.42,1.24-4.82.63-5-1.18a65.07,65.07,0,0,1,0-11.34c.19-2.09.62-4.89.92-7s1-2.62,3.17-2.73A49.41,49.41,0,0,0,50,70.8c3.84-1.19,7.65-2.7,11.65-2.79,2.18,0,3.83,1.17,5.91,1.31a14.13,14.13,0,0,0,5.82-.58c2.1-.68,5.22-1.84,6.28-3.92.82-1.6-.15-3.53-.34-4.9-.29-2-1.91-2.57-2.57-4.21s-.27-3.39-1.15-4.93a34,34,0,0,1-1.79-5,29.55,29.55,0,0,0-2-4.63C70.73,39.38,70,38.36,68,37.62a15.8,15.8,0,0,0-4-1.35A25.53,25.53,0,0,0,53.13,38c-5,1.83-9.78,3.6-14.18,6.46-3.15,2-6,4.25-9,6.45a51.49,51.49,0,0,0-5,3.87,4.79,4.79,0,0,0-.61.74c-3.94,2-6.86,10.12-8.54,13C11.92,75.26,8.49,79.09,5.57,85.67c-4.88,11-7.47,22.24-3.92,34.07a12.94,12.94,0,0,0,9.8,8.92c5,.92,9.77,1,14.56,2.68a95.34,95.34,0,0,0,10,3.18c16.44,8.71,36.11,5.67,53.83,2.37Q96,116.73,102.21,96.58l13.46-13.44C100.15,69.86,89,72.78,75.24,86.49Zm-53-28.95,1.12-.93A3.87,3.87,0,0,1,22.27,57.54Z" style="fill:#fcc21b"/><path d="M77.75,55.61c-1.37-4.71-1.79-7.32-4-12.35-1.67-3.78-5.66-7.39-10.71-7.07,1.44.3,2.57.15,3.92,1.31s2,4.15,2.8,5.77A29.48,29.48,0,0,1,70.91,46c.33.89.75,2.25.92,2.75.59,1.78,1.55,4.85,1.86,5.95s.09.24.11.7,0,.22-.15.57a1.37,1.37,0,0,1-1,.78,1.94,1.94,0,0,1-2.33-.51,25.29,25.29,0,0,1-1.81-4.08C68,50.52,67,48.12,66.54,47s-.61-.86-1.21-1.12a1.38,1.38,0,0,0-1.77.61c-.27.66-.48.52,0,1.84s3.19,8,3.49,9c.56,1.84,0,1.74-.84,2.06s-1.37,1.08-2.44-.6a92.14,92.14,0,0,1-4.1-9.21c0-.07.06.06-.08-.16a2.29,2.29,0,0,0-1.13-.94,2.19,2.19,0,0,0-1.76.59,1.66,1.66,0,0,0-.13,1.72c.86,2,3.71,8.13,4.08,9.14.75,2.08,0,1.64-.72,2.12s-1.38.91-2.42-.46-3.92-7.5-4.71-8.93-.7-.81-1.37-1.11a1.27,1.27,0,0,0-1.69.78c-.18.67-.39.56.16,1.84s3.91,7.75,4.31,8.7c.76,1.79.24,1.75-.59,2.17s-1.24,1.26-2.54-.3-4-6.54-5.33-8.86c-2.21,2.17-1.49,3.77-.67,6.6a6.35,6.35,0,0,1-1.24,5.69,4.83,4.83,0,0,1-3.35,1.24c-.58,0-7.24-2.26-7.92-1.08-.47.63.35,17.56.42,22.34.93,1.57,1.78,3.8,3.4,3.95A13.64,13.64,0,0,1,36.3,91c.22-2.52,1.11-12.28,1.46-16.07,7.87.47,15,0,22.36-3.08,5.36,3,11.07,1.2,16.48-.76.07,0,.27-.14.34-.17,2-.81,4.23-3.2,4.56-4.94C82.36,61.34,79.8,59,77.75,55.61Zm-1,7a4.5,4.5,0,0,1-.47,1.14,5.83,5.83,0,0,1-2,1.57c-1.13.54-4.31,1.81-4.78,1.92-1.75.45-2.91.45-3.49-.78s-1.13-2,.52-3.25,6.09-3,8.29-4.11c.52-.26.5-.23.9-.42A6,6,0,0,1,76.73,62.56Z" style="fill:#e48c15"/><path d="M89.17,133.05c-20,4.61-38.75,6.87-57.8-2.5-5.39-.85-15.63-2.1-19.88-3.55a17,17,0,0,1-10.42-9.53c1.21,5.69,3,10.25,12.49,15.3,3.43,1.84,14.27,3.07,19.1,3.63,19,9.5,40.45,8.37,59.36-.5l-2.21-1C89.59,134.29,89.37,133.67,89.17,133.05Z" style="fill:#e48c15"/><path d="M80.55,109.43c-4.47,3.77-15.34,4.69-19.33,4.92a67.44,67.44,0,0,1-9.9-.67c-1.89,0-3-.41-3.21.65-.19.76.87,1.32,2,2.22,2.79,2.1,12.39,6.24,18,5.76a33.45,33.45,0,0,0,4.84-.43c5.75-1.7,9.43-5.28,9.83-11.25.06-1-.37-.92-.75-1.28A1.31,1.31,0,0,0,80.55,109.43Z" style="fill:#e48c15"/><path d="M131.19,56.39c6.53-2.8,17.31-3.24,20.4,4,1.91-.45,3-.23,4.68-.74.89-4.82,16.83-10.09,19-2.85,2.06,6.92-2.5,12.87-9,14.93-7.22,1.55-9.6-1.91-10.08-8.37-1.39.17-2.64.33-3.93.57-1.79,6.6-3.76,12-12.55,12.52-5.44.34-11.42-.8-13.68-5.26C124.78,68.75,124.92,59.09,131.19,56.39Z" style="fill:#2f2f2f"/><path d="M130,59.72c-1.49,1.56-4.24,7.72-.87,11.76.65.79,1.71-1.51,2.11-2.32a40.68,40.68,0,0,1,8.88-11c.6-.51,1.39-1.68-.68-1.76S133,56.56,130,59.72Z" style="fill:#fff"/><path d="M159.31,58.39c-2.08,2-1.15,6.19.06,8.54.66,1.27,1.62,0,2.22-1a39.94,39.94,0,0,1,7.53-9.75c.9-.83.27-1.41-1.14-1.27C166,55.08,161.38,56.35,159.31,58.39Z" style="fill:#fff"/><path d="M91.16,106.54c4.8,9.09,10.93,17.81,19.74,22.93a37.46,37.46,0,0,0,26.91,3.75c8-1.86,15.95-5.43,22.39-8,8.76.73,16.05,2.11,22.76-4s14.15-25,14.18-35.75c-2.34,9.92-10,29.75-19.09,33.25s-10.38,3.32-17.54,2.07c-9.83,2.53-23.19,8.68-34,7.59s-23-11.07-28.6-19.25C95.56,105.77,91.06,102,91.16,106.54Z" style="fill:#e48c15"/><path d="M126.4,141.71c3.13,4.59,4.17,9,11.11,10s16.07-4.18,22-8.62c5.35-1,12.13,1.74,16.91-.17s5.65-5.52,6.69-9.72c-2.79,3.75-5.48,6.18-10.24,6.62s-9-.68-13.72-1.22c-5.88,2.81-13.52,9.25-19.77,9.4S131.11,144.21,126.4,141.71Z" style="fill:#e48c15"/><path d="M132.84,159.46c2.92,3.82,4,7.61,10.09,8.13s13.7-4.39,18.62-8.52c4.59-1.15,10.59.92,14.63-1s4.62-5,5.32-8.72c-2.24,3.38-4.45,5.61-8.55,6.22s-7.81-.16-11.92-.4c-5,2.72-11.25,8.66-16.65,9.09S137,161.39,132.84,159.46Z" style="fill:#e48c15"/><path d="M133.16,107.79c6.89-1.53,16.8-1.12,23.83-.13,4.36-2,7.79-2.88,15.52-3.59-6.53,2.77-8,4.2-14.36,7.26C150.93,109.22,140.63,107.41,133.16,107.79Z" style="fill:#e48c15"/><path d="M79.81,89.86A289.71,289.71,0,0,1,95.56,114.3c3.06,1.14,3.23-1,1.37-6S85.39,93.49,79.81,89.86Z" style="fill:#e48c15"/><path d="M179.94,190.7c.31,10.5-4.5,17.23-13.31,22.57,11.48-.43,15.92-11.4,16.53-21.32,3.14-9.24,5.52-19.18,4.55-29a5.9,5.9,0,0,0-6.08,2C182.83,173.65,183.17,182.41,179.94,190.7Z" style="fill:#fff"/><path d="M165.59,78.11c-4.29-3.59-14.77-2.85-21.43,3.85" style="fill:none;stroke:#2f2f2f;stroke-linecap:round;stroke-miterlimit:10;stroke-width:2px"/><path d="M85.55,136.17c5.28,14.62,18.07,20.19,32.56,23.1.62,5.34,1,10.19,4.25,14.78s8.59,6.64,13.79,6.84c-5.5-2.45-9-3.91-11.57-8.6s-1.68-12.33-3-17.67c-12.68-2.87-26.11-6.35-29.51-20.36C90.29,133.54,82.16,134.47,85.55,136.17Z" style="fill:#e48c15"/><path d="M98.46,125.86c-5.26,4.32-10.84,8.55-17.46,10.4,2.09,2.09,5.06,2.27,7.89,2.18C93.86,135.67,96.53,131,98.46,125.86Z" style="fill:#e48c15"/><path d="M105.94,135.2c1.52,7.69,7.21,10.69,14.44,11.77A100.59,100.59,0,0,1,105.94,135.2Z" style="fill:#e48c15"/><path d="M138.92,42.1c4.41,3.06,9.34,5.88,14.78,6.08s9.38-1.89,12.58-6.08C157.05,46.49,148.36,45.34,138.92,42.1Z" style="fill:#e48c15"/><path d="M140.59,45.4c3.57,2,7.63,3.75,11.71,3.88a12.31,12.31,0,0,0,10-3.88C155,48.2,148,47.45,140.59,45.4Z" style="fill:#e48c15"/><path d="M196.71,88.83c3.5,2.06,10.49,2,13.33,1.61s8-3.49,8.07-3.52c1.34-.75,1.81-1.21,2.22-.5s-.06,1.4-.85,2.45c-1.87,2.14-7.53,7-12.86,6.76-2.19-.09-8.44-1.09-10.7-3.14-.35-.45.11-1.23.24-1.56S196.45,88.68,196.71,88.83Z" style="fill:#e48c15"/><path d="M204.15,100.66c-1.54,4.47-2.75,6.24-4.24,10.88.85,0,2.37.07,4.14,0C205.23,109.39,204.09,103.46,204.15,100.66Z" style="fill:#e48c15"/><path d="M149.18,83.89a11.61,11.61,0,0,1,8.69-5c2.26-.24,4.45,1.54,6.33,3.39C159.31,81.75,153.8,81.73,149.18,83.89Z" style="fill:#e48c15"/><path d="M112.3,80.48c3.24,2.45,5.5,5.62,8,8.81a43.66,43.66,0,0,0-7.76-12.15C112.42,78.24,112.38,79.37,112.3,80.48Z" style="fill:#e48c15"/><path d="M30.58,91.45c3.92,3.75,5.55,7.21,6.7,12.5a77.75,77.75,0,0,1,2.1,14.87C41.09,113,43.51,107.2,42.1,101S36.5,88.87,33.36,83.3C32.19,85.86,30.78,88.61,30.58,91.45Z" style="fill:#e48c15"/><path d="M11,99.24c-1,5.76.29,15.21,3.33,19.38s10,6,12.5,5.91-7.39-6.37-7.78-9.07S14.66,100.22,11,99.24Z" style="fill:#e48c15"/><path d="M111.38,74.52a13.28,13.28,0,0,0,7.42,1.73c.18-1.71,1.81-6.27,2.18-7.6-.37-4.92,0-17.28,0-17.28s28.93,2.54,36,2c12.71-1,17.59-5.11,17.59-5.11s-.13-6.36-3.54-10.76-10.27-10.08-16.44-11.92c-11-3.27-32.77-4.47-39.27,5.19-4.5,6.7-9.11,19.08-8.71,23.87C108,71.31,111.38,74.52,111.38,74.52Z" style="fill:#fff"/><polygon points="163.22 30.4 165.93 32.39 157.44 44.21 155.64 43.31 163.22 30.4" style="fill:#e8e8e8"/><polygon points="147.84 46.52 74.44 4.53 72.85 0.24 76.89 0 146.86 32.32 150.04 32.32 179.06 4.65 182.49 4.04 182.37 6.86 153.59 47.01 147.84 46.52" style="fill:#fff"/><polygon points="116.59 28.79 152.05 46.92 159.97 43.85 153.65 50.35 143.46 46.11 141.13 45.16 115.46 30.65 116.59 28.79" style="fill:#e8e8e8"/><path d="M155.6,47.16s8.09-.67,13.92-1.25c-4.42-.75-12.08-1.7-12.08-1.7Z" style="fill:#e8e8e8"/><polygon points="143.31 43.67 153.38 48.99 159.8 43.56 155.62 31.57 151.38 29.5 144.02 29.81 141.46 32.43 143.31 43.67" style="fill:#4f114f"/><polygon points="146.05 40.95 153.47 45.65 157.71 41.59 154.54 31.87 151.64 30.34 146.59 30.61 144.82 32.57 146.05 40.95" style="fill:#7c1f7c"/><path d="M118,51.12s.21,12.14-.57,16.09c-.41,2.06-2,9-2,9l3.47.07s2.48-6.5,2.69-8.15c.52-4.22.89-16.51.89-16.51Z" style="fill:#e8e8e8"/><path d="M99.44,55.23c.31,8.45,2.66,12.83,6.78,15.2,3.81.17,7.18.23,7.18.23s1.63-14.47.83-20.92a89.13,89.13,0,0,0-1.46-9.16l-8.21,1.59S99.15,47.51,99.44,55.23Z" style="fill:#fff"/><path d="M108.39,42.64l4.18-.68s4.84,11.54,1.56,27.64c-1.21.55-4.6-.45-4.6-.45a54.65,54.65,0,0,0,1.71-12.9A37.25,37.25,0,0,0,108.39,42.64Z" style="fill:#e8e8e8"/><path d="M104.32,47.27s-4,7.75.2,18C104.63,58.53,104.32,47.27,104.32,47.27Z" style="fill:#e8e8e8"/><polygon points="151.59 31.01 148.18 31.27 146.6 32.91 147.23 37.53 151.59 31.01" style="fill:#d159d8"/><polygon points="155.57 37.53 156.58 40.99 153.37 44.05 155.2 40.5 155.57 37.53" style="fill:#d159d8"/><path d="M149.35,48.16c-.58,0-19.83,0-30.5-2.08,12.84.16,18.92-.17,24.59-1.5C146.6,46.33,149.35,48.16,149.35,48.16Z" style="fill:#e8e8e8"/><path d="M135.58,174.65s2.06,4.83,3.87,6.52c2.77,0,5.07-.13,5.07-.13A46.19,46.19,0,0,1,135.58,174.65Z" style="fill:#e48c15"/><path d="M176.82,162.23s.49,5,.05,6.91A8.1,8.1,0,0,0,174.1,171,58.51,58.51,0,0,0,176.82,162.23Z" style="fill:#e48c15"/><ellipse cx="162.27" cy="169.88" rx="1.69" ry="2.84" transform="translate(-14.96 15.67) rotate(-5.29)" style="fill:#e48c15"/><ellipse cx="122.68" cy="118.53" rx="3.02" ry="4.72" transform="translate(-16.29 217.46) rotate(-79.46)" style="fill:#e48c15"/><ellipse cx="179.3" cy="109.73" rx="3.66" ry="2.34" transform="translate(-30.84 104.35) rotate(-30)" style="fill:#e48c15"/><path d="M136.06,87.61s8.12,16.48,23.17,6.69c7.4.24,11.7-2.87,12.41-7.41-3.82,3.59-8.38,5.12-12,3.45C156.33,93.44,148.34,97.8,136.06,87.61Z" style="fill:#e48c15"/><path d="M160.7,87.2s-.44,3.45-2.83,5c.18.7,2.48.53,2.48.53A9,9,0,0,0,160.7,87.2Z" style="fill:#e48c15"/><polygon points="53.26 207.3 72.84 216.91 75.45 213.35 53.26 207.3" style="fill:#e8e8e8"/><path d="M122.11,180.84c7.08,4.69,16.4,5.66,27.58,5.3.22,2-.9,4.43-2,6.18-6.49-.28-18.66-2.69-25.39-6.71C121.94,184.77,122.29,181.84,122.11,180.84Z" style="fill:#e8e8e8"/></g></g></svg>