<svg xmlns="http://www.w3.org/2000/svg" viewBox="0 0 622.78 123.67"><title>satellite-top</title><g id="Layer_2" data-name="Layer 2"><g id="Layer_1-2" data-name="Layer 1"><polygon points="602.77 87.33 30.02 87.33 0 123.67 622.78 123.67 602.77 87.33" style="fill:#787c8e"/><path d="M61.35,106.14,57.77,87.56A46.4,46.4,0,0,1,84,78.91c15.14,0,21.75,2.34,21.75,2.34l1.07,19.21s-3.16,7.57-20.19,9.46S67,109.92,61.35,106.14Z" style="fill:#585b6d"/><path d="M64.42,87.49a33.54,33.54,0,0,1,18.92-6.25c10.93,0,15.71,1.69,15.71,1.69s-2.74,4.61-15,6S64.42,87.49,64.42,87.49Z" style="fill:#787c8e"/><path d="M118.63,106.63l-3.72-34.48A46.45,46.45,0,0,1,141.1,63.5c15.13,0,21.75,2.34,21.75,2.34L164,101s-3.15,7.57-20.18,9.47S124.3,110.42,118.63,106.63Z" style="fill:#585b6d"/><path d="M122.26,71.62a32.33,32.33,0,0,1,18.23-6c10.53,0,15.14,1.63,15.14,1.63S153,71.67,141.13,73,122.26,71.62,122.26,71.62Z" style="fill:#787c8e"/><path d="M391.86,70.54c-3.75,10-11.89,40.5,10.27,41.32s35.75-12.83,37.39-26S432.07,54.13,421,52.49,395.83,59.88,391.86,70.54Z" style="fill:#585b6d"/><path d="M388.76,68.88c-3.75,10.05-11.08,40.62,11.08,41.44s32.09-17.48,33.73-30.61S429,52.46,417.9,50.82,392.74,58.22,388.76,68.88Z" style="fill:#787c8e"/><path d="M427.38,61.13c-5.24-13.34-45-6.24-38.59,35.25C396.63,76.94,411.89,61.13,427.38,61.13Z" style="fill:#585b6d"/><path d="M411.34,76.69l-9.2,2.3,6.44,6.21S413.87,84.05,411.34,76.69Z" style="fill:#585b6d"/><path d="M549.42,50.61c6.31,30.07-3.32,61.81-37.41,64.68-28.78,2.42-53.56-12.75-61.78-42.35-9.59-34.54,16.1-62.59,41.36-63.69C520.43,8,542.1,15.75,549.42,50.61Z" style="fill:#787c8e"/><path d="M494.34,60s-2.67,5.66,2.33,8c4-1.33,25.84-7.25,25.84-7.25l-4.33-7.33Z" style="fill:#404155"/><ellipse cx="525.14" cy="55.8" rx="11.53" ry="12.99" transform="translate(6.04 152.85) rotate(-16.65)" style="fill:#585b6d"/><path d="M456.94,41.63c-4.5,12.5-8.75,42,26.5,65-14.5-30.5-9.25-76.75,41.75-86.75C487.44,4.88,464.19,21.49,456.94,41.63Z" style="fill:#585b6d"/><path d="M557.45,99.81l21.15-86,6.43.46L568,98.43S564.8,103,557.45,99.81Z" style="fill:#585b6d"/><ellipse cx="583" cy="9.59" rx="9.58" ry="9.69" transform="translate(411.56 566.9) rotate(-73.84)" style="fill:#787c8e"/></g></g></svg>