<svg xmlns="http://www.w3.org/2000/svg" viewBox="0 0 691.6 476.99"><title>score</title><g id="Layer_2" data-name="Layer 2"><g id="Layer_1-2" data-name="Layer 1"><path d="M534.1,189.79l49.41-8.7s9.34,8.69,1.34,15.36c-13.29,1.82-50.41,8.82-50.41,8.82Z" style="fill:#333547"/><polygon points="604.49 301.69 691.61 281.75 644.22 72.93 557.98 86.11 604.49 301.69" style="fill:#585b6d"/><path d="M599.74,90s32.34,156,46,190.62C642.86,253.37,611.65,117.78,599.74,90Z" style="fill:#404155"/><path d="M653.44,177.22s-34.82,1.6-59.17,11.39C602.86,188,644.59,180.73,653.44,177.22Z" style="fill:#404155"/><path d="M641.53,126.61s-33.73.82-58.09,10.6C592,136.55,632.69,130.12,641.53,126.61Z" style="fill:#404155"/><path d="M666.42,231.76s-36,3.05-60.36,12.83C614.65,243.93,657.57,235.27,666.42,231.76Z" style="fill:#404155"/><ellipse cx="327.2" cy="462.28" rx="16.18" ry="14.7" transform="translate(-47.28 37.4) rotate(-6.1)" style="fill:#404155"/><path d="M314.72,393.44,321.3,454a12.62,12.62,0,0,0,9.35-.48c-1-7.94-2.43-63.77-2.43-63.77Z" style="fill:#404155"/><path d="M323.58,413.24c51-8.45,92.36-23.32,90.05-37s-45.15-36.57-96.19-28.13-93.34,39.26-91,52.94S272.54,421.68,323.58,413.24Z" style="fill:#585b6d"/><path d="M340.8,346.12s62.28,7.47,68.24,28.75c2.53,9-35.17,28.28-92.57,34.57C353.76,399.8,381.83,371.31,340.8,346.12Z" style="fill:#404155"/><polygon points="129.79 148.41 153.52 356.91 199.23 384.61 194.28 170.32 544.62 106.51 484.28 91.64 129.79 148.41" style="fill:#404155"/><polygon points="184.09 167.5 199.23 384.61 563 309.69 544.62 106.51 184.09 167.5" style="fill:#333547"/><polygon points="203.36 178.92 217.07 365.87 543.92 297.03 530.26 124.02 203.36 178.92" style="fill:#1f2235"/><path d="M376.6,156.55,221.89,182.91a11.14,11.14,0,0,0-9.14,12.16l10.39,146a11.2,11.2,0,0,0,13.24,9.71c48.52-8.59,101.44-19.34,148.15-29.29-.76-24.75-1.57-52.15-2.28-78.21C381.3,208.62,379,179.43,376.6,156.55Z" style="fill:#7c2c73"/><path d="M518.47,144.1a11.12,11.12,0,0,0-13-9.52l-128.91,22c2.44,22.88,4.7,52.07,5.65,86.76.71,26.06,1.52,53.46,2.28,78.21,74.39-15.86,133-29.71,133-29.71,5.74-1.15,8.73-6.5,8.85-12.35C527.71,218.9,518.47,144.1,518.47,144.1Z" style="fill:#227250"/><path d="M226.28,190.1c-3.35.6-6.94,5.44-6.14,12.15s2.86,30.67,3.68,35.34c1.46,8.25,10.2,2.45,14.51-3.06s32.72-32.32,51.45-41.05c7.37-3.43,8.34-13.62-2-12.43S246,186.55,226.28,190.1Z" style="fill:#fff;opacity:0.15"/><path d="M508.37,286c5.83-1.29,8.34-4.93,9.13-9.86,1.66-10.43,1.12-22.76.37-26.19-1.32-6.05-9.17.81-11.87,5.18-6.26,10.15-22.67,22.88-38.8,29.74-5.46,2.32-5.62,10.33,1.84,9.12S494.14,289.15,508.37,286Z" style="fill:#fff;opacity:0.15"/><polygon points="136.35 156.25 178.35 173.5 196.81 342.83 185.27 167.73 136.35 156.25" style="fill:#585b6d"/><polygon points="148.43 313.66 153.52 356.91 199.23 384.61 247.9 374.67 198.75 380.74 155.66 354.14 148.43 313.66" style="fill:#585b6d"/><path d="M187.39,149.62,183.81,131A46.4,46.4,0,0,1,210,122.39c15.14,0,21.75,2.34,21.75,2.34l1.07,19.21s-3.16,7.57-20.19,9.46S193.07,153.4,187.39,149.62Z" style="fill:#333547"/><path d="M190.46,131a33.54,33.54,0,0,1,18.92-6.25c10.93,0,15.71,1.69,15.71,1.69s-2.75,4.61-15.05,6S190.46,131,190.46,131Z" style="fill:#404155"/><path d="M112.71,265.69l49.41-8.7s9.34,8.69,1.35,15.35c-13.3,1.82-50.42,8.82-50.42,8.82Z" style="fill:#333547"/><path d="M242.37,139.81l-3.72-34.49a46.45,46.45,0,0,1,26.19-8.65C280,96.67,286.59,99,286.59,99l1.19,35.12s-3.15,7.57-20.18,9.46S248,143.59,242.37,139.81Z" style="fill:#333547"/><path d="M246,104.8a32.33,32.33,0,0,1,18.23-6c10.53,0,15.14,1.63,15.14,1.63s-2.65,4.44-14.5,5.75S246,104.8,246,104.8Z" style="fill:#404155"/><polygon points="49.48 408.15 142.16 386.94 91.75 164.78 0 178.81 49.48 408.15" style="fill:#585b6d"/><path d="M44.43,182.92s34.4,166,48.89,202.79C90.3,356.74,57.1,212.5,44.43,182.92Z" style="fill:#404155"/><path d="M101.56,275.73s-37,1.71-62.95,12.12C47.75,287.15,92.15,279.47,101.56,275.73Z" style="fill:#404155"/><path d="M88.89,221.89s-35.88.87-61.8,11.28C36.23,232.46,79.48,225.63,88.89,221.89Z" style="fill:#404155"/><path d="M115.37,333.76S77.07,337,51.16,347.41C60.3,346.71,106,337.5,115.37,333.76Z" style="fill:#404155"/><path d="M473,50.61c6.32,30.07-3.32,61.81-37.41,64.68-28.77,2.42-53.56-12.75-61.78-42.35-9.59-34.54,16.1-62.59,41.36-63.69C444,8,465.64,15.75,473,50.61Z" style="fill:#585b6d"/><path d="M417.88,60s-2.66,5.66,2.33,8c4-1.33,25.84-7.25,25.84-7.25l-4.33-7.33Z" style="fill:#404155"/><ellipse cx="448.68" cy="55.8" rx="11.53" ry="12.99" transform="translate(2.83 130.93) rotate(-16.65)" style="fill:#404155"/><path d="M380.48,41.63c-4.5,12.5-8.75,42,26.5,65-14.5-30.5-9.25-76.75,41.75-86.75C411,4.88,387.73,21.49,380.48,41.63Z" style="fill:#404155"/><path d="M320.27,85.25c-3.74,10-11.88,40.5,10.28,41.32s35.75-12.83,37.39-26-7.45-31.77-18.53-33.41S324.25,74.59,320.27,85.25Z" style="fill:#404155"/><path d="M317.18,83.59c-3.75,10-11.08,40.62,11.08,41.44S360.34,107.55,362,94.42s-4.6-27.25-15.68-28.89S321.15,72.92,317.18,83.59Z" style="fill:#585b6d"/><path d="M355.79,75.84c-5.24-13.34-45-6.25-38.58,35.25C325.05,91.65,340.31,75.84,355.79,75.84Z" style="fill:#404155"/><path d="M339.76,91.4l-9.2,2.3L337,99.91S342.29,98.76,339.76,91.4Z" style="fill:#404155"/><path d="M481,99.81l21.15-86,6.43.46-17,84.12S488.35,103,481,99.81Z" style="fill:#585b6d"/><ellipse cx="506.54" cy="9.59" rx="9.58" ry="9.69" transform="matrix(0.28, -0.96, 0.96, 0.28, 356.38, 493.46)" style="fill:#404155"/></g></g></svg>