<svg xmlns="http://www.w3.org/2000/svg" viewBox="0 0 433.21 292.97"><title>score</title><g id="Layer_2" data-name="Layer 2"><g id="Layer_1-2" data-name="Layer 1"><polygon points="0 56.76 23.73 265.26 69.44 292.97 64.5 78.68 414.83 14.87 354.5 0 0 56.76" style="fill:#404155"/><polygon points="54.3 75.86 69.44 292.97 433.21 218.05 414.83 14.87 54.3 75.86" style="fill:#333547"/><polygon points="69.03 85.51 83.11 277.45 418.68 206.77 404.65 29.15 69.03 85.51" style="fill:#1f2235"/><path d="M78.68,102.1,94.63,249a11.41,11.41,0,0,0,13.59,10l283.37-57.59a11.43,11.43,0,0,0,9.1-12.68l-8.15-139A11.41,11.41,0,0,0,379.24,40L88.06,89.61A11.43,11.43,0,0,0,78.68,102.1Z"/><path d="M94.47,95.27c-4.24.76-8.79,6.89-7.78,15.39s3.63,38.84,4.67,44.75c1.84,10.44,12.92,3.1,18.36-3.88s41.44-40.92,65.16-52c9.32-4.35,10.55-17.25-2.52-15.74S119.44,90.78,94.47,95.27Z" style="fill:#141414"/><path d="M386.1,194.68c2.8-.64,5.65-4.93,4.73-10.65s-3.55-26.21-4.42-30.19c-1.53-7-8.69-1.71-12.11,3.17s-26.38,29-41.85,37.15c-6.07,3.22-6.52,12,2.14,10.59S369.61,198.46,386.1,194.68Z" style="fill:#141414"/></g></g></svg>