<svg xmlns="http://www.w3.org/2000/svg" viewBox="0 0 147.41 153.06"><title>small-moon</title><g id="Layer_2" data-name="Layer 2"><g id="Layer_1-2" data-name="Layer 1"><path d="M134.15,88.44s6.63,1.27,9,.8,10-8.1,8-21.31-7.52-16.64-10.84-17.27-11,.55-11,.55S133.78,75.9,134.15,88.44Z" transform="translate(-4 6)" style="fill:#3a303a"/><circle cx="73.36" cy="89.56" r="63.5" style="fill:#5b4f5b"/><path d="M105.85,29.5A61.14,61.14,0,0,1,23.3,112.05,61.14,61.14,0,1,0,105.85,29.5Z" transform="translate(-4 6)" style="fill:#3a303a"/><path d="M49.79,90.25A13,13,0,0,1,70.42,79.66,13,13,0,1,0,52.23,97.84,13,13,0,0,1,49.79,90.25Z" transform="translate(-4 6)" style="fill:#3a303a"/><path d="M127.76,65.89a10.11,10.11,0,0,1,0,14.3,10,10,0,0,1-5.5,2.82,10.1,10.1,0,1,0,0-19.93A10.05,10.05,0,0,1,127.76,65.89Z" transform="translate(-4 6)" style="fill:#5b4f5b"/><path d="M76.35,86.86a16.47,16.47,0,0,1-26.09,13.4,16.48,16.48,0,1,0,23-23A16.39,16.39,0,0,1,76.35,86.86Z" transform="translate(-4 6)" style="fill:#3a303a"/><path d="M114.86,82.16a15.39,15.39,0,0,1,2.39-21.42,14.75,14.75,0,0,1,8.6-3.29,14.81,14.81,0,0,0-13.48,2.73A15.39,15.39,0,0,0,110,81.6a14.88,14.88,0,0,0,12.53,5.71A14.93,14.93,0,0,1,114.86,82.16Z" transform="translate(-4 6)" style="fill:#5b4f5b"/><path d="M17.64,87.59s-7.72,1.54-10,3.09-7.2,13.1.77,26.47S23.8,131.8,27.66,131s11.57-5.4,11.57-5.4S23.55,101,17.64,87.59Z" transform="translate(-4 6)" style="fill:#5b4f5b"/><path d="M19.27,90.13s-7.06,1.4-9.18,2.79-6.59,11.84.71,23.91,14.12,13.23,17.65,12.53,12.14-2.76,12.14-2.76S24.69,102.2,19.27,90.13Z" transform="translate(-4 6)" style="fill:#3a303a"/><path d="M111.76,111a30.89,30.89,0,0,1,13.88.58c-5.12-5.33-10.6-8.55-18.92-6.23C95.09,108.6,88.48,119.24,85.6,131,90.26,121.08,98.6,113.25,111.76,111Z" transform="translate(-4 6)" style="fill:#5b4f5b"/><path d="M48,68.91s37.11-.63,65.4-16.32a11.68,11.68,0,0,0,.33-6.12S97.07,56,85.12,59.12c-15.77,4.15-40.95,7.06-40.95,7.06S39.07,69.12,48,68.91Z" transform="translate(-4 6)" style="fill:#3a303a"/><path d="M61.83,57.59s22-.37,38.83-9.69a6.8,6.8,0,0,0,.19-3.63s-9.88,5.64-17,7.51C74.51,54.24,59.56,56,59.56,56S56.53,57.72,61.83,57.59Z" transform="translate(-4 6)" style="fill:#3a303a"/><polygon points="107.77 53.56 114.57 50.41 106.42 50.61 107.77 53.56" style="fill:#5b4f5b"/><path d="M70.82,26.18a14,14,0,0,1-11.66,2.93,4.3,4.3,0,0,1-2.83-1.89c-.12,1.5,1,2.79,3.15,3.38a14,14,0,0,0,11.66-2.94c1.73-1.57,2.17-3.24,1.45-4.53A4.84,4.84,0,0,1,70.82,26.18Z" transform="translate(-4 6)" style="fill:#3a303a"/><path d="M56.61,2.17S59,22.11,59.94,25.82a6.65,6.65,0,0,0,7.81-1.56c-2.54-6.65-6.65-24-6.65-24Z" transform="translate(-4 6)" style="fill:#3a303a"/><ellipse cx="58.38" cy="-0.03" rx="5.96" ry="6.16" transform="translate(44.91 63.58) rotate(-80.63)" style="fill:#5b4f5b"/><ellipse cx="56.02" cy="-2.52" rx="2.36" ry="1.72" transform="translate(12.59 43.36) rotate(-42.75)" style="fill:#867b87"/><polygon points="14.15 98.64 6.76 100.78 5.3 103.62 15.27 100.7 14.15 98.64" style="fill:#5b4f5b"/><polygon points="15.79 102.16 5.04 105.51 4.44 108.09 16.91 104.22 15.79 102.16" style="fill:#5b4f5b"/><polygon points="17.85 105.86 4.61 110.07 4.53 112.39 18.97 107.92 17.85 105.86" style="fill:#5b4f5b"/><polygon points="19.91 109.98 5.47 114.8 5.82 117.29 21.03 112.05 19.91 109.98" style="fill:#5b4f5b"/><polygon points="22.32 114.02 7.02 119.27 8.48 121.5 23.44 116.09 22.32 114.02" style="fill:#5b4f5b"/><polygon points="24.73 118.06 10.03 123.48 11.66 125.8 25.85 120.13 24.73 118.06" style="fill:#5b4f5b"/><polygon points="26.71 122.28 13.29 127.44 14.93 129.59 28 124.17 26.71 122.28" style="fill:#5b4f5b"/><polygon points="29.11 126.15 17.34 130.53 18.71 132.25 30.66 128.21 29.11 126.15" style="fill:#5b4f5b"/></g></g></svg>