<svg xmlns="http://www.w3.org/2000/svg" viewBox="0 0 147.41 153.06"><title>small-moon</title><g id="Layer_2" data-name="Layer 2"><g id="Layer_1-2" data-name="Layer 1"><path d="M130.15,94.44s6.63,1.27,9,.8,10-8.1,8-21.31-7.52-16.64-10.84-17.27-11,.55-11,.55S129.78,81.9,130.15,94.44Z" style="fill:#3a303a"/><circle cx="73.36" cy="89.56" r="63.5" style="fill:#5b4f5b"/><path d="M101.85,35.5A61.14,61.14,0,0,1,19.3,118.05,61.14,61.14,0,1,0,101.85,35.5Z" style="fill:#3a303a"/><ellipse cx="120.16" cy="78.99" rx="8.86" ry="9.85" transform="translate(-15.36 30.91) rotate(-13.79)" style="fill:#120112"/><path d="M123.76,71.89a10.11,10.11,0,0,1,0,14.3,10,10,0,0,1-5.5,2.82,10.1,10.1,0,1,0,0-19.93A10.05,10.05,0,0,1,123.76,71.89Z" style="fill:#5b4f5b"/><path d="M72.35,92.86a16.47,16.47,0,0,1-26.09,13.4,16.48,16.48,0,1,0,23-23A16.39,16.39,0,0,1,72.35,92.86Z" style="fill:#3a303a"/><path d="M110.86,88.16a15.39,15.39,0,0,1,2.39-21.42,14.75,14.75,0,0,1,8.6-3.29,14.81,14.81,0,0,0-13.48,2.73A15.39,15.39,0,0,0,106,87.6a14.88,14.88,0,0,0,12.53,5.71A14.93,14.93,0,0,1,110.86,88.16Z" style="fill:#5b4f5b"/><path d="M13.64,93.59s-7.72,1.54-10,3.09-7.2,13.1.77,26.47S19.8,137.8,23.66,137s11.57-5.4,11.57-5.4S19.55,107,13.64,93.59Z" style="fill:#5b4f5b"/><path d="M15.27,96.13s-7.06,1.4-9.18,2.79-6.59,11.84.71,23.91,14.12,13.23,17.65,12.53,12.14-2.76,12.14-2.76S20.69,108.2,15.27,96.13Z" style="fill:#3a303a"/><path d="M107.76,117a30.89,30.89,0,0,1,13.88.58c-5.12-5.33-10.6-8.55-18.92-6.23C91.09,114.6,84.48,125.24,81.6,137,86.26,127.08,94.6,119.25,107.76,117Z" style="fill:#5b4f5b"/><path d="M44,74.91s37.11-.63,65.4-16.32a11.68,11.68,0,0,0,.33-6.12S93.07,62,81.12,65.12c-15.77,4.15-40.95,7.06-40.95,7.06S35.07,75.12,44,74.91Z" style="fill:#3a303a"/><path d="M57.83,63.59s22-.37,38.83-9.69a6.8,6.8,0,0,0,.19-3.63s-9.88,5.64-17,7.51C70.51,60.24,55.56,62,55.56,62S52.53,63.72,57.83,63.59Z" style="fill:#3a303a"/><polygon points="107.77 53.56 114.57 50.41 106.42 50.61 107.77 53.56" style="fill:#5b4f5b"/><path d="M66.82,32.18a14,14,0,0,1-11.66,2.93,4.3,4.3,0,0,1-2.83-1.89c-.12,1.5,1,2.79,3.15,3.38a14,14,0,0,0,11.66-2.94c1.73-1.57,2.17-3.24,1.45-4.53A4.84,4.84,0,0,1,66.82,32.18Z" style="fill:#3a303a"/><path d="M52.61,8.17S55,28.11,55.94,31.82a6.65,6.65,0,0,0,7.81-1.56c-2.54-6.65-6.65-24-6.65-24Z" style="fill:#3a303a"/><ellipse cx="54.38" cy="5.97" rx="5.96" ry="6.16" transform="translate(39.64 58.65) rotate(-80.63)" style="fill:#5b4f5b"/><ellipse cx="52.02" cy="3.48" rx="2.36" ry="1.72" transform="translate(11.46 36.23) rotate(-42.75)" style="fill:#867b87"/><polygon points="14.15 98.64 6.76 100.78 5.3 103.62 15.27 100.7 14.15 98.64" style="fill:#5b4f5b"/><polygon points="15.79 102.16 5.04 105.51 4.44 108.09 16.91 104.22 15.79 102.16" style="fill:#5b4f5b"/><polygon points="17.85 105.86 4.61 110.07 4.53 112.39 18.97 107.92 17.85 105.86" style="fill:#5b4f5b"/><polygon points="19.91 109.98 5.47 114.8 5.82 117.29 21.03 112.05 19.91 109.98" style="fill:#5b4f5b"/><polygon points="22.32 114.02 7.02 119.27 8.48 121.5 23.44 116.09 22.32 114.02" style="fill:#5b4f5b"/><polygon points="24.73 118.06 10.03 123.48 11.66 125.8 25.85 120.13 24.73 118.06" style="fill:#5b4f5b"/><polygon points="26.71 122.28 13.29 127.44 14.93 129.59 28 124.17 26.71 122.28" style="fill:#5b4f5b"/><polygon points="29.11 126.15 17.34 130.53 18.71 132.25 30.66 128.21 29.11 126.15" style="fill:#5b4f5b"/><ellipse cx="56.81" cy="94.46" rx="12.81" ry="10.89" transform="translate(-44.7 51.5) rotate(-36.04)" style="fill:#120112"/><path d="M45.79,96.25A13,13,0,0,1,66.42,85.66a13,13,0,1,0-18.19,18.18A13,13,0,0,1,45.79,96.25Z" style="fill:#3a303a"/><ellipse cx="53.33" cy="92.03" rx="5.68" ry="3.94" transform="translate(-52.29 79.46) rotate(-53.12)" style="fill:#3a303a"/><ellipse cx="116.9" cy="75.7" rx="4.27" ry="2.97" transform="matrix(0.6, -0.8, 0.8, 0.6, -13.81, 123.77)" style="fill:#3a303a"/><path d="M54.36,104.49S66.2,103.33,67.53,93C63,98.24,54.36,104.49,54.36,104.49Z" style="fill:#3a303a"/><path d="M117.12,86.18a7.32,7.32,0,0,0,2.45,1.25c1.18-.81,4.44-1.63,5.18-4.66C121,85.51,118.08,86.25,117.12,86.18Z" style="fill:#3a303a"/></g></g></svg>