<svg xmlns="http://www.w3.org/2000/svg" viewBox="0 0 362.3 362.3"><title>small-moon</title><g id="Layer_2" data-name="Layer 2"><g id="Layer_1-2" data-name="Layer 1"><circle cx="181.15" cy="181.15" r="181.15" style="fill:#5b4f5b"/><path d="M262.43,26.93a174.42,174.42,0,0,1-235.5,235.5,174.42,174.42,0,1,0,235.5-235.5Z" style="fill:#3a303a"/><ellipse cx="314.66" cy="150.98" rx="25.29" ry="28.1" transform="translate(-26.92 79.34) rotate(-13.79)" style="fill:#120112"/><ellipse cx="131.61" cy="200.75" rx="31.35" ry="34.25" transform="translate(-29.08 22.43) rotate(-8.77)" style="fill:#120112"/><path d="M250.46,268.14c-31.37,7.16-37.25,27.06-37.25,27.06s39.42-18,79.7-22C283.15,269.66,267.87,264.17,250.46,268.14Z" style="fill:#120112"/><path d="M90.09,208.39s47.39,4.31,83-16.84c-5.89-16.28-13.13-41.82-48.73-35.17S87.58,192.53,90.09,208.39Z" style="fill:#5b4f5b"/><path d="M288.49,158.59s31.31,5.52,54.22-14.74c-4.29-16.44-9.71-42.18-33-36.44S286.43,142.65,288.49,158.59Z" style="fill:#3a303a"/><path d="M102.12,228.46s18,16.54,35.5,13.62,30.15-22.37,33.07-31.61c2.91,22.85-13.06,40-35.43,40S108.44,240.62,102.12,228.46Z" style="fill:#3a303a"/><path d="M288.81,169.06s12.9,19.62,30,16.54,19.06-7.85,21.59-17.38c1.68,9-6.17,23.26-20.46,23.83S294.42,189,288.81,169.06Z" style="fill:#5b4f5b"/><path d="M143,172.35s64.39,4,145.11-40.81c14.55-11,15.75-20.57,15.75-20.57s-47.51,27.11-81.59,36.08c-45,11.84-116.82,20.14-116.82,20.14S115.28,172.7,143,172.35Z" style="fill:#3a303a"/><path d="M177.21,139s28.64,1.35,73.6-16c9.22-5,17-16,17-16s-27.67,12.52-47.91,17.84c-26.71,7-64.67,9.88-64.67,9.88S162.09,139.38,177.21,139Z" style="fill:#3a303a"/><path d="M177.48,207.36s7.66,42.34-32.67,49C162.14,256.7,190.48,251.36,177.48,207.36Z" style="fill:#3a303a"/><path d="M288.48,185.36s8,24,34,18.34C307.14,198.36,295.81,193.7,288.48,185.36Z" style="fill:#5b4f5b"/></g></g></svg>