<svg xmlns="http://www.w3.org/2000/svg" viewBox="0 0 2524.45 838.84"><title>surface</title><g id="Layer_2" data-name="Layer 2"><g id="Layer_1-2" data-name="Layer 1"><path d="M1260.34,837.84v-821h2q13.39,0,26.66.06c6-7.81,16.38-11.6,31.64-11.6l2.38,0c2.89.09,27.8.89,33.21,3.4,6.27-2.8,17.7-7.7,38-7.7,3.26,0,6.68.13,10.19.37,1.79.14,43.92,3.32,50.82,7.5,4.33,2.63,8.6,7.46,11.5,11.19,32.86,1.05,65.93,2.38,98.31,3.94,3.79-4.52,11-9.37,33.62-11.74,3.52-.36,8-.55,13.39-.55,15.43,0,36.13,1.58,48.15,3.69,9.24,1.61,17.3,10.16,21.44,15.37,10.08.68,20.6,1.43,31.31,2.22,3.67-3.46,10.15-5.6,20.32-6.72a71.06,71.06,0,0,1,7.65-.34A194,194,0,0,1,1774,29c5.3,1.1,10.13,5.94,13.32,9.94,20.25,1.76,40.83,3.67,61.18,5.67,2.47-2.55,7.54-5.83,21.85-6.76,1-.06,2.16-.1,3.42-.1,11.37,0,29.29,2.62,38.26,5,5,1.31,9.46,6,12.39,9.89,26.49,3,53.14,6.22,79.21,9.58,3.15-3.19,9.56-7.25,27.67-7.82.53,0,1.08,0,1.65,0,13.49,0,38.34,4.47,50.71,8.31,4.85,1.51,9.77,5.78,14.65,12.7,142.55,21.32,250.3,44.43,315.61,60.07,70.86,17,108.44,29.06,108.81,29.18l.69.22v673Z" style="fill:#2c242d"/><path d="M1394.27,2c3.15,0,6.51.12,10.11.37,0,0,43.61,3.26,50.38,7.36,4.51,2.73,9,8.06,11.52,11.31q50.74,1.62,99.27,4c3.52-4.41,10.42-9.37,33.26-11.76,3.64-.38,8.22-.55,13.3-.55,15.8,0,36.37,1.64,48,3.67,9,1.58,17,10.08,21.1,15.36q16.26,1.1,32.2,2.28c2.69-2.73,7.86-5.42,20-6.76a71.71,71.71,0,0,1,7.54-.33A191.83,191.83,0,0,1,1773.82,30c5.19,1.07,10,6,13,9.92q31.68,2.76,62.08,5.75c2.69-3,7.92-5.92,21.52-6.8,1-.06,2.14-.1,3.36-.1,10.85,0,28.71,2.5,38,4.94,4.8,1.26,9.12,5.86,12.1,9.88q41.41,4.68,80.13,9.69c3.5-3.76,10.22-7.35,27.32-7.88.52,0,1.06,0,1.62,0,13.28,0,38,4.4,50.41,8.26,5.7,1.78,10.77,7.48,14.37,12.68,276.3,41.28,424.69,89.27,424.69,89.27V836.84H1261.34v-819h1q13.65,0,27.16.06c4.78-6.47,13.69-11.6,31.14-11.6l2.36,0s28.53.84,33.07,3.44l.12.08c7.34-3.29,18.37-7.82,38.07-7.82m-59.7,16.21c-3-.39-5.58-.71-7.27-.86-.7-.06-1.57-.08-2.58-.08-3.49,0-8.61.33-13.52.73q11.74.09,23.37.21m81.3,1.42c-2.24-.36-4.19-.66-5.67-.85a98.26,98.26,0,0,0-11.19-.45c-6.54,0-14.35.24-21,.51q19.08.35,37.87.79M1394.27,0h0c-20.12,0-31.63,4.76-38,7.61-6.26-2.4-28.55-3.17-33.15-3.31l-2.42,0c-15.33,0-25.86,3.79-32.12,11.6-9.94,0-18.28-.06-26.18-.06h-3v823H2524.45V164.12l-1.38-.44c-.37-.12-38-12.22-108.88-29.2-65.27-15.63-172.9-38.72-315.29-60C2094,67.55,2089,63.27,2084,61.72c-12.44-3.86-37.43-8.35-51-8.35-.58,0-1.14,0-1.68,0-17.81.56-24.6,4.51-28,7.77-25.79-3.33-52.13-6.51-78.32-9.47-4.22-5.49-8.48-8.82-12.67-9.92-9-2.37-27.08-5-38.52-5-1.28,0-2.45,0-3.49.11-11.17.72-18.08,2.8-22.15,6.71-20-2-40.3-3.85-60.29-5.59-3.3-4.06-8.19-8.83-13.64-10a195.22,195.22,0,0,0-33.26-3.1,73.29,73.29,0,0,0-7.76.34c-10.1,1.12-16.68,3.25-20.56,6.69-10.42-.77-20.65-1.49-30.45-2.16-4.31-5.34-12.41-13.75-21.77-15.39-12.08-2.11-32.85-3.7-48.32-3.7a134.87,134.87,0,0,0-13.5.56c-22.38,2.34-30,7.14-34,11.7-32.07-1.54-64.82-2.85-97.37-3.9-3-3.74-7.16-8.43-11.49-11-7-4.23-46.74-7.31-51.26-7.64-3.53-.25-7-.38-10.26-.38Z" style="fill:#5e4a60"/><path d="M1261.76,17.81q-53.92,0-106.92,1.2a19.37,19.37,0,0,0-8.58-4c-11.26-1.55-33.69-1.84-44.28.14-8.81,1.65-14.14,3.72-17.51,5.88q-18.66.68-37.17,1.47a24.06,24.06,0,0,0-2.69-1.55c-7-3.41-49.55-1.82-49.55-1.82-17.41.73-28.73,4.26-36.64,8q-27.48,1.64-54.52,3.53a21.14,21.14,0,0,0-4.53-1.71c-12.8-3.07-32.29-2.35-44.2,2.7-2.65,1.13-4.84,2.17-6.67,3.15Q835.24,35.86,822.11,37l-11.6,1q-22.69,2-45,4.06a30.68,30.68,0,0,0-5.79-2.63C753.05,37.32,714,41.67,714,41.67c-16.43,1.89-26.73,5.55-33.78,9l-18.73,2.08a21.81,21.81,0,0,0-9.6-3.33c-13.46-.77-40,1-52.33,4.33-10.53,2.85-16.68,5.88-20.43,8.82q-23.55,3-46.37,6a18.75,18.75,0,0,0-9-2.7c-10.69.2-31.57,3.19-41.13,6.56a67.86,67.86,0,0,0-10.47,4.58q-9.25,1.33-18.39,2.68l-11.3,1.68q-12.72,1.91-25.15,3.81a19.41,19.41,0,0,0-9.82-.87,19.07,19.07,0,0,0-9.27,3.84C155.74,126.28,2,165.58,2,165.58V836.84H1240.34S1262.16,17.47,1261.76,17.81Z" style="fill:none;stroke:#5e4a60;stroke-miterlimit:10;stroke-width:4px"/><path d="M599.56,53.78c12.33-3.33,38.87-5.1,52.33-4.33,11.67.67,24.22,16.23,24.22,16.23l-12.48,4.4s-30.27.29-39.68.88-41.5,8-41.5,8a75.18,75.18,0,0,0-10.6-4.6C574.23,69.12,573.31,60.88,599.56,53.78Z" style="fill:#2c242d"/><path d="M855.17,31.64c11.91-5.05,31.4-5.77,44.2-2.7C908,31,917.83,41.31,917.83,41.31l-9.51,3.36s-23.08.22-30.26.67-31.64,6.09-31.64,6.09a57.31,57.31,0,0,0-8.08-3.5C840.15,43.93,836.08,39.74,855.17,31.64Z" style="fill:#2c242d"/><path d="M2,165.58V836.84H1261.34v-819C579.54,18,2,165.58,2,165.58Z" style="fill:#3a2f3b"/><path d="M2522.45,165.58S2065.59,17.81,1262.35,17.81h-5l-1.83,819H2522.45Z" style="fill:#3a2f3b"/><polygon points="441.13 59.18 443.92 105.96 455.29 105.34 452.45 57.92 441.13 59.18" style="fill:#876484"/><ellipse cx="858.55" cy="602.87" rx="5.05" ry="8.9" transform="translate(-40.91 1142.82) rotate(-66.05)" style="fill:#2c242d"/><path d="M892.25,587.78s21.23,18.11,55,16.61,53.65-9.58,68.38-20.5-.88-12.47-5.61-9.06-45.87,15.84-63.7,13.07-44.24-8.73-53-13S882.35,580.86,892.25,587.78Z" style="fill:#2c242d"/><path d="M910.06,521.32s17.6-17.86,43.34-17.72,40.38,7,50.86,16.71-1.6,11.77-5,8.75-34-13.18-47.83-9.9-34.53,9.9-41.56,14.28S902,528.21,910.06,521.32Z" style="fill:#2c242d"/><path d="M888.61,595.13c9,5.85,23,12.69,32.47,14.66s29.4,3.11,36,1.28,23.72-2.82,23.72-2.82-15.29,7.58-23.57,8.35-34.78,3.11-42.59.54S881,598.65,879.22,595.92s-8.6-11.95-7.5-12S888.61,595.13,888.61,595.13Z" style="fill:#2c242d"/><path d="M967.2,622.05c10.61-1.66,25.59-5.95,33.94-10.81s23.94-17.35,27.62-23.11,15.75-18,15.75-18-6.3,15.87-11.94,22-23.78,25.57-31.31,28.88-37.4,8.77-40.51,7.9-14.39-3.13-13.59-3.89S967.2,622.05,967.2,622.05Z" style="fill:#2c242d"/><ellipse cx="877.67" cy="405.2" rx="3.93" ry="7.32" transform="translate(465.61 1279.67) rotate(-89.55)" style="fill:#2c242d"/><ellipse cx="804.56" cy="450.73" rx="3.13" ry="5.75" transform="matrix(0.32, -0.95, 0.95, 0.32, 123.3, 1072.3)" style="fill:#2c242d"/><path d="M825.77,440.11s14.53,10.27,36.34,8,34.37-8,43.46-15.32-1.1-7.62-4-5.34S872.48,439,860.8,438s-29-3.59-34.91-5.87S819.05,436.27,825.77,440.11Z" style="fill:#2c242d"/><path d="M834.48,398.61S845.13,387,861.82,386s26.48,2.68,33.68,8.22-.53,7.29-2.85,5.57-22.57-6.73-31.42-4.16-22,7.46-26.34,10.43S829.53,403.17,834.48,398.61Z" style="fill:#2c242d"/><path d="M823.71,444.77c6.09,3.23,15.46,6.86,21.68,7.69s19.19.74,23.39-.65S884,449.13,884,449.13s-9.59,5.27-14.93,6.07-22.41,3.3-27.58,2-22.62-10-23.86-11.61-6.08-7-5.37-7.05S823.71,444.77,823.71,444.77Z" style="fill:#2c242d"/><path d="M875.81,458.15c6.8-1.45,16.34-4.68,21.54-8s14.79-11.6,16.93-15.29,9.44-11.65,9.44-11.65-3.41,10-6.81,14-14.33,16.64-19.06,19S874,463,871.92,462.62s-9.46-1.35-9-1.85S875.81,458.15,875.81,458.15Z" style="fill:#2c242d"/><ellipse cx="2365.44" cy="419.88" rx="3.79" ry="6.67" transform="translate(1772.66 2748.01) rotate(-85.78)" style="fill:#2c242d"/><ellipse cx="2296.03" cy="459.31" rx="2.99" ry="5.27" transform="translate(944.31 2371.26) rotate(-66.05)" style="fill:#2c242d"/><path d="M2316,450.36s12.57,10.74,32.57,9.85,31.79-5.68,40.52-12.15-.52-7.39-3.32-5.37-27.18,9.39-37.75,7.74-26.21-5.17-31.41-7.72S2310.13,446.27,2316,450.36Z" style="fill:#2c242d"/><path d="M2326.55,411s10.42-10.58,25.68-10.5,23.93,4.14,30.13,9.9-.94,7-2.94,5.19-20.13-7.81-28.34-5.87-20.46,5.87-24.63,8.47S2321.75,415.06,2326.55,411Z" style="fill:#2c242d"/><path d="M2313.84,454.72c5.33,3.47,13.63,7.52,19.23,8.68s17.43,1.85,21.33.76,14.06-1.67,14.06-1.67-9.06,4.5-14,4.95-20.61,1.84-25.24.32-19.95-11-21-12.57-5.1-7.08-4.44-7.1S2313.84,454.72,2313.84,454.72Z" style="fill:#2c242d"/><path d="M2360.4,470.67c6.29-1,15.17-3.53,20.12-6.41s14.19-10.27,16.37-13.69,9.33-10.64,9.33-10.64-3.74,9.4-7.08,13-14.09,15.15-18.55,17.11-22.17,5.19-24,4.68-8.52-1.85-8-2.3S2360.4,470.67,2360.4,470.67Z" style="fill:#2c242d"/><path d="M714,41.67s39-4.35,45.74-2.28S774.11,48,774.11,48l-12.48,4.4s-30.27.29-39.68.89-41.5,8-41.5,8a75.18,75.18,0,0,0-10.6-4.6C676.53,52.68,687,44.78,714,41.67Z" style="fill:#3a2f3b"/><path d="M678.79,75.94s24.35,9.73,48.25,4.7,36.2-11.41,44-21.83-3.79-9.9-6.33-6.63S738.3,66.45,724.82,68.1c-17.1,2.09-36.63-.21-44-2.66S674.38,72.41,678.79,75.94Z" style="fill:#2c242d"/><path d="M715.73,47s30.85-3.61,35.83-2.59a92.57,92.57,0,0,1,11.13,3.29L751.4,51.66s-22.95,1.67-30.11,2.51-31.76,7.23-31.76,7.23a54.16,54.16,0,0,0-7.85-2.47C686.9,56,695.14,50.35,715.73,47Z" style="fill:#2c242d"/><path d="M396.24,137.4s37.86-5.52,44.34-2.89,13.93,10.94,13.93,10.94L442.42,151s-29.34.37-38.47,1.12-40.23,10.14-40.23,10.14-6.26-4.31-10.28-5.83C359.92,151.37,370.05,141.34,396.24,137.4Z" style="fill:#3a2f3b"/><path d="M362.11,180.89s23.8,10.7,47,4.32,34.89-12.84,42.49-26.06-3.67-12.56-6.13-8.42-25.64,18.11-38.71,20.2c-16.57,2.65-35.51-.26-42.68-3.37S357.84,176.4,362.11,180.89Z" style="fill:#2c242d"/><path d="M399.93,143.31s30.63-4.11,35.46-2.82a19.43,19.43,0,0,1,8.05,4.58l-10.94,5s-22.25,2.11-29.19,3.19-30.79,9.16-30.79,9.16a44.78,44.78,0,0,0-7.61-3.13C370,155.58,380,147.54,399.93,143.31Z" style="fill:#2c242d"/><path d="M500.55,143.35s21.48-3.12,25.19-1.79,8,5.62,8,5.62l-6.82,3s-16.68.38-21.86.84-22.77,5.55-22.77,5.55a38.64,38.64,0,0,0-5.9-3C480.05,150.88,485.7,145.58,500.55,143.35Z" style="fill:#3a2f3b"/><path d="M480.57,165.85s13.55,6.29,26.66,2.81,19.8-7.78,24-14.73c-2.83-5.25-1.87-.92-2.55-3.93-1.36,2.18-14.39,9.62-21.8,10.79-9.4,1.49-20.2.09-24.3-1.48C482.46,165.49,480.85,159.52,480.57,165.85Z" style="fill:#2c242d"/><path d="M501.58,146.88s17-2.58,19.72-1.94a22.15,22.15,0,0,1,5.63,2.46l-7,3.85s-11.21,1.23-15.14,1.83-14.43,4.69-14.43,4.69A76.73,76.73,0,0,0,483,155C485.81,153,490.27,149.22,501.58,146.88Z" style="fill:#2c242d"/><path d="M215,317.7s21.47-3.88,25.18-2.23,8,7,8,7l-6.82,3.72s-16.68.47-21.86,1-22.77,6.89-22.77,6.89a36.6,36.6,0,0,0-5.91-3.69C194.52,327,200.18,320.46,215,317.7Z" style="fill:#3a2f3b"/><path d="M195.05,345.62s13.55,7.81,26.66,3.48,19.8-9.66,24-18.28c-2.82-6.52-1.86-1.14-2.55-4.88-1.36,2.7-14.39,11.94-21.8,13.4-9.39,1.85-20.19.11-24.3-1.85C196.93,345.17,195.33,337.76,195.05,345.62Z" style="fill:#2c242d"/><path d="M216.06,322.07s16.95-3.2,19.71-2.4a20.21,20.21,0,0,1,5.64,3.05l-7,4.78s-11.21,1.52-15.14,2.27-14.43,5.82-14.43,5.82a68.87,68.87,0,0,0-7.41-3.46C200.29,329.68,204.75,325,216.06,322.07Z" style="fill:#2c242d"/><path d="M995.06,19.16s42.54-1.59,49.55,1.82,14.69,12.76,14.69,12.76l-13.87,4.45s-32.67-2.8-42.88-3S957,41.28,957,41.28s-6.65-5.12-11-7.12C953.62,29.62,965.63,20.39,995.06,19.16Z" style="fill:#3a2f3b"/><path d="M953.87,60.25s25.35,15.26,51.6,11.19,40.11-11.12,49.55-23.91-3.15-13.32-6.2-9.32S1019,54.08,1004.26,54.82c-18.64.94-39.5-4.1-47.24-8.08S949.45,55.17,953.87,60.25Z" style="fill:#2c242d"/><path d="M996.43,26.32s33.61-1.48,38.89.37A89.84,89.84,0,0,1,1047,32.15l-12.55,4s-24.9-.22-32.7.13-34.94,6.11-34.94,6.11a54.35,54.35,0,0,0-8.24-4C964.49,35,973.9,28.53,996.43,26.32Z" style="fill:#2c242d"/><path d="M524.78,430.82s40.31,17.61,74.91,10.06c38.23-8.33,53.62-19.28,65.78-39C680.85,377,665,376,660.86,384.3s-40.64,36.44-61.93,39c-27,3.23-58.85-4.66-70.35-12.15S518,420.87,524.78,430.82Z" style="fill:#2c242d"/><path d="M584,364s48.73-5.4,56.51-2,17.33,10.21,17.33,10.21l-18,8.95s-36.2,1.32-47.51,2.6S542,398.59,542,398.59s-7.39-5.65-12.22-7.6C538.16,383.93,551.43,370.09,584,364Z" style="fill:#2c242d"/><ellipse cx="825.7" cy="136.56" rx="24.85" ry="11.65" transform="translate(-11.06 120.49) rotate(-8.29)" style="fill:#2c242d"/><ellipse cx="884.61" cy="188.19" rx="14.39" ry="6.75" transform="translate(-9.25 50.5) rotate(-3.25)" style="fill:#2c242d"/><ellipse cx="653.34" cy="266.46" rx="19.52" ry="9.15" transform="translate(-31.59 97) rotate(-8.29)" style="fill:#2c242d"/><ellipse cx="226.83" cy="237.4" rx="14.76" ry="6.92" transform="translate(-31.86 35.19) rotate(-8.29)" style="fill:#2c242d"/><ellipse cx="268.15" cy="205.3" rx="14.76" ry="6.92" transform="translate(-26.8 40.81) rotate(-8.29)" style="fill:#2c242d"/><ellipse cx="287.36" cy="201.49" rx="8.66" ry="6.42" transform="translate(-18.43 29.26) rotate(-5.65)" style="fill:#2c242d"/><ellipse cx="430.95" cy="285.44" rx="16.34" ry="7.66" transform="translate(-11.57 18.3) rotate(-2.4)" style="fill:#2c242d"/><ellipse cx="1052.63" cy="312.09" rx="18.41" ry="8.63" transform="translate(-10.57 38.16) rotate(-2.07)" style="fill:#2c242d"/><ellipse cx="1023.25" cy="219.6" rx="18.41" ry="8.63" style="fill:#2c242d"/><path d="M1118.32,228.94c27.34-.61,50,10.19,52.3,24.48a15.5,15.5,0,0,0,.9-5.51c-.34-15.31-23.85-27.2-52.51-26.56s-51.62,13.57-51.28,28.87a16.08,16.08,0,0,0,.21,2.09C1072.43,239.52,1093.18,229.51,1118.32,228.94Z" style="fill:#2c242d"/><ellipse cx="826.32" cy="237.75" rx="13.72" ry="6.43" transform="translate(-25.98 124.07) rotate(-8.45)" style="fill:#2c242d"/><ellipse cx="685.55" cy="272.15" rx="10.78" ry="5.06" transform="translate(-25.28 75.26) rotate(-6.17)" style="fill:#2c242d"/><ellipse cx="680.81" cy="414.85" rx="9.78" ry="7.52" transform="translate(-40.64 75.57) rotate(-6.17)" style="fill:#2c242d"/><ellipse cx="600.69" cy="541.01" rx="9.78" ry="6.71" transform="translate(-54.67 67.69) rotate(-6.17)" style="fill:#2c242d"/><ellipse cx="626.5" cy="283.36" rx="10.78" ry="5.06" transform="translate(-26.83 68.97) rotate(-6.17)" style="fill:#2c242d"/><ellipse cx="710.3" cy="118.81" rx="15.85" ry="7.43" transform="translate(-9.31 147.06) rotate(-11.74)" style="fill:#2c242d"/><ellipse cx="671.38" cy="109.15" rx="9.46" ry="3.93" transform="translate(-4.01 28.47) rotate(-2.42)" style="fill:#2c242d"/><ellipse cx="577.81" cy="105.51" rx="7.18" ry="2.98" transform="translate(-9.17 126.73) rotate(-12.42)" style="fill:#2c242d"/><ellipse cx="537.9" cy="129.32" rx="12.79" ry="6" transform="translate(-15.06 112.19) rotate(-11.74)" style="fill:#2c242d"/><ellipse cx="480.56" cy="99.33" rx="12.79" ry="6" transform="translate(-10.16 99.89) rotate(-11.74)" style="fill:#2c242d"/><ellipse cx="776.69" cy="92.35" rx="12.52" ry="5.87" transform="translate(-2.54 160.01) rotate(-11.74)" style="fill:#2c242d"/><ellipse cx="945.22" cy="79.71" rx="12.52" ry="5.87" transform="translate(-2.75 45.82) rotate(-2.77)" style="fill:#2c242d"/><ellipse cx="1104.9" cy="64.35" rx="10.13" ry="4.75" transform="translate(-1.82 53.52) rotate(-2.77)" style="fill:#2c242d"/><ellipse cx="1175.67" cy="131.46" rx="8.31" ry="3.9" transform="translate(-4.98 57.03) rotate(-2.77)" style="fill:#2c242d"/><ellipse cx="1274.7" cy="121.47" rx="8.31" ry="3.9" transform="translate(-4.38 61.8) rotate(-2.77)" style="fill:#2c242d"/><ellipse cx="1318.42" cy="128.15" rx="8.31" ry="3.9" transform="translate(-4.66 63.93) rotate(-2.77)" style="fill:#2c242d"/><ellipse cx="967.26" cy="189.92" rx="12.52" ry="5.87" transform="translate(-8.05 47.01) rotate(-2.77)" style="fill:#2c242d"/><ellipse cx="284.38" cy="352.93" rx="24.85" ry="11.65" transform="matrix(0.99, -0.14, 0.14, 0.99, -47.92, 44.7)" style="fill:#2c242d"/><ellipse cx="303.49" cy="329.72" rx="13.11" ry="6.03" transform="translate(-12.6 12.06) rotate(-2.23)" style="fill:#2c242d"/><ellipse cx="343.29" cy="404.56" rx="14.39" ry="6.75" transform="translate(-22.41 20.13) rotate(-3.25)" style="fill:#2c242d"/><ellipse cx="425.94" cy="406.28" rx="12.52" ry="5.87" transform="matrix(1, -0.05, 0.05, 1, -19.16, 21.08)" style="fill:#2c242d"/><path d="M677.44,202.21s18.79,8.07,44.87,3.9,40.57-10.66,50.67-18.24-2.24-6.91-5.5-4.53-33.73,13.41-48,13.61-35.53-.54-42.89-2.09S668.87,199.3,677.44,202.21Z" style="fill:#2c242d"/><path d="M683,163.16s11.46-11.75,31.52-14.21,32.31-.06,41.68,4.36.23,6.77-2.77,5.4-28.09-4.05-38.47-.84-25.64,9-30.57,12.11S677.55,167.83,683,163.16Z" style="fill:#2c242d"/><path d="M405.94,595.09s19.87,4.85,44.9-3.58,38.25-17.23,47-26.37-3.36-6.44-6.18-3.56-31,18.8-45,21.36-35.13,5.34-42.65,5S397,593.64,405.94,595.09Z" style="fill:#2c242d"/><path d="M405,555.66s9.37-13.49,28.73-19.23,31.86-5.41,41.84-2.6,1.34,6.64-1.85,5.79-28.37.65-38.07,5.53-23.81,13.08-28.15,17S400.36,561.16,405,555.66Z" style="fill:#2c242d"/><path d="M192.2,478s19.87,4.85,44.9-3.58,38.24-17.23,47-26.37-3.36-6.44-6.18-3.56-31,18.8-45,21.36-35.13,5.34-42.64,5S183.26,476.52,192.2,478Z" style="fill:#2c242d"/><path d="M191.21,438.54s9.36-13.49,28.73-19.23,31.86-5.41,41.84-2.6,1.34,6.64-1.85,5.79-28.37.65-38.08,5.53-23.8,13.08-28.14,17S186.62,444,191.21,438.54Z" style="fill:#2c242d"/><path d="M897.86,279.68s15.53,10.12,38.77,8.19,36.6-7.36,46.25-14.3-1.21-7.39-4.31-5.22-30.93,10.83-43.38,9.74-31-3.83-37.23-6.12S890.69,275.87,897.86,279.68Z" style="fill:#2c242d"/><path d="M907,239.61a47.13,47.13,0,0,1,29.09-11.88c17.78-.71,28.23,2.91,35.93,8.37s-.54,7.05-3,5.36-24.09-6.8-33.51-4.42-23.37,7-28,9.78S901.72,244,907,239.61Z" style="fill:#2c242d"/><path d="M1102,15.18c10.59-2,33-1.69,44.28-.14,9.76,1.34,19.27,15.26,19.27,15.26l-10.78,2.87s-25.47-1.79-33.42-1.92-35.42,4-35.42,4a63.65,63.65,0,0,0-8.6-4.58C1079.66,26.37,1079.44,19.39,1102,15.18Z" style="fill:#3a2f3b"/><path d="M482.62,72.5c9.56-3.37,30.44-6.36,41.13-6.56,9.27-.17,20.12,11.39,20.12,11.39l-9.6,4.23s-23.92,2-31.33,3.07-32.34,8.81-32.34,8.81a60,60,0,0,0-8.66-3C463.51,86.15,462.28,79.69,482.62,72.5Z" style="fill:#3a2f3b"/><path d="M1029.08,153.44s-6.86-8.94-4-16.25,41.2-18.34,58.33-17.42c24.29,1.3,50.17,3.46,56.94,11.41s7,21,1.24,24.56-25.42,8.37-25.42,8.37,19.79-9.37,21.56-12.05,1.12-15.21-3-16.84-36.25-5.56-52.31-4.78c-23.56,1.15-42.86,4.93-47.94,9.93S1029.08,153.44,1029.08,153.44Z" style="fill:#2c242d"/><path d="M254.06,298.71s-10.16-9.35-7.64-18.56,46.5-26.09,72.83-30.75c30.93-5.48,63.77-5.91,73.66,2.26s12.16,23.67,5.39,28.94-31.21,14.65-31.21,14.65,24.56-16.52,27.16-19.52c4.33-5-5.34-19.89-11-20.67-14.67-2-43.58-1.57-64,2.34-30,5.72-57.94,16.12-63.67,23S254.06,298.71,254.06,298.71Z" style="fill:#2c242d"/><path d="M485.45,275.93s-5.21-5.59-3.75-10.72,26.65-15,38.28-15.53c16.5-.69,34.13-.9,39.21,4s6.06,13.75,2.43,16.51-16.64,7.3-16.64,7.3,12.77-7.61,13.79-9.53-.22-10.35-3.15-11.18-24.85-1.42-35.65.14c-15.84,2.3-28.63,6.1-31.75,9.8S485.45,275.93,485.45,275.93Z" style="fill:#2c242d"/><path d="M1097.83,106s-3.77-5.68-1.75-10,25.62-9.37,35.92-8.12c14.6,1.79,30.13,4.16,33.89,9.23s3.33,13-.26,14.87-15.69,4-15.69,4,12.33-4.84,13.51-6.38,1.3-9.14-1.15-10.29-21.64-4.85-31.37-5c-14.26-.28-26.06,1.21-29.34,4S1097.83,106,1097.83,106Z" style="fill:#2c242d"/><path d="M357.49,187.83c6.24,2.9,15.85,6.17,22.23,6.92s19.69.66,24-.59,15.65-2.41,15.65-2.41-9.84,4.74-15.31,5.46-23,3-28.3,1.83-23.2-9-24.47-10.44-6.24-6.28-5.51-6.34S357.49,187.83,357.49,187.83Z" style="fill:#2c242d"/><path d="M410.92,199.86c7-1.3,16.76-4.21,22.1-7.19s15.17-10.44,17.36-13.76,9.69-10.48,9.69-10.48-3.5,9-7,12.56-14.69,15-19.55,17.08-24.49,6.18-26.6,5.81-9.7-1.21-9.2-1.66S410.92,199.86,410.92,199.86Z" style="fill:#2c242d"/><path d="M384,370.8s23.25-11.41,35.5-11.41c14.79-6.34,35.92-11,46.06-10.14,17.75-7.6,44.37-12.68,51.55-11.83,14.79-3.8,38-8.87,50.71-10.14-11.41-2.11-43.1,3-50.71,5.91-12.25.43-43.95,5.92-51.55,11-14.79,1.69-38,5.49-44.37,10.56C406,358.13,387.84,369.11,384,370.8Z" style="fill:#2c242d"/><path d="M270.53,159.08s19.48-10.71,29.75-10.71c12.39-6,30.1-10.31,38.6-9.52,14.87-7.14,37.18-11.9,43.2-11.1,12.39-3.57,31.87-8.33,42.49-9.52-9.56-2-36.12,2.77-42.49,5.55-10.27.4-36.83,5.55-43.2,10.31-12.4,1.59-31.88,5.16-37.19,9.92C288.94,147.18,273.72,157.49,270.53,159.08Z" style="fill:#2c242d"/><path d="M420.08,373S443.71,362.4,456,362.83c15-5.82,36.28-9.72,46.38-8.52,18-7,44.79-11.12,51.94-10,14.91-3.28,38.32-7.53,51-8.36-11.33-2.51-43.18,1.45-50.88,4.14-12.27,0-44.13,4.37-51.91,9.17-14.84,1.17-38.2,4.16-44.71,9C442.49,361.09,423.94,371.43,420.08,373Z" style="fill:#2c242d"/><path d="M966.32,360.12s23.8-6.48,35.16-3.87c15-3.2,35.48-3.35,44.71-.34,18-3.85,43.65-3.25,50.14-.87,14.47-.66,37-.79,49,.65-10.16-4.56-40.55-6.23-48.18-4.89-11.45-2.19-41.92-3.44-50,0-14-1.46-36.35-2.6-43.22,1.13C989.19,352.1,970.18,359.24,966.32,360.12Z" style="fill:#2c242d"/><path d="M627.32,574.12s23.8-6.48,35.16-3.87c15-3.2,35.48-3.35,44.71-.34,18-3.85,43.65-3.25,50.14-.87,14.47-.66,37-.79,49,.65-10.16-4.56-40.55-6.23-48.18-4.89-11.45-2.19-41.92-3.44-50,0-14-1.46-36.35-2.6-43.22,1.13C650.19,566.1,631.18,573.24,627.32,574.12Z" style="fill:#2c242d"/><path d="M895.43,124.56s19.77-10.28,30.21-10c12.58-5.67,30.57-9.55,39.21-8.49,15.1-6.79,37.76-10.94,43.88-10,12.59-3.24,32.38-7.48,43.17-8.36-9.72-2.31-36.7,1.71-43.17,4.33-10.44.09-37.42,4.51-43.89,9.15-12.59,1.23-32.38,4.26-37.77,8.93C914.12,113,898.67,123,895.43,124.56Z" style="fill:#2c242d"/><path d="M946.88,371.88s24-5.58,35.27-2.54c15.06-2.63,35.56-2,44.7,1.36,18.07-3.16,43.72-1.59,50.13,1,14.48-.11,37,.62,49,2.51-10-4.94-40.32-7.77-48-6.71-11.36-2.63-41.78-5-49.94-1.88-14-2-36.24-4-43.23-.51C970,364.72,950.77,371.14,946.88,371.88Z" style="fill:#2c242d"/><path d="M419.73,343.07s17-5.4,25.7-5.4c10-2.57,19.79-5.4,26.73-5.14,10.28-2.57,16.71-3.86,24.93-3.6-9.51-1.54-19-1.28-25.18,1-13.37,1.28-20.31,2.83-26.48,4.88C436.18,335.61,423.84,340.24,419.73,343.07Z" style="fill:#2c242d"/><path d="M625.35,583s17.7-1.92,26.26-.18c10.34-.53,20.47-1.36,27.22.27,10.59-.47,17.14-.46,25.15,1.43-9-3.4-18.39-5-24.89-4-13.36-1.4-20.46-1.26-26.92-.47C643,579,629.94,581.05,625.35,583Z" style="fill:#2c242d"/><path d="M721.08,295s25.37-2.65,37.44.19c14.77-.63,29.27-1.73,38.77.92,15.13-.55,24.46-.4,35.74,2.66-12.6-5.42-25.83-8.12-35.18-6.63-18.93-2.4-29.07-2.32-38.32-1.22C746.47,289.1,727.77,292.08,721.08,295Z" style="fill:#2c242d"/><path d="M779.15,383.59s21.22-14.13,33.24-17.23c12.78-7.42,25.11-15.14,34.75-17.21,13.13-7.52,21.47-11.73,32.87-14.26-13.67,1.06-26.64,4.82-34.22,10.48-17.88,6.68-26.82,11.46-34.5,16.74C798.87,366.55,783.71,377.88,779.15,383.59Z" style="fill:#2c242d"/><path d="M818.84,373.5s23.19-10.59,35.55-11.75c13.79-5.3,27.19-11,37-11.49,14.16-5.33,23.05-8.17,34.72-8.86-13.67-1.12-27.08.53-35.46,4.93C872,350.08,862.4,353.39,854,357.38,841,359.8,824.24,368.59,818.84,373.5Z" style="fill:#2c242d"/><path d="M362.79,119.21s17.16-4.72,25.89-4.37c10.12-2.17,20-4.6,26.91-4.07,10.38-2.16,16.85-3.19,25.06-2.6-9.44-1.92-19-2-25.21,0-13.41.75-20.4,2-26.65,3.83C379.52,112.42,367,116.55,362.79,119.21Z" style="fill:#2c242d"/><path d="M538.49,81.55s17.27-4.33,26-3.79c10.16-2,20.08-4.16,27-3.47,10.42-1.93,16.92-2.81,25.11-2.05-9.4-2.13-18.9-2.46-25.2-.53-13.42.45-20.44,1.56-26.73,3.23C555.37,75.13,542.77,79,538.49,81.55Z" style="fill:#5e4a60"/><path d="M823.35,94.17s17.38-3.87,26.08-3.1c10.21-1.68,20.19-3.63,27.08-2.76,10.47-1.65,17-2.36,25.15-1.38-9.34-2.38-18.83-3-25.18-1.2-13.42.1-20.47,1-26.8,2.52C840.4,88.2,827.7,91.72,823.35,94.17Z" style="fill:#5e4a60"/><path d="M1126.41,32.17s19.18-2.64,28.66-1.25c11.24-1,22.24-2.19,29.73-.83,11.53-.91,18.68-1.16,27.57.41-10.09-3-20.45-4.3-27.47-3-14.68-.86-22.43-.44-29.42.62C1145.33,27.42,1131.28,30,1126.41,32.17Z" style="fill:#5e4a60"/><path d="M1176.92,49.16s25.78-2.27,38.72-.68c15.16-.72,30-1.75,40.21-.23,15.53-.68,25.2-.79,37.35,1-13.89-3.26-28-4.73-37.42-3.56-20-1.16-30.41-.89-39.8,0C1202.19,44.76,1183.36,47.1,1176.92,49.16Z" style="fill:#5e4a60"/><path d="M853.41,107s17.35-4,26.06-3.29c10.2-1.75,20.16-3.77,27-3,10.46-1.73,17-2.48,25.14-1.56-9.35-2.31-18.85-2.83-25.18-1-13.43.19-20.47,1.17-26.78,2.71C870.41,100.86,857.74,104.47,853.41,107Z" style="fill:#2c242d"/><path d="M577.26,116.23s-9.93-1.36-13-4.09,6.4-11.77,14-13.87,31.69-5.84,36.16-5.13S625.59,95.64,627,99c4.58-2.51,13.76-7.93,20.51-8.55,5.91-.53,12.39,1.09,12.23,3.06s-3,6-5.62,7.37c5.84-2,10.63-5.44,8.79-8.22s-8.43-7.2-16.79-6.49S633.15,88.93,628.83,92c-4.24-5.25-10.06-5.76-15.73-5.52s-26.88,1.76-38.54,6.18S557,109.06,559.34,112.7,571.57,115.94,577.26,116.23Z" style="fill:#2c242d"/><path d="M591.75,117.33s18.58-4,26.85-7.61C611.1,118.8,601.07,118.8,591.75,117.33Z" style="fill:#2c242d"/><path d="M569.4,122s23.17.24,34-1.78C593.49,125.57,580.08,127,569.4,122Z" style="fill:#2c242d"/><ellipse cx="408.65" cy="92.1" rx="13.48" ry="7.81" transform="matrix(0.99, -0.15, 0.15, 0.99, -9.14, 61.61)" style="fill:#3a2f3b"/><polygon points="954.78 123.02 954.38 153.48 968.11 153.66 968.51 122.41 954.78 123.02" style="fill:#876484"/><path d="M939.39,153.32s12.25-5.36,21.6.23a54.32,54.32,0,0,1,11.19-2.32l8.9,2.88,8.84,1.41-11,2.93L970.09,157l-11.78.47-8.09-2.46Z" style="fill:#2c242d"/><path d="M958.38,291.21s25.46-11.51,29.7-15.35,8.69-6.26,10.3-8.89,5-1.61,3.64,1.62-5.46,11.31-10.3,15.35-26.47,11.52-31.92,11.92S953.33,292.43,958.38,291.21Z" style="fill:#2c242d"/><path d="M685.94,502.54s14.93,9.59,36.56,6.69,33.9-8.93,42.64-16.34-1.44-7.41-4.25-5.09S732.44,500,720.76,499.41s-29.1-2.61-35-4.67S679.08,499,685.94,502.54Z" style="fill:#2c242d"/><path d="M692.8,466.42s10.1-11.74,26.69-13.19,26.5,1.79,33.92,7-.21,7.15-2.59,5.54-22.79-5.88-31.5-3.09-21.56,8-25.78,11S688.06,471,692.8,466.42Z" style="fill:#2c242d"/><path d="M1287.44,196.61s14.18,10.67,36,9.39,34.47-6.39,43.73-13.13-.88-7.5-3.86-5.4-29.28,10.07-40.88,8.6-28.83-4.76-34.61-7.25S1280.86,192.55,1287.44,196.61Z" style="fill:#2c242d"/><path d="M1297,161.1s11-11,27.6-11.17,26.29,3.75,33.31,9.49-.74,7.11-3,5.33-22.29-7.56-31.18-5.42-22.09,6.36-26.53,9.08S1291.9,165.34,1297,161.1Z" style="fill:#2c242d"/><path d="M738.59,514s24.74-9.6,29-13.14,8.64-5.62,10.38-8.14,4.85-1.24,3.25,1.91-6.08,11-11,14.66-25.68,9.53-30.8,9.51S733.78,514.82,738.59,514Z" style="fill:#2c242d"/><circle cx="1060.12" cy="183.71" r="10.65" style="fill:#876484"/><path d="M1047.19,183.13a15,15,0,0,0,12.38,5.39c9.22-.35,13-6,13-6l2.86,6.67s.31,5.07-.64,5.71-10.47,3.81-10.47,3.81l-11.75-.32-11.11-8.25Z" style="fill:#3a2f3b"/><path d="M1045.36,183.14s-2.35,3.62-.9,4.89,7.06,3.62,10.86,3.8a27,27,0,0,0,9.41-.9c-2.89,2.53-8,4.16-10.86,3.62s-12.3-1.28-12.4-4.44S1045.36,183.14,1045.36,183.14Z" style="fill:#2c242d"/><path d="M1061.48,196.36s4.55-3.28,6.54-4.83,5.15-2.7,6.54-4.44-.6-4.64,0-5.22c2.77.58,3.57,4.25,2.18,6.38s-5.75,4.63-6.94,5S1061.48,196.36,1061.48,196.36Z" style="fill:#2c242d"/><path d="M1045.91,196c-.53-.23,8.13,2.35,9.88,2.35a55.51,55.51,0,0,0,7.55-.72c3.87-.73,6.78-.91,10.27-3.63-1.75,2.9-10.46,7.25-15.31,7.07S1048,196.9,1045.91,196Z" style="fill:#2c242d"/><circle cx="1872.04" cy="206.47" r="10.65" style="fill:#876484"/><path d="M1859.24,204.53A15,15,0,0,0,1871,211.2c9.21.62,13.58-4.63,13.58-4.63l2.14,6.93s-.22,5.08-1.23,5.61-10.82,2.69-10.82,2.69L1863,220.25l-10.19-9.37Z" style="fill:#3a2f3b"/><path d="M1857.42,204.36s-2.72,3.35-1.41,4.76,6.64,4.35,10.4,4.93a27.13,27.13,0,0,0,9.46.09c-3.15,2.21-8.36,3.3-11.18,2.46s-12.1-2.57-11.87-5.72S1857.42,204.36,1857.42,204.36Z" style="fill:#2c242d"/><path d="M1872.06,219.19s4.88-2.78,7-4.11,5.41-2.15,7-3.73-.1-4.67.55-5.18c2.7.86,3.1,4.6,1.5,6.56s-6.2,4-7.43,4.27S1872.06,219.19,1872.06,219.19Z" style="fill:#2c242d"/><path d="M1856.62,217.2c-.51-.28,7.84,3.19,9.57,3.38a56.1,56.1,0,0,0,7.59.07c3.93-.31,6.84-.19,10.59-2.52-2,2.7-11.16,6.1-16,5.41S1858.64,218.32,1856.62,217.2Z" style="fill:#2c242d"/><circle cx="582.07" cy="172.02" r="10.65" style="fill:#876484"/><path d="M569.16,173a15,15,0,0,0,12.93,3.88c9.12-1.45,12.21-7.54,12.21-7.54l3.63,6.28s.92,5,.05,5.75-10,5-10,5l-11.7,1.09-12-6.87Z" style="fill:#3a2f3b"/><path d="M567.35,173.22s-1.9,3.87-.32,5,7.45,2.75,11.24,2.48a27.28,27.28,0,0,0,9.24-2c-2.57,2.86-7.41,5.08-10.35,4.89s-12.37.2-12.84-2.93S567.35,173.22,567.35,173.22Z" style="fill:#2c242d"/><path d="M584.92,184.42s4.14-3.81,5.92-5.58,4.8-3.3,6-5.19-1.14-4.53-.62-5.17c2.82.24,4,3.79,2.92,6.06s-5.15,5.29-6.29,5.82S584.92,184.42,584.92,184.42Z" style="fill:#2c242d"/><path d="M569.42,185.91c-.55-.16,8.36,1.37,10.09,1.16a55.25,55.25,0,0,0,7.42-1.62c3.76-1.18,6.62-1.7,9.76-4.82-1.39,3.09-9.52,8.44-14.35,8.84S571.65,186.56,569.42,185.91Z" style="fill:#2c242d"/><circle cx="975.32" cy="437.18" r="10.65" style="fill:#876484"/><path d="M962.46,435.74a15,15,0,0,0,12,6.21c9.23.26,13.39-5.16,13.39-5.16l2.41,6.85s0,5.08-1,5.65-10.7,3.11-10.7,3.11l-11.7-1.1-10.54-9Z" style="fill:#3a2f3b"/><path d="M960.64,435.64s-2.59,3.45-1.23,4.81,6.8,4.08,10.59,4.52a26.85,26.85,0,0,0,9.45-.28c-3.06,2.34-8.23,3.63-11.08,2.89s-12.19-2.09-12.08-5.25S960.64,435.64,960.64,435.64Z" style="fill:#2c242d"/><path d="M975.84,449.89s4.76-3,6.84-4.38,5.33-2.35,6.83-4-.29-4.66.34-5.2c2.73.76,3.28,4.48,1.76,6.51s-6.05,4.24-7.26,4.54S975.84,449.89,975.84,449.89Z" style="fill:#2c242d"/><path d="M960.33,448.5c-.52-.26,8,2.89,9.7,3a54.44,54.44,0,0,0,7.58-.22c3.92-.46,6.83-.45,10.49-2.93-1.94,2.78-10.92,6.53-15.74,6S962.39,449.54,960.33,448.5Z" style="fill:#2c242d"/><path d="M295.69,248s44.77-10.7,56-10.14,18.14,1.23,29.29,4.41c-10.36-5.79-26.23-11-34.39-10.05s-20.41,3-27.86,4.47S295.69,248,295.69,248Z" style="fill:#2c242d"/><path d="M416.5,294s10.21,3.48,14.14,3.15,12.91-1.69,16.06-4.61c-2.25,3-4.16,6.18-7.64,6.85s-7,1.8-12.23.45S419.08,296,416.5,294Z" style="fill:#2c242d"/><path d="M870.56,195.55s10.22,3.48,14.15,3.14,12.91-1.68,16-4.6c-2.24,3-4.15,6.17-7.63,6.85s-7,1.79-12.24.44S873.15,197.57,870.56,195.55Z" style="fill:#2c242d"/><path d="M1071.5,272.66s19.66,14.66,35.66,15.66,29,0,41.67-4c-6.33,6.34-29.33,12.34-43,9.34S1081.5,287.32,1071.5,272.66Z" style="fill:#2c242d"/><path d="M1497.24,516.68c40.81-.91,74.61,15.2,78.07,36.52a23.35,23.35,0,0,0,1.34-8.22c-.51-22.84-35.6-40.59-78.38-39.63s-77,20.24-76.53,43.09a21.56,21.56,0,0,0,.31,3.11C1428.74,532.47,1459.71,517.51,1497.24,516.68Z" style="fill:#2c242d"/><path d="M1427.35,581.92s29.36,21.89,53.24,23.38,43.29,0,62.19-6c-9.45,9.46-43.78,18.41-64.18,13.93S1442.28,603.81,1427.35,581.92Z" style="fill:#2c242d"/><path d="M1258.41,310.28c40.81-.91,74.6,15.2,78.07,36.52a23.32,23.32,0,0,0,1.34-8.22c-.51-22.84-35.6-40.59-78.38-39.63s-77,20.24-76.54,43.09a24.82,24.82,0,0,0,.31,3.11C1189.91,326.07,1220.88,311.11,1258.41,310.28Z" style="fill:#2c242d"/><path d="M1188.52,375.52s29.36,21.89,53.24,23.38,43.28,0,62.19-6c-9.45,9.46-43.78,18.41-64.18,13.93S1203.45,397.41,1188.52,375.52Z" style="fill:#2c242d"/><path d="M1535.23,276.42s-3.89-15,1.34-22.86c5.8-8.76,31.63-13.64,51.85-13.55,24.47.1,51.63,3.5,58.36,13.72s6.84,26.56,1.09,30.73-25.5,9.28-25.5,9.28S1642.24,283,1644,279.69s1.22-18.94-3-21.17-37.71-9.42-53.8-9.18c-23.6.35-38.19,2.42-43.31,8.42S1535.23,276.42,1535.23,276.42Z" style="fill:#2c242d"/><path d="M1681.63,210.11s3-7.1,1-12.24-23-10.18-32-8.14c-12.74,2.89-26.27,6.53-29.33,12.89s-2.3,16,1,18.12,14,4.12,14,4.12-11.06-5.3-12.17-7.12-1.6-11.07.5-12.6,18.79-7,27.32-7.67c12.53-1,23,.21,26,3.47S1681.63,210.11,1681.63,210.11Z" style="fill:#2c242d"/><path d="M1414.91,232.61s19.77-10.28,30.21-10c12.58-5.66,30.57-9.55,39.21-8.48,15.1-6.8,37.76-10.95,43.88-10,12.59-3.24,32.38-7.48,43.17-8.36-9.72-2.31-36.7,1.71-43.17,4.34-10.44.08-37.42,4.51-43.89,9.14-12.59,1.23-32.38,4.26-37.77,8.93C1433.6,221.09,1418.15,231.1,1414.91,232.61Z" style="fill:#2c242d"/><path d="M1415.59,381.75s14.25,11.86,37.55,12.65,37.21-3,47.61-8.82-.34-7.48-3.68-5.68-32,7.16-44.21,4.62-30.32-7.42-36.27-10.42S1408.91,377.13,1415.59,381.75Z" style="fill:#2c242d"/><path d="M1429.32,343a47.16,47.16,0,0,1,30.27-8.41c17.74,1.37,27.7,6.18,34.71,12.5s-1.36,6.94-3.62,5-23.13-9.55-32.76-8.28-24,4.18-29,6.44S1423.59,346.71,1429.32,343Z" style="fill:#2c242d"/><path d="M1474.36,400.26s26.62-8.48,31.28-11.79,9.36-5.21,11.27-7.63,5.2-1,3.42,2-6.73,10.6-12,14-27.62,8.36-33.09,8.12S1469.2,400.87,1474.36,400.26Z" style="fill:#2c242d"/><path d="M2207.05,559.46c18,2.77,31.63,12.49,31.49,22.13a10.28,10.28,0,0,0,1.23-3.51c1.55-10.08-12.5-20.62-31.38-23.53s-35.46,2.91-37,13a10.7,10.7,0,0,0-.1,1.39C2175.7,561.07,2190.48,556.9,2207.05,559.46Z" style="fill:#2c242d"/><path d="M2171.24,582.71s11.2,11.91,21.59,14.43,19,3.36,27.82,2.21c-4.9,3.42-20.69,4.69-29.31,1.13S2176.1,593.5,2171.24,582.71Z" style="fill:#2c242d"/><path d="M1618.59,588.25c21.56-1.94,40,5.38,42.61,16.54a12.15,12.15,0,0,0,.41-4.4c-1.08-12.07-20.28-20.2-42.88-18.17s-40,13.47-39,25.54a12.59,12.59,0,0,0,.27,1.63C1582.91,599.06,1598.76,590,1618.59,588.25Z" style="fill:#2c242d"/><path d="M2018.79,308.86c21.53,2.25,38.22,13,38.62,24.44a12.5,12.5,0,0,0,1.26-4.24c1.25-12.05-16-23.73-38.59-26.09s-41.88,5.5-43.14,17.55a13.15,13.15,0,0,0,0,1.66C1981.7,312.59,1999,306.79,2018.79,308.86Z" style="fill:#2c242d"/><path d="M2353.7,137.31c21.3,3.82,37.6,13.8,37.7,22.78a7.58,7.58,0,0,0,1.35-3.18c1.56-9.3-15.28-20.08-37.61-24.08s-41.7.28-43.26,9.58a7.84,7.84,0,0,0-.09,1.29C2316.8,136.66,2334.1,133.79,2353.7,137.31Z" style="fill:#2c242d"/><path d="M2346.39,173.61c-25.55-4.59-45.09-16.56-45.21-27.33a9.16,9.16,0,0,0-1.63,3.82c-1.87,11.14,18.33,24.07,45.11,28.87s50-.33,51.88-11.48a8.91,8.91,0,0,0,.1-1.55C2390.64,174.38,2369.89,177.82,2346.39,173.61Z" style="fill:#2c242d"/><path d="M2158.51,242c10.72,1.06,19.2,5.37,19.6,9.82a3.8,3.8,0,0,0,.55-1.64c.4-4.67-8.38-9.35-19.62-10.45s-20.67,1.79-21.08,6.46a3.42,3.42,0,0,0,0,.64C2140.18,243.11,2148.65,241,2158.51,242Z" style="fill:#2c242d"/><path d="M2155.89,263.05c-15.13-1.49-27.1-7.57-27.67-13.86a5.32,5.32,0,0,0-.77,2.31c-.57,6.6,11.82,13.2,27.68,14.76s29.19-2.53,29.76-9.12a4.61,4.61,0,0,0,0-.91C2181.77,261.44,2169.81,264.41,2155.89,263.05Z" style="fill:#2c242d"/><path d="M1584,625.27s16.31,10.53,29,10.47,22.9-1.55,32.69-5.38c-4.66,5.34-22.51,11.3-33.46,9.66S1592.63,636.32,1584,625.27Z" style="fill:#2c242d"/><path d="M370.36,485.21s100.37-28.45,108.57-31.87.17-8.47-7.37-6.66c-28.28,6.8-100.94,25.5-95.66,24.44Z" style="fill:#2c242d"/><circle cx="372.58" cy="475.9" r="12.29" style="fill:#876484"/><path d="M358.24,492.7s8.37.62,12.28.47,10.34-2.73,10.34-2.73l11.65,1.14-7.59,10.31-28.23.78-9.47-9.75Z" style="fill:#3a2f3b"/><path d="M350.19,488.51c-1.25-.92,5.8.87,7.21,1.53s12.45,1.6,14.94.79,9.48-3.62,9.48-3.62l9.81-1.48,8.76-2.63s-6.61,5.36-9.16,5.74-7.8.31-10.17,2-4.3,3.27-7.78,3.36-13.89.36-16.71-1S350.68,488.88,350.19,488.51Z" style="fill:#2c242d"/><path d="M379.67,497.27c1.46-.22,5.41-3.81,8.34-4.26s8.16-.48,11.71-1.77,12-4.81,17.33-4.12,11.09-.93,16.1-2.44a114.54,114.54,0,0,1,13.68-3.57c3.66-.55,23.13-.5,23.13-.5l-3.11,4.21s-16.87-2.69-21-.56-9.07,4.37-13.57,4.3-8.05,1.22-13.9,2.11-14.41,3.68-18.07,4.23-11.09.93-11.09.93Z" style="fill:#2c242d"/><path d="M406.82,483.19c1.45-.26,5.3-4,8.22-4.48s8.14-.71,11.65-2.09,11.86-5.13,17.22-4.59,11.06-1.23,16-2.87a111.73,111.73,0,0,1,13.57-3.94c3.65-.65,23.11-1.14,23.11-1.14l-5.71,2s-14.22.07-18.33,2.31-8.95,4.61-13.45,4.67-8,1.44-13.84,2.48-14.3,4.07-18,4.72-11,1.23-11,1.23Z" style="fill:#2c242d"/><path d="M381.12,461.46c1.31-.36,4.4-4.47,7-5.19s7.4-1.21,10.47-2.87,10.29-6.08,15.28-5.82,10-1.92,14.4-3.94a91,91,0,0,1,12-4.92c3.27-.9,21.11-2.51,21.11-2.51s-18.08,3.31-21.59,5.91-7.68,5.37-11.81,5.68-7.2,2-12.43,3.4-12.67,5.11-15.94,6-10,1.93-10,1.93Z" style="fill:#2c242d"/><path d="M359.28,481.56s5.78.95,11,1.65a21.36,21.36,0,0,0,15.51-4.13L380,487.56l-13.65,2.27Z" style="fill:#3a2f3b"/><path d="M1602,136s-92.21-6.42-100-7.89-1.68-7.31,5.19-7.11c25.76.74,92.17,3.75,87.4,3.79Z" style="fill:#2c242d"/><circle cx="1598.42" cy="128.37" r="10.89" style="fill:#876484"/><path d="M1589.1,130.53a10.87,10.87,0,0,1,17.75-9,10.88,10.88,0,1,0-15.31,15.29A10.88,10.88,0,0,1,1589.1,130.53Z" style="fill:#af97ae"/><path d="M1613.92,140.33s-7.15,2.07-10.56,2.64-9.47-.48-9.47-.48l-9.9,3.11,8.46,7.55,24.62-4.45,6.44-10.18Z" style="fill:#3a2f3b"/><path d="M1620.14,135.24c.91-1-4.88,1.8-6,2.63s-10.5,3.66-12.81,3.4-8.88-1.41-8.88-1.41l-8.78.5-8.07-.69s6.7,3.45,9,3.32,6.82-1.15,9.17-.14,4.33,2.05,7.36,1.5,12.12-2.22,14.32-3.87A29.33,29.33,0,0,0,1620.14,135.24Z" style="fill:#2c242d"/><path d="M1596.16,148.19c-1.31.08-5.38-2.32-8-2.17s-7.17,1.06-10.48.59-11.27-2-15.78-.42-9.78,1.21-14.4.81a101.07,101.07,0,0,0-12.52-.6c-3.27.18-20.14,3.76-20.14,3.76l3.46,3.09s14.14-5.4,18.14-4.31,8.66,2.14,12.55,1.26,7.2-.41,12.44-.7,13.17.57,16.44.38,9.78-1.21,9.78-1.21Z" style="fill:#2c242d"/><path d="M1570.06,140.92c-1.31,0-5.32-2.47-7.94-2.39s-7.19.87-10.49.31-11.22-2.3-15.77-.85-9.81.94-14.42.42a102.34,102.34,0,0,0-12.49-.95c-3.27.1-20.24,3.22-20.24,3.22l5.32.69s12.34-2.52,16.31-1.32,8.6,2.37,12.51,1.6,7.21-.21,12.45-.37,13.15.93,16.43.83,9.81-.94,9.81-.94Z" style="fill:#2c242d"/><path d="M1588.4,117.4c-1.2-.07-4.64-3.08-7-3.22s-6.64.29-9.6-.58-10-3.41-14.31-2.27-9,.15-13.2-.8a80.17,80.17,0,0,0-11.32-2.08c-3-.19-18.77,1.66-18.77,1.66s16.29-.42,19.8,1.2,7.63,3.25,11.28,2.78,6.6.4,11.4.69,11.91,2.12,14.91,2.3,9-.15,9-.15Z" style="fill:#2c242d"/><path d="M1611,130.86s-4.84,1.87-9.21,3.43a18.9,18.9,0,0,1-14.2-.77l6.57,6.3,12.24-.51Z" style="fill:#3a2f3b"/><ellipse cx="1471.04" cy="122.07" rx="11.04" ry="4.46" style="fill:#2c242d"/><ellipse cx="1435.74" cy="119.3" rx="8.8" ry="3.55" style="fill:#2c242d"/><path d="M534.06,480s.54,8.11,2.89,9.61c6.87,4.37,15.42.52,15.42.52s4.83-.71,9.59-1.43c2.5-.51,6.69-1.91,6.69-1.91l8.1-.84,6.75-.62,4.79-1.62,7-.86,10.82-1.7,2.69-.15,2.06-2.08-.85-3.05L608.79,473l-2.66-2.63-.92-2.76L535.82,478Z" style="fill:#2c242d"/><polygon points="540.99 488.7 612.25 476.49 605.29 465.52 534.52 477.66 540.99 488.7" style="fill:#876484"/><ellipse cx="1020.51" cy="497.12" rx="6.4" ry="11.26" transform="translate(449.65 1478.29) rotate(-85.78)" style="fill:#2c242d"/><path d="M745.12,312.76s3.53,7.33,6.26,7.84c8,1.5,14.5-5.26,14.5-5.26s4.22-2.45,8.37-4.89c2.14-1.41,5.5-4.27,5.5-4.27l7.2-3.8,6-3.08,3.84-3.3,6.15-3.39,9.41-5.6,2.44-1.14,1.13-2.7L814,280.65l-2.17-2.21L808.42,277l-1.87-2.22L746,310.3Z" style="fill:#2c242d"/><polygon points="754.81 318.29 816.39 280.41 805.85 272.82 744.69 310.45 754.81 318.29" style="fill:#876484"/><polygon points="760.86 347.16 768.24 347.22 766.34 352.22 760.86 347.16" style="fill:#876484"/><path d="M716.24,334s-4.87,3.65-5.42,4.15-2,2.37-1.79,3.8,3.59,2.49,6,2.83,15.16,3.15,18.29,4.56a24.59,24.59,0,0,0,6.89,1.72s4.81-.16,7.47.9,2.27-2.49,2.27-2.49l-7.44-2.78s6.3.3,7.52.12-2.53-3-2.53-3l1.58-3.36-2.38-1.94Z" style="fill:#2c242d"/><polygon points="717.78 330.25 711.2 340.52 747.6 349.17 742.86 345.16 751.89 344.39 745.75 340.89 749.21 337.7 717.78 330.25" style="fill:#876484"/><path d="M761.61,332.58l-2.49,1.82,2.06,2.25,3.74-1.36,2.64-.72-.1,4.1,4.07.7-3.14.72L767,342.47s7.84-.59,12-2.18c5.24-.32,14.77-3.2,16.55-4.19a59.37,59.37,0,0,1,8-.86s3.16-1.32,2.27-3.23-5.05-7.16-5.05-7.16l-4.61-1.11Z" style="fill:#2c242d"/><polygon points="758.63 332.46 762.16 331.48 796.56 322 803.16 332.5 766.41 341.01 771.5 337.59 766.95 336.8 767.83 332.83 762.24 334.86 758.63 332.46" style="fill:#876484"/><path d="M1945.38,471.39s7.68,4.36,10.43,5.05a97.88,97.88,0,0,1,9.77,3.8,22,22,0,0,0,6.28,2.71c3.56.85,4.09,1.73,6.68,2.13s6.37,1.36,6.93,1.18,5.57-6.47,6.57-8.67-2.7-3.31-2.7-3.31L1950.14,461l-12.3,8.17Z" style="fill:#2c242d"/><path d="M1934.35,467.46s-10.66-4.54-12.94-5.4-4.4-1.7-4.4-1.7-.14-2.85,2-3.41,10.09-5.12,10.09-5.12l15.2,7.67Z" style="fill:#2c242d"/><path d="M1901.12,486.76s6.66,6.2,9.39,6.72a42,42,0,0,0,11.37-4.14s4.22-2.45,8.37-4.89c2.14-1.41,5.5-4.27,5.5-4.27l7.2-3.8,6-3.08,3.84-3.3,6.15-3.39,9.41-5.6,2.44-1.14,1.13-2.7-1.92-2.52-2.17-2.21-3.45-1.44-1.87-2.22L1902,484.3Z" style="fill:#2c242d"/><polygon points="1910.81 492.29 1972.39 454.41 1961.85 446.82 1900.69 484.45 1910.81 492.29" style="fill:#876484"/><polygon points="1939.4 460.59 1952.24 466.68 1949.48 468.34 1934.97 463.58 1939.4 460.59" style="fill:#4e6d61"/><polygon points="1915.43 451.69 1985.7 486.33 1995.6 476.43 1924.86 443.04 1915.43 451.69" style="fill:#876484"/><path d="M490.62,224.15c.61-.21,10.46-2.26,10.46-2.26a141.78,141.78,0,0,1,14.57-2,41.75,41.75,0,0,0,10.88-2.46l18.05.61-17.23,3.08-9.44,2.87-15.39,1.65-13.75,2.87Z" style="fill:#2c242d"/><polygon points="490.19 197.23 481.98 232.54 494.68 231.36 502.69 200.5 490.19 197.23" style="fill:#876484"/><path d="M506.21,228.05l15.8-.82s11.7,1,12.31,1,27.91-.82,27.91-.82a140.17,140.17,0,0,0,19.7,0c8.82-.82,26.88,1.64,26.88,1.64s-25.45,1.44-26.06,1.44-13.75-.2-21.14.21S533.5,232,533.5,232l-12.92-.41-15.8-.21Z" style="fill:#2c242d"/><path d="M476.83,233.28s9.43-5.85,17.76-2.37a44.72,44.72,0,0,1,8.9-3.22l7.64,1.31,7.43.11-8.68,3.7-7.42-.11-9.6,1.77-6.93-1.06Z" style="fill:#2c242d"/><path d="M462.92,234.61s7.79-1.84,14.36,2.47c8.82.61,14.16.61,14.16.61s-12.52,2.05-15.8,3.7C468.25,237.9,466.41,234.41,462.92,234.61Z" style="fill:#2c242d"/><path d="M125.68,204.34s15.9-11.52,27-10.28c12.58-2.25,21.64-5.57,28.83-5.43,9-2.92,18.76-4.58,27.09-3.55s8.7,6.66,1.11,6.48-17.79-1.32-24.89,2.54c-3.69-1-14.72-.17-30.8,6.59C141.6,201,125.68,204.34,125.68,204.34Z" style="fill:#2c242d"/><path d="M153.39,184.47s13.59-7.6,22-5.45c10-.49,17.35-2.22,22.9-1.35,7.3-1.41,15-1.73,21.33,0s6,6.26.13,5.33-13.6-2.92-19.52-.55c-2.75-1.18-11.36-1.67-24.56,2.08C166.08,183.41,153.39,184.47,153.39,184.47Z" style="fill:#2c242d"/><path d="M961.83,25.44s-7.22,4.39-11,10.76C952.2,31.53,960,24,960,24Z" style="fill:#5e4a60"/><path d="M1044.61,21s7,5.45,10.26,9.41a46.05,46.05,0,0,0-9.06-10.9Z" style="fill:#5e4a60"/><path d="M676.89,159.76a94.85,94.85,0,0,1,7.87-6.83,45.4,45.4,0,0,1,8.92-5.59,95.66,95.66,0,0,1,20.23-5.49c1.75-.23,3.51-.39,5.28-.45s3.47-.09,5.21-.1c3.47,0,7,0,10.42.17a59.45,59.45,0,0,1,10.42,1.21,11.82,11.82,0,0,1,2.51.95l2.34,1.11c1.58.71,3.16,1.42,4.75,2.11q-2.51-.73-5-1.62l-2.44-.91a10.68,10.68,0,0,0-2.42-.68,69.68,69.68,0,0,0-10.25-.61c-3.44,0-6.9,0-10.35.16l-5.18.17a48.25,48.25,0,0,0-5.07.47,83.23,83.23,0,0,0-10,2c-3.3.85-6.68,1.83-9.86,2.91a50.25,50.25,0,0,0-8.94,4.94C682.43,155.59,679.66,157.66,676.89,159.76Z" style="fill:#5e4a60"/><path d="M360.22,154.51c1.74-1.49,3.54-2.91,5.36-4.3s3.67-2.75,5.58-4a68,68,0,0,1,5.91-3.61,43.38,43.38,0,0,1,6.39-2.76,117.11,117.11,0,0,1,13.31-3.66c4.5-1,9-1.79,13.58-2.39a134.93,134.93,0,0,1,13.75-1.06,97.79,97.79,0,0,1,13.79.44,18.16,18.16,0,0,1,6.76,1.82c1,.75,1.78,1.47,2.7,2.18s1.8,1.4,2.72,2.08q5.51,4.07,11.35,7.66a136.13,136.13,0,0,1-11.64-7.26q-1.41-1-2.79-2l-1.37-1a13.93,13.93,0,0,0-1.34-1,10.83,10.83,0,0,0-3.15-.91c-1.1-.17-2.22-.29-3.35-.37a118.92,118.92,0,0,0-13.61.13c-4.53.26-9.08.66-13.56,1.27a173.76,173.76,0,0,0-26.6,5.74,47.78,47.78,0,0,0-6.28,2.45c-2,1-4,2.08-6,3.24C367.84,149.44,364,152,360.22,154.51Z" style="fill:#5e4a60"/><path d="M1695.07,74.37a127.77,127.77,0,0,1,11.8-5.81c2-.86,4.08-1.66,6.17-2.36a39.85,39.85,0,0,1,6.47-1.66,154,154,0,0,1,26.3-2c2.2.07,4.42.23,6.61.46s4.36.46,6.54.72c4.35.54,8.7,1.08,13,1.81a94.56,94.56,0,0,1,12.9,2.81,22.75,22.75,0,0,1,3.08,1.3l2.94,1.45q2.94,1.44,5.87,2.94c-2-.8-4.07-1.61-6.09-2.45l-3-1.25a20.26,20.26,0,0,0-3-1,114.16,114.16,0,0,0-12.85-2.21c-4.33-.54-8.66-1-13-1.47s-8.69-1-13-1.06-8.67,0-13,.32-8.68.73-13,1.22a40.86,40.86,0,0,0-6.29,1.37c-2.09.58-4.15,1.28-6.2,2C1703.11,70.9,1699.09,72.62,1695.07,74.37Z" style="fill:#5e4a60"/><path d="M1939.22,89.44a28.56,28.56,0,0,0,3.72-1.72c1.2-.66,2.36-1.36,3.48-2.13s2.21-1.57,3.24-2.44,2-1.77,3-2.7l.06-.06.09,0a23.08,23.08,0,0,1,5.47-2.29,47,47,0,0,1,5.71-1.28c1.92-.3,3.86-.51,5.8-.62a37.4,37.4,0,0,1,5.89,0c2,.25,3.78.5,5.71.78a51.54,51.54,0,0,1,5.7,1.09,29.67,29.67,0,0,1,5.46,2.07c1.73.84,3.42,1.74,5.1,2.68-1.78-.71-3.56-1.43-5.35-2.09a21.77,21.77,0,0,0-5.47-1.39c-3.7-.53-7.59-.66-11.34-1.18a54.15,54.15,0,0,0-11.21.52,34.83,34.83,0,0,0-10.7,3l.14-.1a41,41,0,0,1-3.28,2.59,38,38,0,0,1-3.52,2.24A28.18,28.18,0,0,1,1939.22,89.44Z" style="fill:#5e4a60"/><path d="M1788.76,102.92a97.55,97.55,0,0,1-9.58,4.83c-1.65.71-3.32,1.36-5,2a32.08,32.08,0,0,1-5.29,1.37,112.94,112.94,0,0,1-21.52,1.15c-1.8-.11-3.62-.31-5.4-.57s-3.54-.53-5.3-.83c-3.52-.61-7.05-1.21-10.55-2a72.28,72.28,0,0,1-10.39-2.9,18.15,18.15,0,0,1-2.44-1.27l-2.28-1.38q-2.31-1.36-4.57-2.8,2.41,1.14,4.82,2.34l2.41,1.18a15.1,15.1,0,0,0,2.4,1,86.64,86.64,0,0,0,10.35,2.29c3.51.59,7,1.16,10.54,1.65l5.29.77c1.74.24,3.48.4,5.24.51a101.07,101.07,0,0,0,10.59,0c3.53-.13,7.1-.41,10.6-.75a32,32,0,0,0,5.12-1.07c1.7-.46,3.38-1,5-1.61C1782.19,105.7,1785.48,104.32,1788.76,102.92Z" style="fill:#5e4a60"/><path d="M758.65,178.68c-2.59,1.65-5.31,3.08-8.06,4.47a44.7,44.7,0,0,1-8.68,3.31,127.58,127.58,0,0,1-18.16,3.33c-3.1.3-6.17.36-9.22.47s-6.13.14-9.21.08a81.79,81.79,0,0,1-9.23-.49c-1.57-.22-3-.69-4.52-1s-3-.75-4.44-1.16c1.51.19,3,.41,4.55.64a44.9,44.9,0,0,0,4.51.58c3,.14,6.07,0,9.11-.09s6.1-.24,9.15-.41,6.11-.25,9.11-.57c6-.56,12-1.69,18-2.85a52.49,52.49,0,0,0,8.63-2.7C753.06,181.18,755.85,179.93,758.65,178.68Z" style="fill:#5e4a60"/><path d="M755.79,51.77a80.07,80.07,0,0,1-7.23,5.08,39,39,0,0,1-8,3.93,101.17,101.17,0,0,1-17.3,3.85c-3,.33-5.93.36-8.86.45s-5.88.08-8.82,0a64.4,64.4,0,0,1-8.85-.73,14.85,14.85,0,0,1-2.18-.61L692.45,63c-1.39-.47-2.77-1-4.16-1.46,1.44.29,2.88.61,4.31,1a37.66,37.66,0,0,0,4.25.86,84.16,84.16,0,0,0,8.71.14c2.92-.09,5.84-.17,8.76-.32s5.85-.19,8.7-.54a134.72,134.72,0,0,0,17.09-3.36,28.64,28.64,0,0,0,4-1.43c1.33-.56,2.64-1.2,3.94-1.85C750.71,54.72,753.24,53.24,755.79,51.77Z" style="fill:#5e4a60"/><path d="M1037.38,37.46a78.87,78.87,0,0,1-7.56,4.55,38.53,38.53,0,0,1-8.28,3.36A101,101,0,0,1,1004,48c-3,.12-6-.05-8.87-.18s-5.87-.33-8.8-.64a64.74,64.74,0,0,1-8.78-1.35,16.27,16.27,0,0,1-2.13-.76l-2-.86c-1.35-.56-2.7-1.15-4-1.75,1.41.4,2.82.81,4.22,1.25a34.63,34.63,0,0,0,4.19,1.16,82.61,82.61,0,0,0,8.67.75c2.92.12,5.84.25,8.76.31s5.85.22,8.72.07a132.14,132.14,0,0,0,17.29-2.15,28.41,28.41,0,0,0,4.12-1.14c1.37-.46,2.72-1,4.06-1.57C1032.11,40,1034.74,38.74,1037.38,37.46Z" style="fill:#5e4a60"/><path d="M1323,6.3s28.53.84,33.07,3.44,9.25,9.2,9.25,9.2l-9.48,2.35s-21.73-3.34-28.55-3.94-30.72,2-30.72,2-4.7.34-7.52-1.2C1295,11,1303.26,5.8,1323,6.3Z" style="fill:#3a2f3b"/><path d="M1293.61,31.94s16.27,11.35,34,9.8S1355,36.11,1361.85,28s-1.51-9-3.73-6.52-20.7,9.29-30.56,9.12c-12.51-.21-26.24-4.52-31.24-7.53S1290.88,28.34,1293.61,31.94Z" style="fill:#2c242d"/><path d="M1323.6,11.15s22.55.52,26,2a59.66,59.66,0,0,1,7.58,4.17l-8.57,2.1S1332,18.15,1326.72,18s-23.65,2.52-23.65,2.52a36.18,36.18,0,0,0-5.33-3.08C1301.85,15.55,1308.43,11.62,1323.6,11.15Z" style="fill:#2c242d"/><path d="M1350.5,20.44a43.82,43.82,0,0,1-5.21,2.86,24.54,24.54,0,0,1-5.71,2,62.82,62.82,0,0,1-11.89,1.05c-2-.06-4-.32-6-.54s-3.91-.51-5.86-.88a40.36,40.36,0,0,1-5.82-1.4,8.93,8.93,0,0,1-1.4-.64l-1.3-.69c-.87-.47-1.73-1-2.59-1.44.94.3,1.88.61,2.81.93a26,26,0,0,0,2.76.9,56.62,56.62,0,0,0,5.76.79c1.94.19,3.89.39,5.84.55s3.9.4,5.8.42a96.64,96.64,0,0,0,11.62-.59,30,30,0,0,0,5.58-1.34C1346.8,21.81,1348.65,21.12,1350.5,20.44Z" style="fill:#5e4a60"/><path d="M1404.38,2.37s43.61,3.26,50.38,7.36,13.54,14.06,13.54,14.06l-14.66,2.75s-33-6.4-43.44-7.76-47.15.78-47.15.78-6.2-5.72-10.42-8.15C1360.89,7.85,1374.2.24,1404.38,2.37Z" style="fill:#3a2f3b"/><path d="M1357.66,37.64s24.14,17.68,51.4,16.69,42.21-6.27,53.3-17.63-1.7-13.3-5.27-9.76-32.3,12.05-47.38,11.11c-19.13-1.19-39.85-8.45-47.3-13.19S1353.72,32.2,1357.66,37.64Z" style="fill:#2c242d"/><path d="M1405,9.48s34.47,2.35,39.65,4.75a93.94,93.94,0,0,1,11.32,6.63l-13.27,2.45s-25.4-3-33.4-3.57-36.36,2-36.36,2a55.73,55.73,0,0,0-7.94-4.86C1371.37,14.34,1381.72,9.08,1405,9.48Z" style="fill:#2c242d"/><path d="M1445.5,24.93a87.09,87.09,0,0,1-8.29,3.59,40.29,40.29,0,0,1-8.85,2.32,107.5,107.5,0,0,1-18.13.57c-3.06-.23-6-.73-9-1.18s-5.94-1-8.89-1.61a70.18,70.18,0,0,1-8.79-2.3,15.57,15.57,0,0,1-2.1-1l-2-1.06c-1.33-.71-2.64-1.43-4-2.18,1.4.55,2.79,1.11,4.18,1.7l2.09.87a13.64,13.64,0,0,0,2.06.72,87.64,87.64,0,0,0,8.77,1.7c3,.45,5.92.89,8.89,1.28s5.93.87,8.87,1.05a143.91,143.91,0,0,0,17.86-.12,45.76,45.76,0,0,0,8.68-1.7C1439.81,26.84,1442.65,25.88,1445.5,24.93Z" style="fill:#5e4a60"/><polygon points="572.27 61.34 610.81 58.99 572.44 63.33 572.27 61.34" style="fill:#5e4a60"/><polygon points="663.37 52.58 631.82 56.57 663.06 50.6 663.37 52.58" style="fill:#5e4a60"/><polygon points="839.95 33.54 865.95 33.27 840.05 35.53 839.95 33.54" style="fill:#5e4a60"/><polygon points="907.16 30.52 883.87 31.79 906.97 28.53 907.16 30.52" style="fill:#5e4a60"/><polygon points="1083.89 18.99 1106.73 20.53 1083.84 20.99 1083.89 18.99" style="fill:#5e4a60"/><polygon points="1155.92 19.04 1136.33 18.82 1155.84 17.04 1155.92 19.04" style="fill:#5e4a60"/><path d="M476.33,79.85s-2.73,2.4.27,3.6,15,1.2,26.17-.9,23.72-8.1,25.62-9.9-.27-3-3.27-1.8-14.44,5.1-21.8,6.9S480.69,80.15,476.33,79.85Z" style="fill:#2c242d"/><path d="M482,75.82s12.31-6.24,34.9-7.16a8.47,8.47,0,0,1-2.58,2.94s-18.91,3.3-26.62,5.14C483.51,76.92,482,75.82,482,75.82Z" style="fill:#2c242d"/><polygon points="954.75 142.91 954.78 123.02 963.96 122.61 956.5 124.36 954.75 142.91" style="fill:#af97ae"/><polygon points="805.51 21.86 819.4 66.61 830.29 63.29 816.2 17.92 805.51 21.86" style="fill:#876484"/><path d="M807.52,70.25s8.34-7.32,17.12-5.26a45.48,45.48,0,0,1,8.26-4.64l7.75,0L848,59.28l-8,5.08-7.34,1.11-9.18,3.33-7,.09Z" style="fill:#2c242d"/><path d="M831.1,70.89a50.5,50.5,0,0,1,7.76-2.63,33.92,33.92,0,0,1,6.93.24A55,55,0,0,1,852.84,67c1.43,0,5.85.72,5.85.72l-7.88,4.06-4.66,1.67-7.4-1.67Z" style="fill:#2c242d"/><polygon points="814.3 50.01 805.46 21.81 814.24 18.58 806.88 22.49 814.3 50.01" style="fill:#af97ae"/><polygon points="1720.8 240.97 1726.06 287.54 1737.37 286.32 1732.04 239.12 1720.8 240.97" style="fill:#876484"/><path d="M1713.7,288.89s9.56-5.62,17.81-1.95a44.67,44.67,0,0,1,9-3l7.61,1.49,7.41.28-8.76,3.5-7.41-.29-9.65,1.55-6.9-1.22Z" style="fill:#2c242d"/><path d="M1736.75,293.94a50.58,50.58,0,0,1,8.11-1.13,34.09,34.09,0,0,1,6.76,1.54,56.63,56.63,0,0,1,7.22-.21c1.4.27,5.61,1.81,5.61,1.81l-8.5,2.51-4.89.76-7-3Z" style="fill:#2c242d"/><polygon points="1724.16 270.28 1720.77 240.92 1730.96 239.53 1723.02 242.24 1724.16 270.28" style="fill:#af97ae"/><polygon points="1644.5 400.53 1637.29 427.38 1650.03 426.71 1657.51 402.81 1644.5 400.53" style="fill:#876484"/><path d="M1625.45,428.3s9.56-5.62,17.81-1.95a44.66,44.66,0,0,1,9-3l7.61,1.49,7.42.29-8.76,3.49-7.41-.28-9.65,1.54-6.9-1.22Z" style="fill:#2c242d"/><path d="M1648.49,433.35s5.71-1.22,8.12-1.12a33.58,33.58,0,0,1,6.76,1.53,55.06,55.06,0,0,1,7.21-.2c1.41.27,5.62,1.8,5.62,1.8l-8.51,2.51-4.89.77-7-3Z" style="fill:#2c242d"/><polygon points="1639.01 421.05 1644.49 400.47 1653.68 402.19 1645.36 401.78 1639.01 421.05" style="fill:#af97ae"/><polygon points="2071.32 237.35 2068.43 235.48 2068.32 270.22 2080.43 266.21 2081.47 231.59 2078.33 233.3 2077.21 228.03 2074.75 233.3 2071 228.62 2071.32 237.35" style="fill:#876484"/><path d="M2050.93,268.86s9.56-5.62,17.8-1.95a44.67,44.67,0,0,1,9-3l7.61,1.49,7.42.28-8.76,3.5-7.42-.29-9.64,1.55-6.9-1.22Z" style="fill:#2c242d"/><path d="M2074,273.91a50.57,50.57,0,0,1,8.12-1.13,34.28,34.28,0,0,1,6.76,1.54,54.65,54.65,0,0,1,7.21-.21c1.41.27,5.61,1.81,5.61,1.81l-8.5,2.51-4.89.76-7-3Z" style="fill:#2c242d"/><ellipse cx="1989.71" cy="228.18" rx="2.91" ry="6.05" transform="translate(1426.27 2150.04) rotate(-80.2)" style="fill:#2c242d"/><ellipse cx="1923.66" cy="250.96" rx="2.35" ry="4.68" transform="translate(887.74 1891.18) rotate(-65.16)" style="fill:#2c242d"/><path d="M1942.45,246.24s10.38,9.5,28.47,10.92,29.15-1,37.59-5,.19-5.69-2.52-4.45-25.32,4.3-34.7,1.94-23.15-6.7-27.61-9.19S1937.53,242.49,1942.45,246.24Z" style="fill:#2c242d"/><path d="M1955.45,217.31a38.35,38.35,0,0,1,24.07-5.31c13.74,1.66,21.2,5.67,26.28,10.71s-1.48,5.23-3.12,3.65-17.43-8.07-25-7.45-19,2.33-22.94,3.87S1950.77,219.92,1955.45,217.31Z" style="fill:#2c242d"/><path d="M1980.65,266.39c5.75-.1,14-1.1,18.69-2.78s13.7-6.35,16-8.72,9.35-7.14,9.35-7.14-4.2,6.78-7.53,9.19-14,10.07-18.24,11.1-20.43,1.63-22,1-7.52-2.31-7-2.61S1980.65,266.39,1980.65,266.39Z" style="fill:#2c242d"/><path d="M1808.44,341.78s11.29,12.09,31.25,13.47,32.23-2,41.64-7.48.32-7.4-2.7-5.71-28.06,6.24-38.38,3.41-25.45-8.11-30.33-11.23S1803.08,337,1808.44,341.78Z" style="fill:#2c242d"/><path d="M1823.39,303.84s11.56-9.33,26.7-7.52,23.31,6.83,28.83,13.25-1.74,6.83-3.52,4.82-19.11-10-27.49-9-21,3.51-25.43,5.62S1818.16,307.36,1823.39,303.84Z" style="fill:#2c242d"/><path d="M1805.81,345.86c4.9,4.05,12.69,9,18.13,10.81s17.1,3.8,21.1,3.17,14.16-.07,14.16-.07-9.52,3.44-14.45,3.34-20.68-.51-25.11-2.54-18.58-13.16-19.41-14.88-4.27-7.61-3.62-7.55S1805.81,345.86,1805.81,345.86Z" style="fill:#2c242d"/><path d="M1850.26,367c6.36-.27,15.47-1.79,20.71-4.09s15.27-8.6,17.82-11.75,10.48-9.52,10.48-9.52-4.78,8.92-8.51,12.14-15.72,13.45-20.37,14.9-22.61,2.64-24.38,1.93-8.26-2.81-7.74-3.21S1850.26,367,1850.26,367Z" style="fill:#2c242d"/><ellipse cx="2010.11" cy="370.11" rx="3.79" ry="6.67" transform="matrix(0.07, -1, 1, 0.07, 1493.1, 2347.54)" style="fill:#2c242d"/><ellipse cx="1940.69" cy="409.54" rx="2.99" ry="5.27" transform="translate(778.69 2016.95) rotate(-66.05)" style="fill:#2c242d"/><ellipse cx="1768.04" cy="482.54" rx="8.63" ry="18.41" transform="translate(1030.74 2160.39) rotate(-81.54)" style="fill:#2c242d"/><ellipse cx="1621.99" cy="540.05" rx="14.15" ry="9.58" transform="translate(-18.42 58.85) rotate(-2.07)" style="fill:#2c242d"/><ellipse cx="1741.23" cy="389.19" rx="8.63" ry="18.41" transform="translate(1158.66 2075.59) rotate(-83.54)" style="fill:#2c242d"/><ellipse cx="1829.23" cy="428.19" rx="18.41" ry="8.63" style="fill:#2c242d"/><ellipse cx="2110.51" cy="379.31" rx="8.63" ry="18.41" transform="translate(1494.37 2433.21) rotate(-83.49)" style="fill:#2c242d"/><ellipse cx="2089.74" cy="358.53" rx="5.7" ry="12.15" transform="translate(1496.59 2394.15) rotate(-83.49)" style="fill:#2c242d"/><ellipse cx="2042.01" cy="423.84" rx="12.15" ry="5.7" style="fill:#2c242d"/><ellipse cx="2020.33" cy="584.71" rx="3.79" ry="6.67" transform="translate(1288.55 2556.55) rotate(-85.78)" style="fill:#2c242d"/><ellipse cx="2068.78" cy="579.66" rx="8.63" ry="18.41" transform="matrix(0.07, -1, 1, 0.07, 1352.61, 2605.24)" style="fill:#2c242d"/><ellipse cx="2022.58" cy="557.51" rx="8.63" ry="18.41" transform="translate(1331.58 2538.46) rotate(-86.18)" style="fill:#2c242d"/><ellipse cx="2072.58" cy="551.81" rx="6.14" ry="13.09" transform="translate(1383.94 2583.03) rotate(-86.18)" style="fill:#2c242d"/><ellipse cx="2116.89" cy="544.22" rx="6.14" ry="13.09" transform="translate(1432.87 2620.15) rotate(-86.18)" style="fill:#2c242d"/><ellipse cx="1946" cy="579.03" rx="9.05" ry="19.31" transform="matrix(0.07, -1, 1, 0.07, 1238.63, 2482.13)" style="fill:#2c242d"/><ellipse cx="2091.57" cy="529.66" rx="6.14" ry="13.09" transform="translate(1423.76 2581.3) rotate(-86.18)" style="fill:#2c242d"/><ellipse cx="2162.46" cy="518.27" rx="4.69" ry="10.01" transform="translate(1501.29 2641.4) rotate(-86.18)" style="fill:#2c242d"/><ellipse cx="2052.23" cy="638.44" rx="12.15" ry="5.7" style="fill:#2c242d"/><ellipse cx="1722.72" cy="436.43" rx="12.75" ry="6.67" style="fill:#2c242d"/><ellipse cx="1742.93" cy="192.91" rx="8.63" ry="18.41" transform="translate(1474.41 1925.8) rotate(-87.51)" style="fill:#2c242d"/><ellipse cx="2011.1" cy="142.68" rx="6.98" ry="14.88" transform="translate(1607.99 2118.13) rotate(-82.52)" style="fill:#2c242d"/><ellipse cx="1772.56" cy="177.16" rx="5.69" ry="12.13" transform="translate(1518.48 1940.33) rotate(-87.51)" style="fill:#2c242d"/><ellipse cx="1822.47" cy="240.36" rx="3.8" ry="8.11" transform="translate(1503.09 2050.65) rotate(-87.51)" style="fill:#2c242d"/><ellipse cx="1781.41" cy="248.38" rx="3.8" ry="8.11" transform="translate(1455.79 2017.3) rotate(-87.51)" style="fill:#2c242d"/><ellipse cx="1661.67" cy="328.33" rx="5.18" ry="11.05" transform="translate(1197.91 1957.4) rotate(-85.29)" style="fill:#2c242d"/><ellipse cx="1646.92" cy="171.84" rx="3.8" ry="8.11" transform="translate(1403.62 1809.72) rotate(-87.51)" style="fill:#2c242d"/><ellipse cx="1841.48" cy="79.23" rx="3.8" ry="8.11" transform="translate(1682.25 1915.53) rotate(-87.51)" style="fill:#2c242d"/><ellipse cx="1518" cy="239.66" rx="3.8" ry="8.11" transform="translate(1212.55 1745.8) rotate(-87.51)" style="fill:#2c242d"/><ellipse cx="1402.52" cy="314.05" rx="14.66" ry="6.87" style="fill:#2c242d"/><ellipse cx="1448.84" cy="288.78" rx="17" ry="8.73" style="fill:#2c242d"/><path d="M1295.59,94.92s-3.78-5.68-1.75-10,25.62-9.37,35.92-8.12c14.6,1.79,30.13,4.16,33.89,9.23s3.33,13-.26,14.87-15.69,4-15.69,4,12.33-4.84,13.51-6.38,1.3-9.14-1.15-10.29-21.65-4.85-31.37-5c-14.27-.27-26.06,1.21-29.34,4S1295.59,94.92,1295.59,94.92Z" style="fill:#2c242d"/><path d="M1484.56,449s24.17-5,35.35-1.62c15.13-2.24,35.61-1.09,44.64,2.5,18.16-2.69,43.76-.46,50.09,2.33,14.48.27,37,1.58,48.88,3.78-9.85-5.2-40.07-8.81-47.78-7.95-11.28-2.92-41.61-6.11-49.87-3.17-13.93-2.35-36.11-4.92-43.21-1.63C1507.91,442.48,1488.47,448.4,1484.56,449Z" style="fill:#2c242d"/><path d="M1464.42,459.53s24.31-4,35.36-.28c15.2-1.67,35.62.26,44.52,4.2,18.23-2,43.73,1.2,50,4.23,14.45.81,36.9,3,48.71,5.62-9.68-5.56-39.75-10.32-47.48-9.76-11.18-3.34-41.37-7.68-49.72-5.05-13.83-2.88-35.91-6.29-43.11-3.27C1488,453.86,1468.35,459,1464.42,459.53Z" style="fill:#2c242d"/><path d="M1882.87,126.6s-9.34-.68-15.27-1.79-8.56-6.35-5.33-7.73,10-2.28,10-2.28Z" style="fill:#2c242d"/><path d="M1896.19,95.38C1879,85,1866.94,104,1864.63,107.76s3.68,11.67,13.38,17.56,19.44,7.58,21.75,3.78S1913.35,105.81,1896.19,95.38Z" style="fill:#876484"/><path d="M1880.25,113.08c.23,1.86-2.83,5-1.18,7.84a4.16,4.16,0,0,0,1.48,1.43,4.22,4.22,0,0,0,2,.65c3.28.16,4.66-4,6.42-4.66Z" style="fill:#753d54"/><path d="M1874.87,111.63a.85.85,0,0,1,.71-1.54c.28.09,7.1,2.37,18.42,10.65a.85.85,0,0,1,.18,1.19.86.86,0,0,1-1.19.19c-11.07-8.1-17.87-10.38-17.94-10.41A.48.48,0,0,1,1874.87,111.63Z" style="fill:#2f2f2f"/><path d="M1880.19,101.91s1.14,3.21,1.85,6.28" style="fill:none;stroke:#2f2f2f;stroke-linecap:round;stroke-linejoin:bevel;stroke-width:1.75px"/><path d="M1878.25,106.65a63.71,63.71,0,0,1,5.72-3.19" style="fill:none;stroke:#2f2f2f;stroke-linecap:round;stroke-linejoin:bevel;stroke-width:1.75px"/><path d="M1896,111.18a63.44,63.44,0,0,1-.53,6.52" style="fill:none;stroke:#2f2f2f;stroke-linecap:round;stroke-linejoin:bevel;stroke-width:1.75px"/><path d="M1892.46,114.9A64.59,64.59,0,0,1,1899,114" style="fill:none;stroke:#2f2f2f;stroke-linecap:round;stroke-linejoin:bevel;stroke-width:1.75px"/><path d="M1917.84,135.64l-16-11.63s-13.67,2.55-21.69,2.81a36.41,36.41,0,0,1-21.61-6.61l7.27,11.34,29.08,7.64Z" style="fill:#3a2f3b"/><path d="M1908.51,121.59s-1.5,6.49-6,8.3-17.84,3.64-23.21,2.91-17.3-4.81-19.62-7.86-9.74-4.38-9.74-4.38l6.43,6.36s13.16,12.76,19.8,10.93c11.69,1.29,23.83-.7,26.76-2.12S1908.51,121.59,1908.51,121.59Z" style="fill:#2c242d"/><path d="M1470.79,55.16s17.72-1.67,26.26.18c10.34-.38,20.48-1.07,27.21.66,10.59-.33,17.14-.22,25.12,1.77-9-3.52-18.31-5.29-24.83-4.34-13.33-1.58-20.44-1.55-26.9-.85C1488.44,51.37,1475.41,53.27,1470.79,55.16Z" style="fill:#5e4a60"/><path d="M1715.85,51.33s24.78-.82,36.81,2c14.48.23,28.68.09,38.16,2.6,14.84.31,24,.88,35.27,3.8-12.67-4.81-25.83-7.55-34.94-6.85-18.73-2.78-28.7-3.21-37.73-2.81C1740.48,48,1722.26,49.38,1715.85,51.33Z" style="fill:#5e4a60"/><path d="M1870.44,38.86c10.12-.66,31,2.13,41.37,4.84,9,2.35,16.28,16.42,16.28,16.42l-10.39,1.47s-23.58-4.53-31-5.55-33.52-.29-33.52-.29a59.39,59.39,0,0,0-7.52-5.24C1848.34,46.81,1848.92,40.26,1870.44,38.86Z" style="fill:#3a2f3b"/><path d="M1859.75,45.61s-3.61,1.47-.68,3.55,16,5.75,28.73,7.15,28-.52,30.57-1.66.52-3-3.07-2.74-17.11.48-25.6,0S1864.42,47.23,1859.75,45.61Z" style="fill:#2c242d"/><path d="M1867.07,43.48s15.08-2.24,39.92,3.81a9,9,0,0,1-3.6,2s-21.48-2.62-30.38-3.22C1868.37,45,1867.07,43.48,1867.07,43.48Z" style="fill:#2c242d"/><path d="M1682.14,116.32s31,22.69,62,22.85c34.19.17,49.39-6.23,63.52-20.72,17.85-18.3,4.56-22.17-.58-15.89s-41.6,23.34-60.24,21.45c-23.66-2.39-49.3-15.18-57.68-23.76S1678.29,106.55,1682.14,116.32Z" style="fill:#2c242d"/><path d="M1745.38,70.63s42.59,4.67,48.58,9,12.84,12,12.84,12l-17,4.21s-31.13-5.77-41-6.83S1703,92.11,1703,92.11s-5.22-6.22-9-8.8C1702.48,78.88,1716.43,69.6,1745.38,70.63Z" style="fill:#2c242d"/><path d="M2054.39,121.39s25.72-3,37.26,1.13c16.06-1,37.53,1.66,46.8,5.85,19.27-1.23,46.05,2.9,52.54,6.1,15.21,1.37,38.81,4.37,51.18,7.41-10.05-5.81-41.61-11.63-49.77-11.39-11.68-3.7-43.39-9.13-52.25-6.9-14.5-3.35-37.68-7.55-45.35-4.89C2079.34,116.8,2058.54,121.07,2054.39,121.39Z" style="fill:#2c242d"/><path d="M2087.63,135.51s25.8-2.07,37.2,2.43c16.08-.46,37.44,3,46.56,7.49,19.3-.55,45.93,4.52,52.3,7.94,15.15,1.9,38.63,5.73,50.88,9.21-9.83-6.16-41.17-13.09-49.33-13.14-11.55-4.11-43-10.64-52-8.72-14.38-3.86-37.39-8.87-45.15-6.48C2112.72,131.79,2091.78,135.33,2087.63,135.51Z" style="fill:#2c242d"/><path d="M2097.31,107.2s17.79.59,26,3.51c10.31.94,20.46,1.54,26.91,4.1,10.55,1,17,2,24.7,5-8.45-4.63-17.49-7.57-24.08-7.45-13-3.27-20.08-4.13-26.58-4.26C2115.3,105.68,2102.13,105.91,2097.31,107.2Z" style="fill:#2c242d"/><path d="M1582.65,57.44s17.75-1.37,26.26.63c10.34-.21,20.5-.73,27.19,1.11,10.6-.15,17.15.07,25.09,2.2-8.9-3.68-18.22-5.6-24.75-4.76-13.3-1.81-20.41-1.9-26.89-1.3C1600.37,54,1587.3,55.63,1582.65,57.44Z" style="fill:#2c242d"/><path d="M1926.23,171.85s18,0,26.26,3c10.42.66,20.69,1,27.12,3.59,10.66.74,17.2,1.55,24.83,4.62-8.35-4.87-17.39-7.83-24.08-7.45-13.07-3.17-20.19-3.88-26.78-3.78C1944.58,169.48,1931.19,170.23,1926.23,171.85Z" style="fill:#2c242d"/><path d="M1555,70.16s17.75-1.38,26.25.62c10.35-.21,20.5-.72,27.2,1.11,10.6-.15,17.15.07,25.09,2.2-8.9-3.67-18.22-5.6-24.75-4.76-13.31-1.8-20.41-1.89-26.89-1.3C1572.73,66.66,1559.66,68.35,1555,70.16Z" style="fill:#2c242d"/><path d="M1498.28,193.7s17.44-3.59,26.13-2.67c10.23-1.5,20.24-3.29,27.12-2.3,10.49-1.48,17-2.08,25.17-1-9.3-2.54-18.78-3.28-25.16-1.63-13.42-.12-20.49.68-26.84,2.08C1515.42,188,1502.67,191.32,1498.28,193.7Z" style="fill:#2c242d"/><path d="M2165.61,343.51s12.2,14.41,29.32,15.23,27.25-2.23,36-10c-.36-8.4-1.66-2-.77-6.47-2.78,2.4-22,7-31.24,5.49-11.71-2-23.44-8.49-27.32-12.41C2168,343.82,2169.45,335,2165.61,343.51Z" style="fill:#2c242d"/><path d="M2200.48,326.47s21.07,3.69,23.91,5.75a24,24,0,0,1,5.16,5.78l-10.23,2.3s-13.66-3.11-18.56-4-19.31.27-19.31.27-5.25-5.75-7-7C2178.81,328.14,2186.08,324.85,2200.48,326.47Z" style="fill:#2c242d"/><path d="M1948.32,95.79s9.82,12.17,23.6,12.86,22-1.88,29-8.42c-.29-7.09-1.33-1.73-.62-5.46-2.24,2-17.73,6-25.16,4.64-9.43-1.66-18.88-7.17-22-10.48C1950.23,96.05,1951.41,88.56,1948.32,95.79Z" style="fill:#2c242d"/><path d="M1976.4,81.4s17,3.12,19.25,4.86a20.06,20.06,0,0,1,4.16,4.88l-8.24,1.94s-11-2.62-14.94-3.34-15.56.23-15.56.23a69.67,69.67,0,0,0-5.66-5.9C1958.94,82.81,1964.8,80,1976.4,81.4Z" style="fill:#2c242d"/><path d="M1587,363.45s12.06,13.74,25.81,12.5,21.34-5.7,27-14.95c-1.66-8.84-1.66-2-1.67-6.75-1.83,2.88-16.38,10.15-24,9.64-9.64-.64-20-6.09-23.77-9.76C1588.93,363.48,1588.65,353.93,1587,363.45Z" style="fill:#2c242d"/><path d="M1612,341.15s17.37,1.32,20,3.15a25.35,25.35,0,0,1,5,5.47l-7.77,3.69s-11.38-1.61-15.41-1.9-15.34,2.66-15.34,2.66-5.11-5.44-6.73-6.52C1595,345.58,1600.24,341.21,1612,341.15Z" style="fill:#2c242d"/><ellipse cx="2259.01" cy="379.81" rx="11.65" ry="24.85" transform="translate(1387 2498.06) rotate(-77.17)" style="fill:#2c242d"/><ellipse cx="2285.2" cy="365.04" rx="6.03" ry="13.11" transform="translate(1199.91 2408.94) rotate(-71.11)" style="fill:#2c242d"/><path d="M2123.05,474s16.78,11.93,43.17,13.12,41.88-2.34,53.31-7.85-.82-7.37-4.49-5.67-35.73,6.5-49.71,3.78-34.69-7.84-41.6-10.9S2115.23,469.35,2123.05,474Z" style="fill:#2c242d"/><path d="M2141.25,426.25s13.59-9.4,33.73-7.75,31.67,6.58,40,12.93-1.14,6.82-3.81,4.83-26.7-9.82-37.51-8.74-26.92,3.7-32.38,5.84S2135,429.8,2141.25,426.25Z" style="fill:#2c242d"/><path d="M2250.26,318.3s-6.11-12.38-.44-20.07,52.78-7.57,79-2.44c30.82,6,61.61,17.47,67.89,28.66s2.81,26.46-5.4,28.94S2357,355.8,2357,355.8s28.86-6.56,32.37-8.42c5.84-3.1,2.19-20.48-2.82-23.24-13-7.15-40.08-17.17-60.54-20.89-30-5.45-59.86-5.83-67.67-1.48S2250.26,318.3,2250.26,318.3Z" style="fill:#2c242d"/><path d="M2307.37,286s45.62,6.16,55.88,10.73,16.48,7.68,25.73,14.66c-7.58-9.13-20.5-19.73-28.45-21.77s-20.12-4.54-27.6-5.86S2307.37,286,2307.37,286Z" style="fill:#2c242d"/><ellipse cx="1347.24" cy="245.69" rx="24.85" ry="11.65" style="fill:#2c242d"/><ellipse cx="1181.65" cy="190.93" rx="24.85" ry="11.65" style="fill:#2c242d"/><ellipse cx="1431.27" cy="177.71" rx="18.41" ry="8.63" transform="translate(-6.7 66.49) rotate(-2.65)" style="fill:#2c242d"/><path d="M1774.42,586s17.83,12.57,44.3,12.37,41.63-5.11,52.55-12-1.47-8.33-5-6.17-35.12,9.45-49.33,7.19-35.36-6.87-42.53-9.94S1766.19,581.14,1774.42,586Z" style="fill:#2c242d"/><path d="M1784.31,542.15a49.86,49.86,0,0,1,33-10.77c20.27.71,32.22,5.62,41.07,12.34s-.53,7.8-3.37,5.71-27.55-9.59-38.25-7.73-26.57,5.77-31.83,8.52S1778.37,546.55,1784.31,542.15Z" style="fill:#2c242d"/><path d="M2284.23,204.72c-6.12,2.39-23.7-1.64-28-2.58s-21.34-3-21.34-3l-43.53-6.4s-21.41.88-29.91-2.28c-13.22-2-24.77-2.61-29.87-4.42s-22.2-2.56-22.2-2.56l-26.88-4.36-16.19-3.73s18,.34,22.23,1.28,19.21,2.5,19.21,2.5l12-1.91s-13.18-4.53-20-5.94-22.62-3-28.18-3.53-26-4.78-26-4.78l35.93,1.11,37.55,5.43,13.66,1.54L2116.21,164s22.62,3.42,23.91,3,21.34,3,29.42,5.27,28.14,5.67,29.42,5.69,18.78,2.5,20.9,3.82,52.88,9.57,52.88,9.57l10.13,2.43s3.59,2.73,3.93,4.11C2287.33,200,2286.5,203.83,2284.23,204.72Z" style="fill:#2c242d"/><path d="M2288.42,204.06s-2.11,5.13-3.7,5.82-6.62.45-8.19-.15-8-.59-13.88-2.42c-8.76-.31-13.87-3.43-18.6-3.95-5.17-.1-11.33-.64-11.33-.64l-10-2.06s8,3.45,11,3.94a98.66,98.66,0,0,0,10.32,1.2c4.14,1.52,16.14,5,19.3,5l13.31,2.4,10,1.78s6.32-7.35,6.76-8.21-.18-5.46-1-8.06C2290.92,200.66,2288.42,204.06,2288.42,204.06Z" style="fill:#2c242d"/><path d="M2243.13,209.71s-12.32-1.23-17.61-3.33a53.33,53.33,0,0,1-8.92-4.51s-10.33.14-16-1.3c4.92,4.09,13.26,3.59,15.57,5s4.92,4.43,13.57,5.26S2243.13,209.71,2243.13,209.71Z" style="fill:#2c242d"/><path d="M2268.42,187.36l-17.67-2.79L2227.66,180s-13-2.7-19.29-3.91c6-1,15.57-1.07,19.89,1.19,8.43,1,18.76,2.54,22.28,4.25C2257.88,182.52,2268.42,187.36,2268.42,187.36Z" style="fill:#2c242d"/><path d="M2281.15,196.21l-.41,6.76s-23.64-4.12-31.56-5.26c-17.61-2.55-24-13.15-24-13.15l1.1-7.39a42,42,0,0,0,24.49,13.61Z" style="fill:#876484"/><polygon points="1564.68 23.23 1602.33 26.61 1564.55 25.23 1564.68 23.23" style="fill:#5e4a60"/><polygon points="1709.44 31.76 1737.01 35.84 1709.22 33.75 1709.44 31.76" style="fill:#5e4a60"/><polygon points="1681.8 31.78 1641.09 28.79 1681.9 29.78 1681.8 31.78" style="fill:#5e4a60"/><polygon points="1789.2 40.1 1758.12 37.74 1789.29 38.1 1789.2 40.1" style="fill:#5e4a60"/><polygon points="2004.55 61.3 2030.78 66.93 2004.2 63.27 2004.55 61.3" style="fill:#5e4a60"/><polygon points="2098.29 76.37 2063.15 71.24 2098.53 74.39 2098.29 76.37" style="fill:#5e4a60"/></g></g></svg>