<svg xmlns="http://www.w3.org/2000/svg" viewBox="0 0 96.72 100"><title>swirls</title><g id="Layer_2" data-name="Layer 2"><g id="Layer_1-2" data-name="Layer 1"><g style="opacity:0.3"><path d="M38.36,0A50.06,50.06,0,0,0,0,36.26,50.06,50.06,0,0,1,38.36,5.63Z" style="fill:#fff"/><path d="M38.36,9.36a34.46,34.46,0,0,0-26.42,25,34.49,34.49,0,0,1,26.42-21.1Z" style="fill:#fff"/><path d="M58.36,100A50.06,50.06,0,0,0,96.72,63.74,50.06,50.06,0,0,1,58.36,94.37Z" style="fill:#fff"/><path d="M58.36,90.64a34.48,34.48,0,0,0,26.42-25,34.49,34.49,0,0,1-26.42,21.1Z" style="fill:#fff"/></g></g></g></svg>