<svg xmlns="http://www.w3.org/2000/svg" viewBox="0 0 55.3 102.55"><title>thrust</title><g id="Layer_2" data-name="Layer 2"><g id="Layer_1-2" data-name="Layer 1"><g style="opacity:0.23"><path d="M41.63,81.82s8.23-17.72,9.11-26.09C46.46,58.61,35.93,67,35.93,67s6.84-17.39,7.18-32.76a101.6,101.6,0,0,1-9.64,9.61S30.64,31.63,27.65,0C25,30.57,21.59,43.75,21.59,43.75a37.91,37.91,0,0,1-10.26-9.48c-.47,14.51,8.38,32.65,8.38,32.65S5.37,60,1.47,57c.76,8.38,12.77,24.27,12.77,24.27A98.5,98.5,0,0,1,0,77.38c4.91,13.52,16.61,23.79,26.79,25.06,3.66,0-.31-.08,2.41-.08C42.63,99.67,50.74,87,55.3,74.86A60,60,0,0,1,41.63,81.82Z" style="fill:#fff"/></g><path d="M27.63,36.33S23,77.66,23.48,88.25s1.21,14.3,4.32,14.3c3.8,0,4-8.34,4-14.67S29,41.72,27.63,36.33Z" style="fill:#fff"/></g></g></svg>