<svg xmlns="http://www.w3.org/2000/svg" viewBox="0 0 69.46 85.3"><title>thrust-side</title><g id="Layer_2" data-name="Layer 2"><g id="Layer_1-2" data-name="Layer 1"><g style="opacity:0.23"><path d="M55.42,9.26s-12-5.58-17.67-6.17c2,2.89,7.66,10,7.66,10S33.63,8.49,23.22,8.26a69.24,69.24,0,0,1,6.51,6.52s-8.31,1.93-29.73,4c20.71,1.79,29.63,4.1,29.63,4.1a25.56,25.56,0,0,1-6.42,7c9.83.32,22.11-5.67,22.11-5.67s-4.69,9.71-6.69,12.35c5.68-.52,16.44-8.65,16.44-8.65a66.48,66.48,0,0,1-2.66,9.65c9.16-3.33,16.11-11.25,17-18.15,0-2.48-.06.21-.06-1.64C67.51,8.58,59,3.09,50.71,0A40.68,40.68,0,0,1,55.42,9.26Z" style="fill:#fff"/></g><path d="M28.22,18.74s25.74,3.34,32.33,3,8.91-.88,8.91-3.11c0-2.73-5.2-2.87-9.14-2.87S31.58,17.74,28.22,18.74Z" style="fill:#fff"/><g style="opacity:0.23"><path d="M55.42,57.11s-12-5.58-17.67-6.18c2,2.9,7.66,10,7.66,10S33.63,56.33,23.22,56.1a68.35,68.35,0,0,1,6.51,6.53S21.42,64.55,0,66.57c20.71,1.8,29.63,4.1,29.63,4.1a25.56,25.56,0,0,1-6.42,7C33,77.94,45.32,72,45.32,72s-4.69,9.72-6.69,12.35c5.68-.51,16.44-8.64,16.44-8.64a66.18,66.18,0,0,1-2.66,9.64c9.16-3.32,16.11-11.25,17-18.15,0-2.47-.06.21-.06-1.63C67.51,56.42,59,50.93,50.71,47.84A40.84,40.84,0,0,1,55.42,57.11Z" style="fill:#fff"/></g><path d="M28.22,66.59s25.74,3.33,32.33,3,8.91-.87,8.91-3.11c0-2.73-5.2-2.86-9.14-2.86S31.58,65.59,28.22,66.59Z" style="fill:#fff"/></g></g></svg>