<svg xmlns="http://www.w3.org/2000/svg" viewBox="0 0 200 340"><title>wing-right</title><g id="Layer_2" data-name="Layer 2"><g id="Layer_1-2" data-name="Layer 1"><rect y="163.73" width="169.98" height="12.54" transform="translate(169.98 340) rotate(-180)" style="fill:#404155"/><rect x="63.48" width="136.52" height="340" transform="translate(263.48 340) rotate(-180)" style="fill:#585b6d"/><path d="M133.76,28.08s7,224.35.48,273.67C129.53,265.47,127.09,70.85,133.76,28.08Z" style="fill:#404155"/><path d="M91.72,165.41s45.48-7,78.72-.07C159.67,166.69,104.46,167.91,91.72,165.41Z" style="fill:#404155"/><path d="M90.62,90.29s44.48-6.47,78.23,1.9C157.92,93.19,103.55,93.32,90.62,90.29Z" style="fill:#404155"/><path d="M92.69,244.15s46.72-7,79.43-1.44C161.52,244.43,105.24,246.11,92.69,244.15Z" style="fill:#404155"/></g></g></svg>